<svg id="Component_7_1" data-name="Component 7 – 1" xmlns="http://www.w3.org/2000/svg" width="83" height="83" viewBox="0 0 83 83">
  <circle id="Ellipse_152" data-name="Ellipse 152" cx="41.5" cy="41.5" r="41.5" fill="#ff8e8e"/>
  <path id="icons8-music-record" d="M24.413,3A21.413,21.413,0,1,0,45.826,24.413,21.414,21.414,0,0,0,24.413,3ZM34.775,9.9a17.941,17.941,0,0,1,4.148,4.147l-5.8,4.144a10.764,10.764,0,0,0-2.488-2.488ZM24.413,17.275a7.138,7.138,0,1,1-7.138,7.138A7.138,7.138,0,0,1,24.413,17.275Zm0,5.353A1.784,1.784,0,1,0,26.2,24.413,1.784,1.784,0,0,0,24.413,22.629Zm-8.706,8A10.764,10.764,0,0,0,18.2,33.119l-4.144,5.8A17.941,17.941,0,0,1,9.9,34.775Z" transform="translate(17.087 18.512)" fill="#171717"/>
</svg>
