<svg xmlns="http://www.w3.org/2000/svg" width="229.746" height="48" viewBox="0 0 229.746 48">
  <g id="Group_28" data-name="Group 28" transform="translate(-148.627 -6098.466)">
    <text id="hruv-jindal" transform="translate(277.373 6134.466)" fill="#fff" font-size="34" font-family="Poppins-Bold, Poppins" font-weight="700"><tspan x="-100" y="0">hruv-jindal</tspan></text>
    <path id="Path_696" data-name="Path 696" d="M14.057,0A14.069,14.069,0,0,0,0,14.057v4.534a5.484,5.484,0,0,0,5.478,5.478H6.829a1.359,1.359,0,0,0,1.36-1.36V14.474a1.359,1.359,0,0,0-1.36-1.36H5.478a5.443,5.443,0,0,0-2.748.744,11.329,11.329,0,0,1,22.654,0,5.443,5.443,0,0,0-2.748-.744H21.284a1.359,1.359,0,0,0-1.36,1.36v8.234a1.359,1.359,0,0,0,1.36,1.36h1.351a5.484,5.484,0,0,0,5.478-5.478V14.057A14.069,14.069,0,0,0,14.057,0Z" transform="translate(172.695 6108.147) rotate(90)" fill="#fff"/>
  </g>
</svg>
