<svg xmlns="http://www.w3.org/2000/svg" width="678" height="677" viewBox="0 0 678 677">
  <g id="Group_27" data-name="Group 27" transform="translate(-145.596 -5218)">
    <g id="Ellipse_162" data-name="Ellipse 162" transform="translate(145.596 5218)" fill="#171717" stroke="#8effbb" stroke-linecap="round" stroke-width="3" stroke-dasharray="20">
      <ellipse cx="339" cy="338.5" rx="339" ry="338.5" stroke="none"/>
      <ellipse cx="339" cy="338.5" rx="337.5" ry="337" fill="none"/>
    </g>
    <circle id="Ellipse_163" data-name="Ellipse 163" cx="284" cy="284" r="284" transform="translate(201.596 5271)" fill="#2e3240"/>
    <g id="Get_in_touch-amico" data-name="Get in touch-amico" transform="translate(255.979 5372.538)">
      <g id="freepik--Floor--inject-9" transform="translate(17.44 147.234)">
        <ellipse id="freepik--floor--inject-9-2" data-name="freepik--floor--inject-9" cx="212.176" cy="148.685" rx="212.176" ry="148.685" transform="translate(0 0)" fill="#171717"/>
      </g>
      <g id="freepik--Shadows--inject-9" transform="translate(51.617 275.071)">
        <path id="freepik--Shadow--inject-9" d="M399.54,308.887c-14.7,8.486-14.7,22.239,0,30.724s38.516,8.486,53.206,0,14.69-22.239,0-30.724S414.2,300.4,399.54,308.887Z" transform="translate(-88.154 -302.522)" fill="#2e3240"/>
        <ellipse id="freepik--shadow--inject-9-2" data-name="freepik--shadow--inject-9" cx="58.238" cy="33.619" rx="58.238" ry="33.619" transform="translate(221.891 37.91)" fill="#2e3240"/>
        <path id="freepik--shadow--inject-9-3" data-name="freepik--shadow--inject-9" d="M56.848,402.815l5.952,3.436a7.53,7.53,0,0,0,6.8,0L200.829,330.5c1.876-1.082,1.876-2.841,0-3.923l-5.961-3.436a7.449,7.449,0,0,0-6.791,0L56.848,398.892C54.981,399.974,54.981,401.733,56.848,402.815Z" transform="translate(-55.448 -304.467)" fill="#e0e0e0"/>
        <path id="freepik--shadow--inject-9-4" data-name="freepik--shadow--inject-9" d="M93.848,412.1l5.952,3.436a7.53,7.53,0,0,0,6.8,0l111.995-64.425c1.876-1.082,1.876-2.841,0-3.923l-5.952-3.445a7.53,7.53,0,0,0-6.8,0L93.848,408.176C91.991,409.258,91.991,411.016,93.848,412.1Z" transform="translate(-59.082 -306.49)" fill="#e0e0e0"/>
      </g>
      <g id="freepik--Pictures--inject-9" transform="translate(374.654 44.901)">
        <g id="freepik--Picture--inject-9">
          <g id="freepik--Frame--inject-9">
            <path id="Path_1073" data-name="Path 1073" d="M450.777,109.253l-1.578.938L416.95,91.578l1.569-.938Z" transform="translate(-413.983 -51.547)" fill="#fafafa"/>
            <path id="Path_1074" data-name="Path 1074" d="M418.69,87.142l30.679,17.7V72.722L418.69,55.02Z" transform="translate(-414.154 -48.049)" fill="#fff"/>
            <path id="Path_1075" data-name="Path 1075" d="M413.66,89.126l38.182,22.031V70.35L413.66,48.31Zm3.012-35.684,32.248,18.622v33.971L416.672,87.421Z" transform="translate(-413.66 -47.39)" fill="#f0f0f0"/>
            <path id="Path_1076" data-name="Path 1076" d="M416.95,87.98l1.569-.938V54.92L416.95,54Z" transform="translate(-413.983 -47.949)" fill="#e0e0e0"/>
            <path id="Path_1077" data-name="Path 1077" d="M413.66,48.2l1.6-.911,38.182,22.049-1.6.911Z" transform="translate(-413.66 -47.29)" fill="#fafafa"/>
            <path id="Path_1078" data-name="Path 1078" d="M457.6,71.74l-1.6.911v40.825l1.6-.911Z" transform="translate(-417.818 -49.691)" fill="#e0e0e0"/>
          </g>
          <g id="freepik--Land--inject-9" transform="translate(5.735 20.002)">
            <path id="Path_1079" data-name="Path 1079" d="M420.02,87.6l28.29,16.332V95.767L441.23,79.435l-4.4,4.085,1.587,6.845L428.65,69.47l-8.63,9.965Z" transform="translate(-420.02 -69.47)" fill="#f0f0f0"/>
            <path id="Path_1080" data-name="Path 1080" d="M438.773,71.747a4.572,4.572,0,0,1,2.092,3.607c0,1.335-.9,1.876-2.092,1.208a4.617,4.617,0,0,1-2.083-3.607C436.645,71.621,437.574,71.044,438.773,71.747Z" transform="translate(-421.657 -69.664)" fill="#f0f0f0"/>
          </g>
        </g>
        <g id="freepik--picture--inject-9-2" data-name="freepik--picture--inject-9" transform="translate(0 51.286)">
          <g id="freepik--frame--inject-9-2" data-name="freepik--frame--inject-9">
            <path id="Path_1081" data-name="Path 1081" d="M450.777,166.132l-1.578.938L416.95,148.448l1.569-.938Z" transform="translate(-413.983 -108.417)" fill="#fafafa"/>
            <path id="Path_1082" data-name="Path 1082" d="M418.69,144.013l30.679,17.711V129.593L418.69,111.9Z" transform="translate(-414.154 -104.92)" fill="#fff"/>
            <path id="Path_1083" data-name="Path 1083" d="M413.66,146l38.182,22.04V127.22L413.66,105.18Zm3.012-35.693,32.248,18.622v33.98l-32.248-18.622Z" transform="translate(-413.66 -104.26)" fill="#f0f0f0"/>
            <path id="Path_1084" data-name="Path 1084" d="M416.95,144.85l1.569-.938V111.8l-1.569-.929Z" transform="translate(-413.983 -104.819)" fill="#e0e0e0"/>
            <path id="Path_1085" data-name="Path 1085" d="M413.66,105.08l1.6-.92,38.182,22.049-1.6.911Z" transform="translate(-413.66 -104.16)" fill="#fafafa"/>
            <path id="Path_1086" data-name="Path 1086" d="M457.6,128.61l-1.6.911v40.825l1.6-.911Z" transform="translate(-417.818 -106.561)" fill="#e0e0e0"/>
          </g>
          <g id="freepik--land--inject-9-2" data-name="freepik--land--inject-9" transform="translate(5.735 20.011)">
            <path id="Path_1087" data-name="Path 1087" d="M420.02,144.467,448.31,160.8v-8.161l-7.079-16.332-4.4,4.085,1.587,6.845L428.65,126.35l-8.63,9.956Z" transform="translate(-420.02 -126.35)" fill="#f0f0f0"/>
            <path id="Path_1088" data-name="Path 1088" d="M438.773,128.619a4.6,4.6,0,0,1,2.092,3.607c0,1.335-.9,1.876-2.092,1.208a4.608,4.608,0,0,1-2.083-3.607C436.645,128.493,437.574,127.952,438.773,128.619Z" transform="translate(-421.657 -126.545)" fill="#f0f0f0"/>
          </g>
        </g>
      </g>
      <g id="freepik--Plants--inject-9" transform="translate(26.935 286.093)">
        <g id="freepik--plants--inject-9-2" data-name="freepik--plants--inject-9" transform="translate(0)">
          <path id="Path_1089" data-name="Path 1089" d="M62.947,392.3c2.227-12.382,3.274-26.107-.9-45.406-3.5-16.232-12.3-30.165-22.437-32.005-4.112-.748-8.333,1.641-9.379,4.148-2.868,6.9,2.4,13.184,4.852,16.323,1.8,2.345,18.821,19.01,20.245,44.369l.848,15.168c.126.785.812,1.181,1.353.785Z" transform="translate(-28.207 -314.745)" fill="#88f5b4"/>
          <path id="Path_1090" data-name="Path 1090" d="M62.947,392.3c2.227-12.382,3.274-26.107-.9-45.406-3.5-16.232-12.3-30.165-22.437-32.005-4.112-.748-8.333,1.641-9.379,4.148-2.868,6.9,2.4,13.184,4.852,16.323,1.8,2.345,18.821,19.01,20.245,44.369l.848,15.168c.126.785.812,1.181,1.353.785Z" transform="translate(-28.207 -314.745)" fill="#fff" opacity="0.3"/>
          <path id="Path_1091" data-name="Path 1091" d="M61,387.28a.6.6,0,0,1-.316-.577c.6-32.3-8.874-52.494-22.545-63.911a.685.685,0,0,1-.144-.821.388.388,0,0,1,.622-.171c13.861,11.552,23.591,32.194,22.969,64.93a.523.523,0,0,1-.46.577Z" transform="translate(-29.044 -315.429)" fill="#fff"/>
          <path id="Path_1092" data-name="Path 1092" d="M57.4,399.177c-1.515,1.073-2.345-1.136-3.1-3.67-2.426-8.17-5.1-12.481-9.649-18.216-5.618-7.061-15.331-13.581-16.431-19.425-.974-5.3,3.292-9.388,10.885-6.556,9.117,3.409,21.436,14.429,21.021,46.163Z" transform="translate(-28.078 -318.245)" fill="#88f5b4"/>
          <path id="Path_1093" data-name="Path 1093" d="M58.6,395.574a.577.577,0,0,1-.361-.46c-4.3-24.484-17.892-36.631-24.177-39.039a.649.649,0,0,1-.334-.73c.063-.307.3-.487.55-.388,6.962,2.651,20.453,14.952,24.854,39.95a.568.568,0,0,1-.343.676A.271.271,0,0,1,58.6,395.574Z" transform="translate(-28.631 -318.691)" fill="#fff"/>
        </g>
      </g>
      <g id="freepik--Table--inject-9" transform="translate(354.936 210.527)">
        <g id="freepik--table--inject-9-2" data-name="freepik--table--inject-9" transform="translate(0 0)">
          <g id="freepik--table--inject-9-3" data-name="freepik--table--inject-9" transform="translate(0 11.549)">
            <path id="Path_1094" data-name="Path 1094" d="M399.825,280.5a.965.965,0,0,1,.568-.785,3.021,3.021,0,0,1,2.706,0,.965.965,0,0,1,.559.785L396.8,320.964h0a.685.685,0,0,1-.4.541,2.119,2.119,0,0,1-1.921,0,.667.667,0,0,1-.4-.541h0Z" transform="translate(-392.02 -247.257)" fill="#455a64"/>
            <path id="Path_1095" data-name="Path 1095" d="M458.642,280.5a.965.965,0,0,0-.568-.785,3,3,0,0,0-2.705,0,.965.965,0,0,0-.568.785l6.854,40.464h0a.686.686,0,0,0,.4.541,2.137,2.137,0,0,0,1.93,0,.7.7,0,0,0,.4-.541h0Z" transform="translate(-397.982 -247.257)" fill="#455a64"/>
            <path id="Path_1096" data-name="Path 1096" d="M431.732,283.88a.965.965,0,0,0-.568-.785,3,3,0,0,0-2.705,0,.965.965,0,0,0-.568.785l.568,48.138h0a.686.686,0,0,0,.4.541,2.119,2.119,0,0,0,1.921,0,.667.667,0,0,0,.4-.541h0Z" transform="translate(-395.339 -247.589)" fill="#455a64"/>
            <path id="Path_1097" data-name="Path 1097" d="M460.765,263.672h0c0-5.1-3.337-10.19-10.073-14.077-13.464-7.783-35.315-7.783-48.779,0-6.736,3.887-10.082,9.018-10.073,14.077h0v2.705h0c.081,5.032,3.454,10.046,10.109,13.888,13.473,7.774,35.315,7.774,48.779,0,6.655-3.842,10.028-8.856,10.109-13.888h0Z" transform="translate(-391.799 -243.758)" fill="#88f5b4"/>
            <path id="Path_1098" data-name="Path 1098" d="M460.765,263.672h0c0-5.1-3.337-10.19-10.073-14.077-13.464-7.783-35.315-7.783-48.779,0-6.736,3.887-10.082,9.018-10.073,14.077h0v2.705h0c.081,5.032,3.454,10.046,10.109,13.888,13.473,7.774,35.315,7.774,48.779,0,6.655-3.842,10.028-8.856,10.109-13.888h0Z" transform="translate(-391.799 -243.758)" fill="#fff" opacity="0.4"/>
            <path id="Path_1099" data-name="Path 1099" d="M401.9,249.595c-13.473,7.774-13.473,20.39,0,28.163s35.315,7.783,48.779,0,13.473-20.39,0-28.163S415.337,241.812,401.9,249.595Z" transform="translate(-391.795 -243.758)" fill="#88f5b4"/>
            <path id="Path_1100" data-name="Path 1100" d="M401.9,249.595c-13.473,7.774-13.473,20.39,0,28.163s35.315,7.783,48.779,0,13.473-20.39,0-28.163S415.337,241.812,401.9,249.595Z" transform="translate(-391.795 -243.758)" fill="#fff" opacity="0.6"/>
          </g>
          <g id="freepik--Pot--inject-9" transform="translate(23.241)">
            <g id="Group_21" data-name="Group 21" transform="translate(0.009 23.015)" opacity="0.05">
              <path id="Path_1101" data-name="Path 1101" d="M436.355,258.346c4.293,2.48,4.293,6.5,0,9.018s-11.263,2.48-15.556,0-4.3-6.5,0-9.018S432.054,255.866,436.355,258.346Z" transform="translate(-417.576 -256.472)"/>
            </g>
            <path id="Path_1102" data-name="Path 1102" d="M421.727,262.357c-3.742-3.815-5.943-13.356-2.291-16.377H438c3.607,3.021,1.452,12.553-2.282,16.377l-.108.1a.838.838,0,0,1-.126.126l-.334.307-.09.072-.289.207a3.98,3.98,0,0,1-.478.316,12.336,12.336,0,0,1-11.155,0h0c-.162-.1-.325-.2-.487-.316l-.262-.2-.108-.09a3.364,3.364,0,0,1-.325-.289l-.153-.144Z" transform="translate(-417.566 -232.427)" fill="#ebebeb"/>
            <path id="Path_1103" data-name="Path 1103" d="M436.425,244.42c4.239,2.453,4.239,6.421,0,8.865a16.945,16.945,0,0,1-15.331,0c-4.229-2.444-4.238-6.412,0-8.865A16.917,16.917,0,0,1,436.425,244.42Z" transform="translate(-417.601 -232.093)" fill="#fafafa"/>
            <path id="Path_1104" data-name="Path 1104" d="M433.883,246.428c2.579,1.488,2.579,3.9,0,5.411a10.317,10.317,0,0,1-9.334,0c-2.579-1.488-2.579-3.9,0-5.411a10.317,10.317,0,0,1,9.334,0Z" transform="translate(-418.062 -232.361)" fill="#ebebeb"/>
            <path id="Path_1105" data-name="Path 1105" d="M424.592,249.259a10.317,10.317,0,0,1,9.334,0,4.239,4.239,0,0,1,1.542,1.416,4.1,4.1,0,0,1-1.542,1.416,10.317,10.317,0,0,1-9.334,0,4.1,4.1,0,0,1-1.542-1.416A4.238,4.238,0,0,1,424.592,249.259Z" transform="translate(-418.105 -232.639)" fill="#e0e0e0"/>
            <path id="Path_1106" data-name="Path 1106" d="M432.932,249.031a21.173,21.173,0,0,0,3.382-4.509c1.56-2.759,1.8-6.457,1.037-6.908s-4.085,3.228-4.085,3.228a20.243,20.243,0,0,0,.343-4.707c-.135-2.462-.74-4.689-1.443-5.14s-2.273,2.651-2.949,4.9-1.073,4.085-1.073,4.085a35.459,35.459,0,0,0-1.217-5.167c-.812-2.327-1.56-2.859-2.137-2.624s-.956,1.317-1.118,4.419a31.208,31.208,0,0,0,.135,4.446s-1.154-1.272-2.444-2.507-2.011-1.542-2.417-1.281-.514,2.363,1.677,6.313a21.824,21.824,0,0,0,4.121,5.411S427.764,250.943,432.932,249.031Z" transform="translate(-417.679 -230.951)" fill="#88f5b4"/>
          </g>
        </g>
      </g>
      <g id="freepik--Device--inject-9" transform="translate(52.305 29.332)">
        <g id="freepik--Mobile--inject-9">
          <path id="Path_1107" data-name="Path 1107" d="M171.956,31.59,61.756,95.221a11.11,11.11,0,0,0-5.546,9.2V360.64c0,3.77,2.327,8.17,5.194,9.83s7.846,1.47,11.11-.415l109.822-63.406a13.121,13.121,0,0,0,5.907-10.236V41c0-3.77-2.327-8.116-5.194-9.821S175.212,29.7,171.956,31.59Z" transform="translate(-56.21 -30.025)" fill="#88f5b4"/>
          <path id="Path_1108" data-name="Path 1108" d="M171.956,31.59,61.756,95.221a11.11,11.11,0,0,0-5.546,9.2V360.64c0,3.77,2.327,8.17,5.194,9.83s7.846,1.47,11.11-.415l109.822-63.406a13.121,13.121,0,0,0,5.907-10.236V41c0-3.77-2.327-8.116-5.194-9.821S175.212,29.7,171.956,31.59Z" transform="translate(-56.21 -30.025)" opacity="0.05"/>
          <path id="Path_1109" data-name="Path 1109" d="M71.1,378.28c-3.156,1.226-7.214,1.163-9.685-.262-2.868-1.659-5.194-6.06-5.194-9.83V111.968a10.605,10.605,0,0,1,1.5-5.068l9.532,5.411a11.507,11.507,0,0,0-2.705,6.881V373.022C64.49,377.531,67.357,379.668,71.1,378.28Z" transform="translate(-56.211 -37.574)" fill="#88f5b4"/>
          <path id="Path_1110" data-name="Path 1110" d="M71.1,378.28c-3.156,1.226-7.214,1.163-9.685-.262-2.868-1.659-5.194-6.06-5.194-9.83V111.968a10.605,10.605,0,0,1,1.5-5.068l9.532,5.411a11.507,11.507,0,0,0-2.705,6.881V373.022C64.49,377.531,67.357,379.668,71.1,378.28Z" transform="translate(-56.211 -37.574)" opacity="0.3"/>
          <path id="Path_1111" data-name="Path 1111" d="M70.6,103.361a11.552,11.552,0,0,0-5.212,9.018V366.209c0,5.086,3.607,7.214,8.017,4.626l109.84-63.415a13.121,13.121,0,0,0,5.907-10.235V41.732c0-3.752-2.66-5.285-5.907-3.409Z" transform="translate(-57.111 -30.761)" fill="#88f5b4"/>
          <path id="Path_1112" data-name="Path 1112" d="M70.6,103.361a11.552,11.552,0,0,0-5.212,9.018V366.209c0,5.086,3.607,7.214,8.017,4.626l109.84-63.415a13.121,13.121,0,0,0,5.907-10.235V41.732c0-3.752-2.66-5.285-5.907-3.409Z" transform="translate(-57.111 -30.761)" opacity="0.15"/>
          <path id="Path_1113" data-name="Path 1113" d="M75.048,120.853a12.418,12.418,0,0,0-5.618,9.73V358.4c0,3.607,2.516,5.032,5.618,3.237L178.81,301.7a12.463,12.463,0,0,0,5.609-9.73V64.184c0-3.607-2.525-5.023-5.618-3.237Z" transform="translate(-57.508 -32.986)" fill="#263238"/>
          <path id="Path_1114" data-name="Path 1114" d="M175.834,286.036V62.93L75.048,121.123a12.427,12.427,0,0,0-5.618,9.73V353.96l100.786-58.2a12.436,12.436,0,0,0,5.618-9.721Z" transform="translate(-57.508 -33.256)" fill="#37474f"/>
          <path id="Path_1115" data-name="Path 1115" d="M123.514,87.077l17.134-9.866c1.019-.586,1.849-.171,1.849.9a3.95,3.95,0,0,1-1.849,3.066L123.514,91.1c-1.019.586-1.8.171-1.8-.9a3.968,3.968,0,0,1,1.8-3.12Z" transform="translate(-62.642 -34.633)" fill="#263238"/>
          <path id="Path_1116" data-name="Path 1116" d="M156.041,69.354c.956-.559,1.731-.108,1.731,1a3.824,3.824,0,0,1-1.731,2.994c-.956.55-1.731.108-1.731-1A3.824,3.824,0,0,1,156.041,69.354Z" transform="translate(-65.843 -33.864)" fill="#263238"/>
          <path id="Path_1117" data-name="Path 1117" d="M163.731,64.914c.956-.55,1.731-.1,1.731,1a3.824,3.824,0,0,1-1.731,3c-.956.55-1.731.108-1.731-1A3.851,3.851,0,0,1,163.731,64.914Z" transform="translate(-66.598 -33.428)" fill="#263238"/>
          <path id="Path_1118" data-name="Path 1118" d="M102.261,100.4c.956-.55,1.731-.108,1.731,1a3.851,3.851,0,0,1-1.731,3c-.956.55-1.731.1-1.731-1A3.824,3.824,0,0,1,102.261,100.4Z" transform="translate(-60.562 -36.913)" fill="#263238"/>
          <path id="Path_1119" data-name="Path 1119" d="M109.951,95.974c.956-.559,1.731-.108,1.731,1a3.824,3.824,0,0,1-1.731,2.994c-.956.559-1.731.108-1.731-1a3.824,3.824,0,0,1,1.731-2.994Z" transform="translate(-61.317 -36.478)" fill="#263238"/>
        </g>
      </g>
      <g id="freepik--Icons--inject-9" transform="translate(207.649 169.098)">
        <g id="freepik--Mail--inject-9" transform="translate(81.334)">
          <g id="freepik--Box--inject-9">
            <path id="Path_1120" data-name="Path 1120" d="M352.225,189.745a4.311,4.311,0,0,0-1.948-3.364l-1.578-.9a4.32,4.32,0,0,0-3.878,0L320.6,199.494a4.266,4.266,0,0,0-1.939,3.355v26.657a4.293,4.293,0,0,0,1.939,3.364l1.578.9a4.32,4.32,0,0,0,3.878,0l24.222-14.014a4.274,4.274,0,0,0,1.948-3.364Z" transform="translate(-318.66 -185.011)" fill="#88f5b4"/>
            <path id="Path_1121" data-name="Path 1121" d="M318.66,231.229a4.293,4.293,0,0,0,1.939,3.364l1.578.9a4.329,4.329,0,0,0,3.544.153c-.9.343-1.605-.171-1.605-1.272V207.728a3.933,3.933,0,0,1,.568-1.912l-5.411-3.156a4,4,0,0,0-.568,1.912Z" transform="translate(-318.66 -186.743)" opacity="0.2"/>
            <path id="Path_1122" data-name="Path 1122" d="M352.215,189.194c-.225-.83-.974-1.091-1.867-.568L326.117,202.64a3.833,3.833,0,0,0-1.362,1.443l-5.465-3.147a3.95,3.95,0,0,1,1.371-1.452l24.222-14.014a4.32,4.32,0,0,1,3.878,0l1.587.9A4.256,4.256,0,0,1,352.215,189.194Z" transform="translate(-318.722 -185.01)" fill="#fff" opacity="0.3"/>
          </g>
          <path id="freepik--mail--inject-9-2" data-name="freepik--mail--inject-9" d="M347.432,200.333a.523.523,0,0,0-.514,0l-15.836,9.144a.5.5,0,0,0-.253.442v15.024a.523.523,0,0,0,.253.442.494.494,0,0,0,.514,0l15.836-9.126a.523.523,0,0,0,.252-.442V200.775a.523.523,0,0,0-.252-.442ZM339.1,213.706l-6.727-3.761,13.392-7.728Zm-2.327-.144-4.888,9.307V210.794Zm.9.505,1.371.785a.523.523,0,0,0,.253.063.5.5,0,0,0,.442-.253l1.551-2.66,5,3.742-13.626,7.864Zm4.13-2.958,4.9-8.432v12.1Z" transform="translate(-319.855 -186.508)" fill="#fafafa"/>
        </g>
        <g id="freepik--Chat--inject-9" transform="translate(40.707 23.431)">
          <g id="freepik--box--inject-9-2" data-name="freepik--box--inject-9">
            <path id="Path_1123" data-name="Path 1123" d="M307.166,215.726a4.266,4.266,0,0,0-1.939-3.355l-1.578-.9a4.257,4.257,0,0,0-3.878,0l-24.222,13.96a4.293,4.293,0,0,0-1.939,3.364v26.648a4.284,4.284,0,0,0,1.939,3.364l1.578.9a4.256,4.256,0,0,0,3.878,0l24.222-14.014a4.265,4.265,0,0,0,1.939-3.355Z" transform="translate(-273.61 -210.994)" fill="#88f5b4"/>
            <path id="Path_1124" data-name="Path 1124" d="M273.61,257.21a4.284,4.284,0,0,0,1.939,3.364l1.578.9a4.293,4.293,0,0,0,3.544.153c-.9.352-1.605-.162-1.605-1.272V233.709a3.994,3.994,0,0,1,.568-1.912l-5.456-3.147a3.932,3.932,0,0,0-.568,1.912Z" transform="translate(-273.61 -212.727)" opacity="0.2"/>
            <path id="Path_1125" data-name="Path 1125" d="M307.165,215.175c-.225-.821-.974-1.082-1.867-.568l-24.231,14.014a3.878,3.878,0,0,0-1.371,1.452l-5.456-3.156a3.923,3.923,0,0,1,1.371-1.443l24.213-14.014a4.284,4.284,0,0,1,3.887,0l1.587.9a4.284,4.284,0,0,1,1.867,2.814Z" transform="translate(-273.672 -210.993)" fill="#fff" opacity="0.3"/>
          </g>
          <path id="freepik--chat--inject-9-2" data-name="freepik--chat--inject-9" d="M302.314,231.713l-7.665,4.428a4.4,4.4,0,0,0-1.668,3.526v5.546c0,1.416.748,2.137,1.668,1.605l4.067-2.354,2.832,2.976a.243.243,0,0,0,.316,0,.712.712,0,0,0,.207-.2,1.29,1.29,0,0,0,.225-.857l-.568-3.688.586-.334a4.4,4.4,0,0,0,1.668-3.526v-5.546C303.982,231.9,303.234,231.181,302.314,231.713Zm.8,7.927a2.1,2.1,0,0,1-.8,1.686l-1.118.649a.9.9,0,0,0-.343.442,1.244,1.244,0,0,0-.081.613l.343,2.011-1.9-1.713a.234.234,0,0,0-.316,0l-4.247,2.453c-.442.262-.8-.09-.8-.767v-5.826a2.1,2.1,0,0,1,.8-1.686l7.665-4.428c.442-.252.8.09.8.767Zm-11.1,1.7-.144.081a.775.775,0,0,0-.253.28l-3.706,6.313.216-3.607a.758.758,0,0,0-.063-.55.243.243,0,0,0-.352-.072l-1.046.613c-.55.316-.992-.117-.992-.947v-8.369a2.6,2.6,0,0,1,.992-2.083l12.283-7.088c.541-.316.983.108.983.9v4.59c0,.37.2.55.433.415a1.136,1.136,0,0,0,.442-.9v-4.527c0-1.569-.839-2.372-1.858-1.8l-12.283,7.1a4.9,4.9,0,0,0-1.858,3.923v8.36c0,1.578.83,2.381,1.858,1.8l.46-.271-.072,4.157c-.054.307,0,.568.162.649a.262.262,0,0,0,.253,0,.739.739,0,0,0,.253-.271l4.293-7.332h0a1.127,1.127,0,0,0,.433-.9c0-.415-.189-.622-.433-.46Z" transform="translate(-274.71 -212.309)" fill="#fafafa"/>
        </g>
        <g id="freepik--Phone--inject-9" transform="translate(0 46.921)">
          <g id="freepik--box--inject-9-3" data-name="freepik--box--inject-9">
            <path id="Path_1126" data-name="Path 1126" d="M262.035,241.775a4.293,4.293,0,0,0-1.948-3.364l-1.578-.9a4.257,4.257,0,0,0-3.878,0l-24.222,14.005a4.293,4.293,0,0,0-1.939,3.364v26.657a4.265,4.265,0,0,0,1.939,3.355l1.578.9a4.257,4.257,0,0,0,3.878,0l24.222-14.005a4.311,4.311,0,0,0,1.948-3.364Z" transform="translate(-228.47 -237.041)" fill="#88f5b4"/>
            <path id="Path_1127" data-name="Path 1127" d="M228.47,283.259a4.266,4.266,0,0,0,1.939,3.355l1.578.9a4.329,4.329,0,0,0,3.544.162c-.9.343-1.605-.171-1.605-1.281V259.758a3.932,3.932,0,0,1,.568-1.912l-5.456-3.156a3.932,3.932,0,0,0-.568,1.912Z" transform="translate(-228.47 -238.774)" opacity="0.2"/>
            <path id="Path_1128" data-name="Path 1128" d="M262.025,241.215c-.225-.821-.974-1.082-1.867-.568l-24.231,14.014a3.788,3.788,0,0,0-1.362,1.452l-5.465-3.156a4,4,0,0,1,1.371-1.443L254.693,237.5a4.32,4.32,0,0,1,3.878,0l1.587.9A4.284,4.284,0,0,1,262.025,241.215Z" transform="translate(-228.532 -237.04)" fill="#fff" opacity="0.3"/>
          </g>
          <g id="freepik--phone--inject-9-2" data-name="freepik--phone--inject-9" transform="translate(11.437 17.098)">
            <path id="Path_1129" data-name="Path 1129" d="M252.811,274.866h-.135c-5.411-.46-9.162-4.121-11.273-10.867a7.765,7.765,0,0,1,1.912-7.332,1.8,1.8,0,0,1,1.308-.667h0c1.181,0,3.165,3.3,3.21,4.608a4.626,4.626,0,0,1-.857,2.6,3.021,3.021,0,0,0-.4,2.769c.64,1.858,1.7,2.841,3.219,3.03.4.045.749-.334,1.028-1.136.469-1.362,1.046-2.164,1.8-2.453a1.8,1.8,0,0,1,1.533.117l.243.117a12.311,12.311,0,0,1,1.254.685h0l.216.135c.758.46,1.416,1.019,1.046,2.85s-1.8,4.644-3.138,5.411a.442.442,0,0,1-.171.063h-.126a2.949,2.949,0,0,1-.676.072Zm-8.188-17.883c-.108,0-.307.135-.532.379a6.727,6.727,0,0,0-1.686,6.313c2,6.394,5.411,9.712,10.389,10.136a1.325,1.325,0,0,0,.451-.063h.09c.956-.6,2.209-2.877,2.579-4.671.253-1.272-.072-1.47-.577-1.8l-.253-.153h0a10.5,10.5,0,0,0-1.136-.622l-.253-.126a.758.758,0,0,0-.685-.081c-.289.117-.73.532-1.181,1.8-.568,1.65-1.47,1.9-2.11,1.8-1.93-.234-3.3-1.488-4.067-3.715a4,4,0,0,1,.487-3.607,3.608,3.608,0,0,0,.712-2.02A7.845,7.845,0,0,0,244.622,256.983Z" transform="translate(-241.152 -256)" fill="#fafafa"/>
          </g>
        </g>
      </g>
      <g id="freepik--Window--inject-9" transform="translate(207.298 22.962)">
        <g id="freepik--window--inject-9-2" data-name="freepik--window--inject-9">
          <path id="Path_1130" data-name="Path 1130" d="M334.8,23.537,230.425,83.715a5.185,5.185,0,0,0-2.345,4.067V208.47a5.176,5.176,0,0,0,2.354,4.058l1.47.839a5.222,5.222,0,0,0,4.7,0L340.977,153.09a5.194,5.194,0,0,0,2.354-4.067V28.407a5.149,5.149,0,0,0-2.363-4.058l-1.461-.839a5.212,5.212,0,0,0-4.707.027Z" transform="translate(-228.08 -22.962)" fill="#e0e0e0"/>
          <path id="Path_1131" data-name="Path 1131" d="M344,149.64c0,2.065-1.452,3.382-3.255,4.419l-102.571,59.23c-1.8,1.028-3.247.2-3.247-1.876V92.8h0a6.457,6.457,0,0,1,3.228-5.6l102.589-59.23A2.173,2.173,0,0,1,344,29.844h0Z" transform="translate(-228.753 -23.425)" fill="#fafafa"/>
          <path id="Path_1132" data-name="Path 1132" d="M341.83,28.551h0a1.263,1.263,0,0,1,1.263,1.263V149.636c0,1.407-.857,2.525-2.8,3.607L237.7,212.5a2.155,2.155,0,0,1-1,.325c-.776,0-.9-.9-.9-1.416V92.8a5.573,5.573,0,0,1,2.8-4.816L341.2,28.722a1.235,1.235,0,0,1,.631-.171m0-.9a2.111,2.111,0,0,0-1.082.3L238.158,87.2a6.457,6.457,0,0,0-3.228,5.6V211.409c0,1.47.73,2.318,1.8,2.318a2.967,2.967,0,0,0,1.452-.442l102.571-59.23c1.8-1.037,3.256-2.354,3.256-4.419V29.813a2.182,2.182,0,0,0-2.173-2.173Z" transform="translate(-228.753 -23.421)" fill="#e0e0e0"/>
          <path id="Path_1133" data-name="Path 1133" d="M343.41,28.408v.9a2.173,2.173,0,0,0-3.256-1.8L237.565,86.737A6.385,6.385,0,0,0,235.2,89.1v.072L228.89,85.51a4.86,4.86,0,0,1,1.7-1.8L334.879,23.538a5.167,5.167,0,0,1,4.7,0l1.47.839a5.167,5.167,0,0,1,2.363,4.031Z" transform="translate(-228.16 -22.963)" fill="#f0f0f0"/>
          <path id="Path_1134" data-name="Path 1134" d="M249.116,123.319h-.144l-.072-.072-1.551-2.705v3.517a.487.487,0,0,1-.045.189.216.216,0,0,1-.108.126l-.442.262h-.108a.189.189,0,0,1-.045-.135v-5.51a.488.488,0,0,1,.045-.189.216.216,0,0,1,.108-.126l.388-.225h.144l.072.081,1.551,2.651v-3.517a.487.487,0,0,1,.045-.189.253.253,0,0,1,.108-.126l.442-.262a.09.09,0,0,1,.108,0,.189.189,0,0,1,.045.135v5.519a.486.486,0,0,1-.045.189.3.3,0,0,1-.108.126Z" transform="translate(-229.899 -32.203)" fill="#455a64"/>
          <path id="Path_1135" data-name="Path 1135" d="M250.869,119.167a2.6,2.6,0,0,1,.108-.442,2.553,2.553,0,0,1,.225-.514,2.706,2.706,0,0,1,.361-.505,1.957,1.957,0,0,1,.5-.406,1.2,1.2,0,0,1,.505-.171.5.5,0,0,1,.4.108.839.839,0,0,1,.253.415,2.608,2.608,0,0,1,.09.721v2.507a.488.488,0,0,1-.045.189c0,.063-.063.108-.108.126l-.424.243a.072.072,0,0,1-.1,0,.153.153,0,0,1-.045-.135v-.28a2.453,2.453,0,0,1-.343.613,1.614,1.614,0,0,1-.55.5,1.092,1.092,0,0,1-.433.153.433.433,0,0,1-.316-.1.784.784,0,0,1-.2-.307,1.578,1.578,0,0,1-.063-.5,2.182,2.182,0,0,1,.271-1.073,3.039,3.039,0,0,1,.721-.9l.9-.758c0-.234-.054-.37-.153-.415a.46.46,0,0,0-.37.072.9.9,0,0,0-.216.18,2.064,2.064,0,0,0-.153.252.5.5,0,0,1-.09.144.253.253,0,0,1-.09.081l-.514.3h-.1C250.86,119.267,250.869,119.231,250.869,119.167Zm.9,1.876a1.408,1.408,0,0,0,.334-.28,1.722,1.722,0,0,0,.253-.361,2.254,2.254,0,0,0,.144-.388,1.479,1.479,0,0,0,.054-.379v-.09l-.758.64a1.307,1.307,0,0,0-.325.37.64.64,0,0,0-.1.361c0,.126,0,.189.117.2a.451.451,0,0,0,.307-.072Z" transform="translate(-230.299 -32.208)" fill="#455a64"/>
          <path id="Path_1136" data-name="Path 1136" d="M255.124,115.933a2.227,2.227,0,0,1,.325-.559,1.227,1.227,0,0,1,.4-.361.74.74,0,0,1,.568-.135.676.676,0,0,1,.352.325,3.225,3.225,0,0,1,.171-.406,2.708,2.708,0,0,1,.225-.361,2,2,0,0,1,.253-.289,2.224,2.224,0,0,1,.234-.162.776.776,0,0,1,.532-.135.523.523,0,0,1,.343.234,1.469,1.469,0,0,1,.18.532,4.51,4.51,0,0,1,.054.73v2.245a.488.488,0,0,1-.045.189.38.38,0,0,1-.108.126l-.424.243a.072.072,0,0,1-.1,0,.153.153,0,0,1-.045-.135v-2.227a1.217,1.217,0,0,0-.144-.73c-.1-.1-.234-.09-.406,0a.9.9,0,0,0-.379.442,2.029,2.029,0,0,0-.171.9v2.291a.486.486,0,0,1-.045.189.216.216,0,0,1-.108.126l-.415.243h-.108a.225.225,0,0,1-.045-.144v-2.255a1.137,1.137,0,0,0-.144-.721q-.153-.144-.406,0a1.055,1.055,0,0,0-.388.46,2.065,2.065,0,0,0-.162.9v2.255a.415.415,0,0,1-.144.316l-.424.243a.1.1,0,0,1-.108,0,.189.189,0,0,1,0-.135v-3.977a.488.488,0,0,1,0-.189.316.316,0,0,1,.108-.126l.424-.252a.081.081,0,0,1,.1,0,.18.18,0,0,1,0,.135Z" transform="translate(-230.667 -31.886)" fill="#455a64"/>
          <path id="Path_1137" data-name="Path 1137" d="M259.89,115.086a4.916,4.916,0,0,1,.1-.956,4.672,4.672,0,0,1,.271-.9,3.256,3.256,0,0,1,.433-.73,1.8,1.8,0,0,1,.559-.505.9.9,0,0,1,.568-.153.64.64,0,0,1,.424.225,1.407,1.407,0,0,1,.28.532,2.858,2.858,0,0,1,.09.776v.415a.37.37,0,0,1-.045.189.334.334,0,0,1-.1.135l-1.858,1.064a.768.768,0,0,0,.054.316.343.343,0,0,0,.144.171.307.307,0,0,0,.207,0,.694.694,0,0,0,.234-.09,1.046,1.046,0,0,0,.289-.216,1.182,1.182,0,0,0,.18-.252l.1-.144a.36.36,0,0,1,.108-.09l.442-.253h.108a.318.318,0,0,1,.045.144,1.244,1.244,0,0,1-.09.352,2.7,2.7,0,0,1-.235.505,4.129,4.129,0,0,1-.4.541,2.634,2.634,0,0,1-.55.442.956.956,0,0,1-.559.153.577.577,0,0,1-.433-.225,1.389,1.389,0,0,1-.271-.568A3.605,3.605,0,0,1,259.89,115.086Zm1.362-2.065a.974.974,0,0,0-.271.234,1.039,1.039,0,0,0-.189.3,1.606,1.606,0,0,0-.126.325,2.107,2.107,0,0,0-.054.3l1.254-.721a1.139,1.139,0,0,0,0-.243.415.415,0,0,0-.1-.2.234.234,0,0,0-.189-.081.55.55,0,0,0-.325.09Z" transform="translate(-231.204 -31.689)" fill="#455a64"/>
          <path id="Path_1138" data-name="Path 1138" d="M268.637,90.72a1.939,1.939,0,0,0-.505.424,2.571,2.571,0,0,0-.334.541,3.7,3.7,0,0,0-.189.613c0,.216-.072.433-.09.658a4.708,4.708,0,0,0,0,.505v1.786a3.046,3.046,0,0,0,.09.55,1.019,1.019,0,0,0,.189.4.469.469,0,0,0,.343.153.9.9,0,0,0,.5-.162,1.966,1.966,0,0,0,.442-.334,2,2,0,0,0,.352-.46,2.814,2.814,0,0,0,.243-.6,3.227,3.227,0,0,0,.081-.748l-.74.433a.135.135,0,0,1-.171,0,.325.325,0,0,1-.072-.225V92.8a.794.794,0,0,1,.072-.307.5.5,0,0,1,.171-.207l2.146-1.235a.135.135,0,0,1,.171,0,.324.324,0,0,1,.063.225v1.74a6.564,6.564,0,0,1-.207,1.7,7.322,7.322,0,0,1-.586,1.524,6.013,6.013,0,0,1-.9,1.244,4.391,4.391,0,0,1-1.091.9,2.327,2.327,0,0,1-1.136.361,1.254,1.254,0,0,1-.857-.307,1.884,1.884,0,0,1-.541-.9,4.987,4.987,0,0,1-.225-1.3V93.8a7.919,7.919,0,0,1,.216-1.551,7.821,7.821,0,0,1,.55-1.5,5.943,5.943,0,0,1,.857-1.29,4.393,4.393,0,0,1,1.136-.956,2.372,2.372,0,0,1,1.118-.361,1.434,1.434,0,0,1,.848.216,1.686,1.686,0,0,1,.541.631,2.308,2.308,0,0,1,.216.9.6.6,0,0,1-.054.243.469.469,0,0,1-.144.171l-1.181.676c-.09.054-.162.054-.207,0l-.144-.162a.74.74,0,0,0-.343-.253A.965.965,0,0,0,268.637,90.72Z" transform="translate(-231.789 -29.363)" fill="#88f5b4"/>
          <path id="Path_1139" data-name="Path 1139" d="M274.356,92.5a1.082,1.082,0,0,0,.081.478.379.379,0,0,0,.189.216.4.4,0,0,0,.253,0,1.083,1.083,0,0,0,.28-.117,1.8,1.8,0,0,0,.424-.325,1.66,1.66,0,0,0,.262-.379l.135-.243a.568.568,0,0,1,.153-.117l1.154-.667c.126-.072.2,0,.2.189a2.283,2.283,0,0,1-.135.577,5.561,5.561,0,0,1-.415.9,6.72,6.72,0,0,1-.721,1.028,4.105,4.105,0,0,1-1.055.9,2.1,2.1,0,0,1-1.028.334.983.983,0,0,1-.748-.289,1.948,1.948,0,0,1-.469-.9,6.1,6.1,0,0,1-.153-1.461,8.117,8.117,0,0,1,.153-1.551,6.764,6.764,0,0,1,.469-1.443,5.078,5.078,0,0,1,.748-1.2,3.787,3.787,0,0,1,1.028-.9,1.75,1.75,0,0,1,1.1-.307,1.172,1.172,0,0,1,.748.442,2.282,2.282,0,0,1,.415.956,5.489,5.489,0,0,1,.126,1.244v.379a.7.7,0,0,1-.063.388.514.514,0,0,1-.171.207Zm.8-3.084a1.326,1.326,0,0,0-.568.676,2.7,2.7,0,0,0-.234.9l1.6-.9a1.082,1.082,0,0,0-.225-.631C275.592,89.276,275.4,89.276,275.159,89.411Z" transform="translate(-232.467 -29.272)" fill="#88f5b4"/>
          <path id="Path_1140" data-name="Path 1140" d="M281.009,88.437a.812.812,0,0,0,.09.433c.063.081.153.081.3,0l.7-.406a.126.126,0,0,1,.171,0,.3.3,0,0,1,.072.216v1.4a.722.722,0,0,1-.072.3.406.406,0,0,1-.171.207l-.839.487a1.56,1.56,0,0,1-.758.253.821.821,0,0,1-.586-.189,1.371,1.371,0,0,1-.37-.64,3.426,3.426,0,0,1-.135-1.046v-2.3l-.658.379a.126.126,0,0,1-.162,0,.262.262,0,0,1-.072-.216v-1.4a.6.6,0,0,1,.072-.3.442.442,0,0,1,.162-.207l.658-.379V82.8a.722.722,0,0,1,.072-.3.406.406,0,0,1,.171-.207l1.118-.649a.117.117,0,0,1,.162,0,.28.28,0,0,1,.072.216V84.09l1-.586a.135.135,0,0,1,.171,0,.3.3,0,0,1,.072.216V85.1a.722.722,0,0,1-.072.3.406.406,0,0,1-.171.207l-1,.577Z" transform="translate(-233.033 -28.721)" fill="#88f5b4"/>
          <path id="Path_1141" data-name="Path 1141" d="M287.276,79.4a.794.794,0,0,1-.072.307.442.442,0,0,1-.171.207l-1.118.64a.126.126,0,0,1-.162,0,.3.3,0,0,1-.072-.216V78.944a.757.757,0,0,1,.072-.307.487.487,0,0,1,.162-.207l1.118-.64h.171a.3.3,0,0,1,.072.216Zm0,7.855a.722.722,0,0,1-.072.3.37.37,0,0,1-.171.207l-1.118.649a.126.126,0,0,1-.162,0,.307.307,0,0,1-.072-.225V81.866a.757.757,0,0,1,.072-.307.487.487,0,0,1,.162-.207l1.118-.64h.171a.3.3,0,0,1,.072.216Z" transform="translate(-233.736 -28.346)" fill="#88f5b4"/>
          <path id="Path_1142" data-name="Path 1142" d="M293.324,83.942a.722.722,0,0,1-.072.3.514.514,0,0,1-.171.207l-1.118.64a.135.135,0,0,1-.171,0,.3.3,0,0,1-.072-.216V81.408a1.407,1.407,0,0,0-.18-.839c-.126-.162-.325-.171-.586,0a1.353,1.353,0,0,0-.586.694,2.886,2.886,0,0,0-.18,1.046v3.436a.6.6,0,0,1-.072.3.442.442,0,0,1-.162.207l-1.118.649h-.171a.334.334,0,0,1-.072-.225V80.3a.723.723,0,0,1,.072-.3.406.406,0,0,1,.171-.207l1.073-.613a.126.126,0,0,1,.171,0,.3.3,0,0,1,.063.216v.316c.054-.117.108-.253.18-.388a2.274,2.274,0,0,1,.262-.415,3.477,3.477,0,0,1,.343-.4,2.326,2.326,0,0,1,.469-.343,1.858,1.858,0,0,1,.785-.271.821.821,0,0,1,.6.216,1.623,1.623,0,0,1,.4.748,5.139,5.139,0,0,1,.144,1.308Z" transform="translate(-234.022 -28.357)" fill="#88f5b4"/>
          <path id="Path_1143" data-name="Path 1143" d="M298.908,78.107a.74.74,0,0,0,.09.433c.054.081.153.081.289,0l.712-.415a.126.126,0,0,1,.162,0,.262.262,0,0,1,.072.216v1.38a.6.6,0,0,1-.072.3.442.442,0,0,1-.162.207l-.848.487a1.668,1.668,0,0,1-.757.253.766.766,0,0,1-.577-.2,1.3,1.3,0,0,1-.379-.631,3.49,3.49,0,0,1-.126-1.046V76.809l-.658.379a.126.126,0,0,1-.171,0,.3.3,0,0,1-.072-.216V75.582a.72.72,0,0,1,.072-.3.451.451,0,0,1,.171-.207l.658-.379V72.471a.7.7,0,0,1,.063-.3.46.46,0,0,1,.171-.207l1.118-.649a.135.135,0,0,1,.171,0,.307.307,0,0,1,.072.225v2.191l1-.577a.135.135,0,0,1,.171,0,.3.3,0,0,1,.063.216v1.38a.7.7,0,0,1-.063.3.515.515,0,0,1-.171.207l-1,.577Z" transform="translate(-234.79 -27.707)" fill="#88f5b4"/>
          <path id="Path_1144" data-name="Path 1144" d="M306.095,72.882v1.046a5.743,5.743,0,0,1-.189,1.344,6.311,6.311,0,0,1-.487,1.29,5.564,5.564,0,0,1-.749,1.109,3.959,3.959,0,0,1-.983.812,2.011,2.011,0,0,1-.983.316,1.091,1.091,0,0,1-.749-.243,1.6,1.6,0,0,1-.487-.721,3.609,3.609,0,0,1-.2-1.118V75.669a5.882,5.882,0,0,1,.189-1.344,6.259,6.259,0,0,1,.487-1.281,5.8,5.8,0,0,1,.758-1.118,3.814,3.814,0,0,1,.983-.821,2.011,2.011,0,0,1,.983-.316,1.137,1.137,0,0,1,.749.253,1.47,1.47,0,0,1,.487.721A3.409,3.409,0,0,1,306.095,72.882Zm-3.265,2.85a.9.9,0,0,0,.243.667.505.505,0,0,0,.577,0,1.47,1.47,0,0,0,.568-.622,2.336,2.336,0,0,0,.243-.956,3.927,3.927,0,0,0,0-.478,3.41,3.41,0,0,0,0-.451.9.9,0,0,0-.243-.667.514.514,0,0,0-.568,0,1.488,1.488,0,0,0-.577.622,2.3,2.3,0,0,0-.243.956c0,.135,0,.3,0,.469Z" transform="translate(-235.267 -27.659)" fill="#88f5b4"/>
          <path id="Path_1145" data-name="Path 1145" d="M307.5,69.329a.721.721,0,0,1,.072-.3.4.4,0,0,1,.162-.207l1.127-.649a.126.126,0,0,1,.162,0,.325.325,0,0,1,.072.225v3.454a1.587,1.587,0,0,0,.171.848c.108.171.3.18.559,0a1.218,1.218,0,0,0,.55-.676,3.021,3.021,0,0,0,.162-1.037V67.571a.72.72,0,0,1,.072-.3.46.46,0,0,1,.171-.207l1.118-.649a.135.135,0,0,1,.171,0,.333.333,0,0,1,.063.225v6.367a.7.7,0,0,1-.063.3.514.514,0,0,1-.171.207l-1.028.6a.135.135,0,0,1-.171,0,.3.3,0,0,1-.072-.216v-.316a2.931,2.931,0,0,1-.171.4,2.492,2.492,0,0,1-.253.406,3.47,3.47,0,0,1-.352.4,2.325,2.325,0,0,1-.469.343c-.577.334-1.037.343-1.371,0a2.877,2.877,0,0,1-.514-2.074Z" transform="translate(-235.876 -27.226)" fill="#88f5b4"/>
          <path id="Path_1146" data-name="Path 1146" d="M315.178,67.673v.965a.9.9,0,0,0,.243.649c.135.117.325.108.559,0a1.39,1.39,0,0,0,.451-.388,1.8,1.8,0,0,0,.252-.505,1.633,1.633,0,0,1,.108-.253.361.361,0,0,1,.153-.171l1.163-.676a.153.153,0,0,1,.171,0,.28.28,0,0,1,.063.225,3.888,3.888,0,0,1-.117.712,4.582,4.582,0,0,1-.37,1.046,5.482,5.482,0,0,1-.721,1.145,3.968,3.968,0,0,1-1.154.974,2.155,2.155,0,0,1-.9.316,1.145,1.145,0,0,1-.758-.2,1.47,1.47,0,0,1-.514-.685,3.4,3.4,0,0,1-.207-1.19V68.548a5.79,5.79,0,0,1,.207-1.425,6.2,6.2,0,0,1,.514-1.29,5.408,5.408,0,0,1,.758-1.064,3.95,3.95,0,0,1,.9-.748,2.083,2.083,0,0,1,1.154-.361,1.208,1.208,0,0,1,.721.307,1.361,1.361,0,0,1,.37.631,2.164,2.164,0,0,1,.117.577.577.577,0,0,1-.063.289.487.487,0,0,1-.171.216l-1.163.667a.135.135,0,0,1-.153,0,.551.551,0,0,1-.108-.135.4.4,0,0,0-.252-.216.667.667,0,0,0-.451.135,1.4,1.4,0,0,0-.559.622,2.327,2.327,0,0,0-.243.92Z" transform="translate(-236.478 -26.958)" fill="#88f5b4"/>
          <path id="Path_1147" data-name="Path 1147" d="M324.485,65.822a.6.6,0,0,1-.072.3.442.442,0,0,1-.162.207l-1.118.649h-.171a.3.3,0,0,1-.072-.216V63.288a1.524,1.524,0,0,0-.18-.839c-.126-.162-.325-.162-.586,0a1.3,1.3,0,0,0-.586.685,2.921,2.921,0,0,0-.18,1.046v3.454a.73.73,0,0,1-.072.307.406.406,0,0,1-.171.207l-1.118.64a.117.117,0,0,1-.162,0,.262.262,0,0,1-.072-.216V59.591a.6.6,0,0,1,.072-.3.442.442,0,0,1,.162-.207l1.118-.649a.135.135,0,0,1,.171,0,.3.3,0,0,1,.072.216v2.913a3.789,3.789,0,0,1,.424-.821,2.444,2.444,0,0,1,.74-.694,1.722,1.722,0,0,1,.776-.262.767.767,0,0,1,.613.216,1.578,1.578,0,0,1,.388.739,4.763,4.763,0,0,1,.144,1.308Z" transform="translate(-237.082 -26.443)" fill="#88f5b4"/>
          <path id="Path_1148" data-name="Path 1148" d="M246.07,124.631,336.232,72.57v8.008L246.07,132.639Z" transform="translate(-229.847 -27.833)" fill="#e0e0e0"/>
          <path id="Path_1149" data-name="Path 1149" d="M249.188,148.845a.081.081,0,0,1,.1,0,.153.153,0,0,1,0,.135v.6a.369.369,0,0,1,0,.189.333.333,0,0,1-.1.135l-2.435,1.4h-.108a.225.225,0,0,1-.045-.144v-5.51a.487.487,0,0,1,.045-.189.216.216,0,0,1,.108-.126l2.39-1.38a.063.063,0,0,1,.1,0,.153.153,0,0,1,.045.135v.6a.369.369,0,0,1-.045.189.243.243,0,0,1-.1.126l-1.8,1.037V147.4l1.668-.965a.09.09,0,0,1,.108,0,.19.19,0,0,1,0,.135v.613a.441.441,0,0,1,0,.18.279.279,0,0,1-.108.135l-1.659,1v1.416Z" transform="translate(-229.899 -34.841)" fill="#455a64"/>
          <path id="Path_1150" data-name="Path 1150" d="M251.094,144.923a2.462,2.462,0,0,1,.325-.568,1.433,1.433,0,0,1,.388-.361.784.784,0,0,1,.577-.126.577.577,0,0,1,.343.325,3.1,3.1,0,0,1,.406-.767,2.706,2.706,0,0,1,.243-.289,1.416,1.416,0,0,1,.3-.153.82.82,0,0,1,.523-.144.5.5,0,0,1,.343.243,1.271,1.271,0,0,1,.18.523,4.664,4.664,0,0,1,.054.739v2.245a.28.28,0,0,1-.1.316l-.424.243a.09.09,0,0,1-.108,0,.189.189,0,0,1,0-.135v-2.227a1.154,1.154,0,0,0-.144-.73q-.135-.144-.406,0a1.1,1.1,0,0,0-.379.442,2.1,2.1,0,0,0-.162.9v2.3a.486.486,0,0,1,0,.189.307.307,0,0,1-.108.126l-.424.243a.072.072,0,0,1-.1,0,.153.153,0,0,1,0-.135V145.87a1.217,1.217,0,0,0-.144-.73q-.149-.135-.406,0a1.055,1.055,0,0,0-.388.46,2.02,2.02,0,0,0-.162.9v2.255a.487.487,0,0,1,0,.189.279.279,0,0,1-.108.135l-.415.243a.09.09,0,0,1-.108,0,.189.189,0,0,1,0-.135V145.2a.442.442,0,0,1,0-.18.28.28,0,0,1,.108-.135l.415-.243a.09.09,0,0,1,.108,0,.189.189,0,0,1,0,.135Z" transform="translate(-230.299 -34.733)" fill="#455a64"/>
          <path id="Path_1151" data-name="Path 1151" d="M255.978,142.867a2.493,2.493,0,0,1,.1-.442,2.927,2.927,0,0,1,.234-.523,2.316,2.316,0,0,1,.361-.5,1.8,1.8,0,0,1,.5-.406,1.182,1.182,0,0,1,.505-.18.559.559,0,0,1,.4.117.8.8,0,0,1,.252.415,2.652,2.652,0,0,1,.081.721v2.516a.37.37,0,0,1-.045.189.3.3,0,0,1-.1.126l-.424.243a.081.081,0,0,1-.108,0,.189.189,0,0,1-.045-.135v-.28a2.164,2.164,0,0,1-.334.613,1.749,1.749,0,0,1-.559.5,1.01,1.01,0,0,1-.424.153.46.46,0,0,1-.316-.1.7.7,0,0,1-.2-.307,1.6,1.6,0,0,1-.072-.5,2.245,2.245,0,0,1,.28-1.082,3.128,3.128,0,0,1,.721-.9l.9-.767c0-.225-.045-.37-.144-.406a.424.424,0,0,0-.37.072.55.55,0,0,0-.216.18,1.333,1.333,0,0,0-.153.253l-.09.144a.369.369,0,0,1-.09.081l-.514.3a.1.1,0,0,1-.1,0A.175.175,0,0,1,255.978,142.867Zm.9,1.867a1.372,1.372,0,0,0,.334-.271,1.587,1.587,0,0,0,.243-.361,1.641,1.641,0,0,0,.153-.4,1.364,1.364,0,0,0,.045-.379v-.081l-.749.64a1.281,1.281,0,0,0-.325.361.7.7,0,0,0-.108.37c0,.117.045.189.126.2A.478.478,0,0,0,256.88,144.734Z" transform="translate(-230.8 -34.535)" fill="#455a64"/>
          <path id="Path_1152" data-name="Path 1152" d="M260.1,137.667a.063.063,0,0,1,.1,0,.189.189,0,0,1,.045.135v.667a.441.441,0,0,1-.045.18.333.333,0,0,1-.1.135l-.478.271h-.108a.189.189,0,0,1,0-.135v-.667a.441.441,0,0,1,0-.18.28.28,0,0,1,.108-.135Zm.117,5.753a.487.487,0,0,1-.045.189.28.28,0,0,1-.108.135l-.415.243a.09.09,0,0,1-.108,0,.189.189,0,0,1-.045-.135v-3.995a.478.478,0,0,1,.045-.18.279.279,0,0,1,.108-.135l.415-.243a.09.09,0,0,1,.108,0,.189.189,0,0,1,.045.135Z" transform="translate(-231.165 -34.223)" fill="#455a64"/>
          <path id="Path_1153" data-name="Path 1153" d="M261.921,142.473a.487.487,0,0,1-.045.189.279.279,0,0,1-.108.135l-.415.234h-.108a.226.226,0,0,1-.045-.144V137.3a.487.487,0,0,1,.045-.189.28.28,0,0,1,.108-.135l.415-.243a.09.09,0,0,1,.108,0,.189.189,0,0,1,.045.135Z" transform="translate(-231.332 -34.132)" fill="#455a64"/>
          <path id="Path_1154" data-name="Path 1154" d="M264.178,138.127a2.5,2.5,0,0,1,.1-.442,2.6,2.6,0,0,1,.235-.514,2.155,2.155,0,0,1,.361-.505,1.8,1.8,0,0,1,.5-.406,1.271,1.271,0,0,1,.505-.18.523.523,0,0,1,.388.117.7.7,0,0,1,.252.415,2.308,2.308,0,0,1,.09.721v2.507a.37.37,0,0,1-.045.189.3.3,0,0,1-.1.126l-.424.243a.081.081,0,0,1-.108,0,.189.189,0,0,1-.045-.135v-.28a2.406,2.406,0,0,1-.334.613,1.749,1.749,0,0,1-.559.5,1.01,1.01,0,0,1-.424.153.46.46,0,0,1-.316-.1.631.631,0,0,1-.2-.307,1.561,1.561,0,0,1-.072-.5,2.191,2.191,0,0,1,.28-1.073,3.039,3.039,0,0,1,.721-.9l.9-.767c0-.225,0-.361-.144-.406a.424.424,0,0,0-.37.072.64.64,0,0,0-.216.18,1.333,1.333,0,0,0-.153.253l-.09.144a.37.37,0,0,1-.09.081l-.523.3a.081.081,0,0,1-.09,0A.121.121,0,0,1,264.178,138.127Zm.9,1.867a1.469,1.469,0,0,0,.577-.631,1.644,1.644,0,0,0,.153-.4,1.806,1.806,0,0,0,0-.379v-.081l-.749.64a1.506,1.506,0,0,0-.334.361.785.785,0,0,0-.1.37c0,.126.045.189.126.2a.478.478,0,0,0,.352-.081Z" transform="translate(-231.605 -34.07)" fill="#455a64"/>
          <path id="Path_1155" data-name="Path 1155" d="M268.8,134.054a.9.9,0,0,1,.307-.126.577.577,0,0,1,.243,0,.487.487,0,0,1,.171.072.425.425,0,0,1,.117.1v-1.8a.488.488,0,0,1,.045-.189.3.3,0,0,1,.072-.135l.424-.243a.081.081,0,0,1,.108,0,.189.189,0,0,1,.045.135v5.6a.487.487,0,0,1-.045.189.252.252,0,0,1-.108.126l-.424.243a.072.072,0,0,1-.1,0,.19.19,0,0,1-.045-.135v-.2c0,.072-.072.144-.117.234a2.246,2.246,0,0,1-.171.271,2.2,2.2,0,0,1-.243.262,1.622,1.622,0,0,1-.307.234.739.739,0,0,1-.5.117.631.631,0,0,1-.379-.216,1.354,1.354,0,0,1-.253-.5,2.761,2.761,0,0,1-.1-.7,2.818,2.818,0,0,1,0-.289c0-.117,0-.216,0-.307a4.332,4.332,0,0,1,.1-.812,4.206,4.206,0,0,1,.253-.785,3.671,3.671,0,0,1,.379-.667A1.578,1.578,0,0,1,268.8,134.054Zm-.514,2.363a4.218,4.218,0,0,0,0,.478.818.818,0,0,0,.216.667.406.406,0,0,0,.46,0,1.227,1.227,0,0,0,.46-.514,1.984,1.984,0,0,0,.216-.839v-.325a2.992,2.992,0,0,0,0-.316.8.8,0,0,0-.216-.586.406.406,0,0,0-.46,0,1.289,1.289,0,0,0-.46.514A2.173,2.173,0,0,0,268.288,136.417Z" transform="translate(-231.954 -33.64)" fill="#455a64"/>
          <path id="Path_1156" data-name="Path 1156" d="M272.615,131.855a.848.848,0,0,1,.307-.126.523.523,0,0,1,.234,0,.388.388,0,0,1,.18.063l.117.1v-1.8a.469.469,0,0,1,0-.189.524.524,0,0,1,.108-.126l.424-.243a.081.081,0,0,1,.1,0,.153.153,0,0,1,.045.135v5.6a.369.369,0,0,1-.045.189.243.243,0,0,1-.1.126l-.424.243a.081.081,0,0,1-.108,0,.225.225,0,0,1,0-.144v-.189l-.117.225a2.352,2.352,0,0,1-.18.271,2.09,2.09,0,0,1-.234.271,1.924,1.924,0,0,1-.307.225.812.812,0,0,1-.505.126.6.6,0,0,1-.379-.225,1.353,1.353,0,0,1-.253-.5,2.389,2.389,0,0,1-.1-.694c0-.09,0-.18,0-.3v-.307a3.7,3.7,0,0,1,.1-.812,4.2,4.2,0,0,1,.253-.785,2.84,2.84,0,0,1,.379-.667A1.687,1.687,0,0,1,272.615,131.855Zm-.523,2.363a4.218,4.218,0,0,0,0,.478.816.816,0,0,0,.225.667.406.406,0,0,0,.46,0,1.29,1.29,0,0,0,.46-.514,2.12,2.12,0,0,0,.216-.83v-.649a.8.8,0,0,0-.216-.577.379.379,0,0,0-.46,0,1.208,1.208,0,0,0-.46.505A2.3,2.3,0,0,0,272.092,134.218Z" transform="translate(-232.332 -33.425)" fill="#455a64"/>
          <path id="Path_1157" data-name="Path 1157" d="M276.673,130.865a1.145,1.145,0,0,0-.487.505,2.055,2.055,0,0,0-.144.821v2.218a.369.369,0,0,1-.045.189.243.243,0,0,1-.1.126l-.424.243a.081.081,0,0,1-.108,0,.189.189,0,0,1-.045-.135v-3.968a.487.487,0,0,1,.045-.189.217.217,0,0,1,.108-.126l.424-.243a.072.072,0,0,1,.1,0,.153.153,0,0,1,.045.135v.2a2.77,2.77,0,0,1,.307-.5,1.443,1.443,0,0,1,.433-.361l.253-.144a.081.081,0,0,1,.1,0,.153.153,0,0,1,.045.135v.568a.316.316,0,0,1-.045.18.334.334,0,0,1-.1.135Z" transform="translate(-232.719 -33.436)" fill="#455a64"/>
          <path id="Path_1158" data-name="Path 1158" d="M277.68,131.455a4.991,4.991,0,0,1,.1-.956,4.389,4.389,0,0,1,.271-.9,3.128,3.128,0,0,1,.433-.739,1.8,1.8,0,0,1,.559-.505.9.9,0,0,1,.559-.153.64.64,0,0,1,.433.225,1.344,1.344,0,0,1,.28.532,2.9,2.9,0,0,1,.09.776v.379a.371.371,0,0,1-.045.189.333.333,0,0,1-.1.135L278.4,131.5a.766.766,0,0,0,.054.316.343.343,0,0,0,.144.171.307.307,0,0,0,.207,0,.7.7,0,0,0,.234-.09,1.046,1.046,0,0,0,.289-.216,1.182,1.182,0,0,0,.18-.253c.045-.063.072-.117.1-.144a.362.362,0,0,1,.108-.09l.442-.252h.108a.153.153,0,0,1,.045.135,1.216,1.216,0,0,1-.09.361,3.5,3.5,0,0,1-.234.5,4.129,4.129,0,0,1-.4.541,2.372,2.372,0,0,1-.55.442,1.046,1.046,0,0,1-.559.162.613.613,0,0,1-.433-.234,1.388,1.388,0,0,1-.271-.568A3.6,3.6,0,0,1,277.68,131.455Zm1.362-2.065a.973.973,0,0,0-.271.234,1.319,1.319,0,0,0-.2.3,2.343,2.343,0,0,0-.117.325,2.09,2.09,0,0,0-.054.3l1.254-.721a1.132,1.132,0,0,0,0-.243.514.514,0,0,0-.1-.2.243.243,0,0,0-.189-.081.55.55,0,0,0-.325.09Z" transform="translate(-232.951 -33.296)" fill="#455a64"/>
          <path id="Path_1159" data-name="Path 1159" d="M282.925,129.383a.1.1,0,0,0-.135-.135,1.218,1.218,0,0,0-.262,0l-.406.1a.9.9,0,0,1-.406,0,.469.469,0,0,1-.261-.144.73.73,0,0,1-.135-.316,3.141,3.141,0,0,1,0-.451,2.08,2.08,0,0,1,.081-.55,2.477,2.477,0,0,1,.225-.568,2.7,2.7,0,0,1,.352-.514,1.8,1.8,0,0,1,.487-.4,1.308,1.308,0,0,1,.478-.189.694.694,0,0,1,.37,0,.514.514,0,0,1,.234.225.839.839,0,0,1,.09.343.3.3,0,0,1-.045.189.279.279,0,0,1-.108.135l-.424.243a.144.144,0,0,1-.126,0l-.09-.054a.27.27,0,0,0-.135,0,.586.586,0,0,0-.243.1.9.9,0,0,0-.3.253.532.532,0,0,0-.126.343.315.315,0,0,0,0,.144.153.153,0,0,0,.117.045h.243l.4-.1a.667.667,0,0,1,.694.108,1.082,1.082,0,0,1,.2.739,1.967,1.967,0,0,1-.081.541,2.462,2.462,0,0,1-.243.577,2.436,2.436,0,0,1-.388.532,2.256,2.256,0,0,1-.514.415,1.2,1.2,0,0,1-.523.189.649.649,0,0,1-.379-.054.559.559,0,0,1-.234-.244.9.9,0,0,1-.09-.37.352.352,0,0,1,0-.189.316.316,0,0,1,.108-.126l.433-.253a.126.126,0,0,1,.126,0l.09.081a.19.19,0,0,0,.144.054.676.676,0,0,0,.289-.108l.171-.108.162-.153.126-.171A.487.487,0,0,0,282.925,129.383Z" transform="translate(-233.299 -33.099)" fill="#455a64"/>
          <path id="Path_1160" data-name="Path 1160" d="M286.13,127.533a.162.162,0,0,0,0-.126.189.189,0,0,0-.135,0h-.262l-.406.1a.9.9,0,0,1-.406,0,.451.451,0,0,1-.262-.153.685.685,0,0,1-.135-.307,2.279,2.279,0,0,1,0-.451,2.427,2.427,0,0,1,.072-.55,2.769,2.769,0,0,1,.586-1.091,1.8,1.8,0,0,1,.478-.4,1.534,1.534,0,0,1,.487-.189.659.659,0,0,1,.361,0,.46.46,0,0,1,.234.216.848.848,0,0,1,.1.352.388.388,0,0,1,0,.189.217.217,0,0,1-.108.126l-.424.253h-.126l-.09-.054a.3.3,0,0,0-.135,0,.532.532,0,0,0-.253.1,1.063,1.063,0,0,0-.289.243.487.487,0,0,0-.126.343.288.288,0,0,0,0,.144.144.144,0,0,0,.117.045h.234l.4-.1q.5-.126.7.108a1.1,1.1,0,0,1,.2.74,2.083,2.083,0,0,1-.081.55,2.634,2.634,0,0,1-.243.577,3.075,3.075,0,0,1-.388.532,2.091,2.091,0,0,1-.523.406,1.272,1.272,0,0,1-.514.2.622.622,0,0,1-.379-.063.577.577,0,0,1-.243-.244.821.821,0,0,1-.081-.37.343.343,0,0,1,0-.18.441.441,0,0,1,.108-.135l.433-.243h.117l.1.09a.226.226,0,0,0,.144.045.5.5,0,0,0,.28-.1l.18-.117.162-.153a1.2,1.2,0,0,0,.126-.171A.487.487,0,0,0,286.13,127.533Z" transform="translate(-233.618 -32.917)" fill="#455a64"/>
          <path id="Path_1161" data-name="Path 1161" d="M246.07,151.271,336.232,99.21v8.008L246.07,159.279Z" transform="translate(-229.847 -30.449)" fill="#e0e0e0"/>
          <path id="Path_1162" data-name="Path 1162" d="M248.427,174.011l1.055-3.427a1.438,1.438,0,0,1,.072-.18.414.414,0,0,1,.162-.189l.379-.216a.1.1,0,0,1,.108,0,.189.189,0,0,1,0,.135v5.519a.469.469,0,0,1,0,.189.388.388,0,0,1-.108.126l-.451.262a.1.1,0,0,1-.108,0,.19.19,0,0,1,0-.135v-3.337l-.712,2.336a1.019,1.019,0,0,1-.081.18.361.361,0,0,1-.126.153l-.289.162H248.2a.37.37,0,0,1-.081-.09l-.721-1.506v3.337a.487.487,0,0,1-.045.189.253.253,0,0,1-.108.126l-.442.262a.09.09,0,0,1-.108,0,.189.189,0,0,1-.045-.135v-5.519a.487.487,0,0,1,.045-.189.252.252,0,0,1,.108-.126l.37-.216c.081-.045.135-.045.171,0l.072.09Z" transform="translate(-229.903 -37.399)" fill="#455a64"/>
          <path id="Path_1163" data-name="Path 1163" d="M251.38,173.285a4.97,4.97,0,0,1,.09-.956,4.391,4.391,0,0,1,.271-.9,3.462,3.462,0,0,1,.433-.74,1.975,1.975,0,0,1,.568-.505.9.9,0,0,1,.559-.153.64.64,0,0,1,.433.225,1.281,1.281,0,0,1,.271.532,2.894,2.894,0,0,1,.1.776v.379a.487.487,0,0,1-.045.189.28.28,0,0,1-.108.135l-1.8,1.064a.767.767,0,0,0,.054.316.378.378,0,0,0,.135.171.316.316,0,0,0,.207,0,.577.577,0,0,0,.243-.09,1,1,0,0,0,.28-.216,1.235,1.235,0,0,0,.189-.253.767.767,0,0,1,.1-.144.361.361,0,0,1,.108-.09l.442-.253a.081.081,0,0,1,.108,0,.162.162,0,0,1,0,.144,1.163,1.163,0,0,1-.081.352,2.834,2.834,0,0,1-.243.505,3.442,3.442,0,0,1-.4.541,2.155,2.155,0,0,1-.541.442,1.055,1.055,0,0,1-.568.162.631.631,0,0,1-.433-.234,1.388,1.388,0,0,1-.271-.568A3.609,3.609,0,0,1,251.38,173.285Zm1.362-2.065a1.02,1.02,0,0,0-.28.234,1.667,1.667,0,0,0-.189.3,1.568,1.568,0,0,0-.117.325,2.1,2.1,0,0,0-.054.3l1.254-.721a2.314,2.314,0,0,0,0-.243.415.415,0,0,0-.1-.2.226.226,0,0,0-.18-.081A.523.523,0,0,0,252.742,171.22Z" transform="translate(-230.368 -37.403)" fill="#455a64"/>
          <path id="Path_1164" data-name="Path 1164" d="M256.629,171.217a.243.243,0,0,0,0-.135.208.208,0,0,0-.144,0,1.154,1.154,0,0,0-.252.045l-.415.1a.9.9,0,0,1-.4,0,.442.442,0,0,1-.262-.144.731.731,0,0,1-.135-.316,2.226,2.226,0,0,1,0-.451,2.056,2.056,0,0,1,.072-.55,2.978,2.978,0,0,1,.225-.568,2.785,2.785,0,0,1,.361-.514,1.678,1.678,0,0,1,.478-.4,1.28,1.28,0,0,1,.487-.189.658.658,0,0,1,.361,0,.478.478,0,0,1,.234.225.848.848,0,0,1,.1.352.478.478,0,0,1,0,.18.342.342,0,0,1-.108.135l-.424.243a.153.153,0,0,1-.126,0l-.09-.054a.217.217,0,0,0-.135,0,.568.568,0,0,0-.253.09.955.955,0,0,0-.289.253.5.5,0,0,0-.135.343.307.307,0,0,0,0,.144.126.126,0,0,0,.117.045h.234l.4-.1a.776.776,0,0,1,.694.108,1.082,1.082,0,0,1,.207.74,1.966,1.966,0,0,1-.081.541,3.6,3.6,0,0,1-.243.577,2.765,2.765,0,0,1-.388.532,2.12,2.12,0,0,1-.523.415,1.208,1.208,0,0,1-.514.189A.631.631,0,0,1,255.3,173a.532.532,0,0,1-.243-.243,1.011,1.011,0,0,1-.09-.37.487.487,0,0,1,.045-.189.216.216,0,0,1,.108-.126l.424-.253h.126l.1.081a.189.189,0,0,0,.144.054.55.55,0,0,0,.28-.108,1.1,1.1,0,0,0,.334-.262.7.7,0,0,0,.126-.171.378.378,0,0,0-.027-.2Z" transform="translate(-230.721 -37.211)" fill="#455a64"/>
          <path id="Path_1165" data-name="Path 1165" d="M259.811,169.368a.162.162,0,0,0-.045-.126.189.189,0,0,0-.135,0,1.9,1.9,0,0,0-.253.045l-.415.1a.9.9,0,0,1-.406,0,.433.433,0,0,1-.253-.153.532.532,0,0,1-.135-.307,2.245,2.245,0,0,1-.045-.451,2.028,2.028,0,0,1,.081-.55,2.57,2.57,0,0,1,.225-.568,2.947,2.947,0,0,1,.352-.523,2.048,2.048,0,0,1,.487-.4,1.677,1.677,0,0,1,.487-.189.667.667,0,0,1,.361,0,.5.5,0,0,1,.234.216.838.838,0,0,1,.09.352.352.352,0,0,1,0,.189.387.387,0,0,1-.108.126l-.433.243c-.054,0-.09.045-.117,0a.27.27,0,0,1-.1-.054.235.235,0,0,0-.126,0,.614.614,0,0,0-.253.1,1.262,1.262,0,0,0-.3.243.541.541,0,0,0-.126.352.2.2,0,0,0,0,.135h.352l.4-.1a.667.667,0,0,1,.694.108,1.1,1.1,0,0,1,.207.74,2.121,2.121,0,0,1-.09.55,3.1,3.1,0,0,1-.234.577,4.2,4.2,0,0,1-.388.532,2.471,2.471,0,0,1-.523.406,1.361,1.361,0,0,1-.523.2.649.649,0,0,1-.379-.063.559.559,0,0,1-.235-.243.974.974,0,0,1-.09-.37.351.351,0,0,1,.045-.18.28.28,0,0,1,.108-.135l.424-.244h.126l.09.081a.262.262,0,0,0,.153.045.514.514,0,0,0,.28-.1l.171-.117a.9.9,0,0,0,.162-.153.767.767,0,0,0,.126-.171.379.379,0,0,0,.054-.144Z" transform="translate(-231.025 -37.03)" fill="#455a64"/>
          <path id="Path_1166" data-name="Path 1166" d="M261.439,166.348a2.812,2.812,0,0,1,.108-.442,2.548,2.548,0,0,1,.225-.514,2.705,2.705,0,0,1,.361-.505,1.92,1.92,0,0,1,.5-.4,1.109,1.109,0,0,1,.505-.18.541.541,0,0,1,.4.108.839.839,0,0,1,.253.415,2.707,2.707,0,0,1,.09.721v2.507a.487.487,0,0,1-.045.189c0,.063-.063.108-.108.126l-.424.243a.072.072,0,0,1-.1,0,.189.189,0,0,1-.045-.144v-.28a2.453,2.453,0,0,1-.343.613,1.615,1.615,0,0,1-.55.5.965.965,0,0,1-.433.153.469.469,0,0,1-.316-.09.828.828,0,0,1-.2-.316,1.561,1.561,0,0,1-.063-.487,2.192,2.192,0,0,1,.271-1.082,3.164,3.164,0,0,1,.721-.9l.9-.758c0-.234-.054-.37-.153-.415a.46.46,0,0,0-.37.072.748.748,0,0,0-.216.189,1.434,1.434,0,0,0-.153.243.5.5,0,0,1-.09.144.252.252,0,0,1-.09.081l-.514.3a.072.072,0,0,1-.1,0A.107.107,0,0,1,261.439,166.348Zm.9,1.876a1.227,1.227,0,0,0,.334-.28,1.409,1.409,0,0,0,.243-.361,1.728,1.728,0,0,0,.153-.388,1.48,1.48,0,0,0,.054-.379v-.081l-.758.64a1.307,1.307,0,0,0-.325.37.65.65,0,0,0-.1.37c0,.117,0,.18.117.189a.4.4,0,0,0,.307-.081Z" transform="translate(-231.337 -36.841)" fill="#455a64"/>
          <path id="Path_1167" data-name="Path 1167" d="M266.224,167.745a.9.9,0,0,0,.234-.2,1.291,1.291,0,0,0,.225-.3,2.282,2.282,0,0,0,.162-.4,1.631,1.631,0,0,0,.063-.469v-.316a1.874,1.874,0,0,1-.117.234c-.045.081-.108.171-.171.261a3.288,3.288,0,0,1-.243.271,1.586,1.586,0,0,1-.307.225.784.784,0,0,1-.5.126.64.64,0,0,1-.388-.225,1.343,1.343,0,0,1-.2-.478,2.7,2.7,0,0,1-.108-.694v-.6a4.361,4.361,0,0,1,.108-.812,4.193,4.193,0,0,1,.243-.785,3.231,3.231,0,0,1,.388-.667,1.8,1.8,0,0,1,.5-.451,1.163,1.163,0,0,1,.307-.126.569.569,0,0,1,.243,0,.361.361,0,0,1,.171.063.452.452,0,0,1,.117.1v-.2a.487.487,0,0,1,.045-.189.253.253,0,0,1,.108-.126l.415-.243a.081.081,0,0,1,.108,0,.189.189,0,0,1,.045.135v4a4,4,0,0,1-.37,1.8,2.606,2.606,0,0,1-1.037,1.118,1.37,1.37,0,0,1-.523.189.812.812,0,0,1-.424-.063.7.7,0,0,1-.28-.28.9.9,0,0,1-.117-.424.37.37,0,0,1,.045-.189.28.28,0,0,1,.108-.135l.37-.216a.108.108,0,0,1,.135,0l.1.09a.253.253,0,0,0,.2.126A.667.667,0,0,0,266.224,167.745Zm-.667-2.931a4.218,4.218,0,0,0,0,.478.8.8,0,0,0,.225.667.406.406,0,0,0,.46,0,1.208,1.208,0,0,0,.451-.514,1.974,1.974,0,0,0,.216-.83c0-.09,0-.2,0-.334v-.316a.766.766,0,0,0-.216-.577.361.361,0,0,0-.451,0,1.208,1.208,0,0,0-.46.505A2.3,2.3,0,0,0,265.556,164.814Z" transform="translate(-231.694 -36.588)" fill="#455a64"/>
          <path id="Path_1168" data-name="Path 1168" d="M268.62,163.336a4.9,4.9,0,0,1,.09-.956,4.123,4.123,0,0,1,.28-.9,3.68,3.68,0,0,1,.424-.74,2.119,2.119,0,0,1,.568-.5.9.9,0,0,1,.559-.144.667.667,0,0,1,.433.216,1.281,1.281,0,0,1,.271.532,2.941,2.941,0,0,1,.1.776V162a.486.486,0,0,1-.045.189.216.216,0,0,1-.108.126l-1.849,1.073a.793.793,0,0,0,.054.316.379.379,0,0,0,.135.171.405.405,0,0,0,.207,0,.9.9,0,0,0,.243-.09,1.523,1.523,0,0,0,.289-.225,2.117,2.117,0,0,0,.18-.243.9.9,0,0,1,.1-.153l.108-.081.442-.262a.1.1,0,0,1,.108,0,.153.153,0,0,1,0,.135,1.262,1.262,0,0,1-.081.361,2.829,2.829,0,0,1-.243.505,3.018,3.018,0,0,1-.4.532,1.975,1.975,0,0,1-.541.442.9.9,0,0,1-.568.162.6.6,0,0,1-.424-.225,1.29,1.29,0,0,1-.28-.568A3.608,3.608,0,0,1,268.62,163.336Zm1.362-2.065a1.137,1.137,0,0,0-.28.225,2.154,2.154,0,0,0-.189.307,1.4,1.4,0,0,0-.117.325,2.1,2.1,0,0,0-.054.3l1.254-.721a1.152,1.152,0,0,0-.045-.243.441.441,0,0,0-.1-.207.307.307,0,0,0-.18-.081.55.55,0,0,0-.289.1Z" transform="translate(-232.06 -36.427)" fill="#455a64"/>
          <path id="Path_1169" data-name="Path 1169" d="M246.07,177.912l90.162-52.052v28.028L246.07,205.94Z" transform="translate(-229.847 -33.066)" fill="#e0e0e0"/>
        </g>
      </g>
      <g id="freepik--character-2--inject-9" transform="translate(85.581 63.381)">
        <g id="freepik--window--inject-9-3" data-name="freepik--window--inject-9">
          <path id="Path_1170" data-name="Path 1170" d="M199.829,68.357,95.455,128.535A5.2,5.2,0,0,0,93.11,132.6V364.446a5.158,5.158,0,0,0,2.354,4.058l1.47.839a5.194,5.194,0,0,0,4.7,0l104.375-60.286a5.194,5.194,0,0,0,2.354-4.067V73.227A5.158,5.158,0,0,0,206,69.169l-1.461-.839a5.212,5.212,0,0,0-4.707.027Z" transform="translate(-93.11 -67.782)" fill="#e0e0e0"/>
          <path id="Path_1171" data-name="Path 1171" d="M209.033,305.613c0,2.065-1.452,3.382-3.256,4.41L103.206,369.263c-1.8,1.037-3.246.2-3.246-1.876V137.616h0a6.457,6.457,0,0,1,3.228-5.6L205.778,72.759a2.173,2.173,0,0,1,3.255,1.876h0Z" transform="translate(-93.783 -68.242)" fill="#fafafa"/>
          <path id="Path_1172" data-name="Path 1172" d="M206.86,73.372h0a1.263,1.263,0,0,1,1.263,1.263V305.613c0,1.4-.9,2.516-2.8,3.607L102.756,368.478a2.056,2.056,0,0,1-1,.325c-.776,0-.9-.9-.9-1.416V137.616a5.582,5.582,0,0,1,2.778-4.816l102.6-59.258a1.235,1.235,0,0,1,.631-.171m0-.9a2.192,2.192,0,0,0-1.082.289L103.188,132.016a6.457,6.457,0,0,0-3.228,5.6V367.387c0,1.47.73,2.318,1.8,2.318a2.967,2.967,0,0,0,1.452-.442l102.562-59.23c1.8-1.028,3.256-2.345,3.256-4.41V74.634A2.173,2.173,0,0,0,206.86,72.47Z" transform="translate(-93.783 -68.242)" fill="#e0e0e0"/>
          <path id="Path_1173" data-name="Path 1173" d="M208.44,73.247v.9a2.173,2.173,0,0,0-3.256-1.876L102.6,131.567a6.367,6.367,0,0,0-2.363,2.354v.072l-6.313-3.661a4.834,4.834,0,0,1,1.7-1.8L199.909,68.359a5.239,5.239,0,0,1,4.707,0l1.461.839a5.167,5.167,0,0,1,2.363,4.049Z" transform="translate(-93.19 -67.784)" fill="#f0f0f0"/>
          <path id="Path_1174" data-name="Path 1174" d="M122.03,141.634a.289.289,0,0,1,0-.153v-.758l-1.181.685c-.072,0-.1,0-.1-.108v-.271a.775.775,0,0,1,0-.153.814.814,0,0,1,0-.144L122,137.3a1.016,1.016,0,0,1,.063-.135.217.217,0,0,1,.081-.072l.162-.1h.108V139.8l.262-.153h.108a.37.37,0,0,1,0,.171V140a.523.523,0,0,1,0,.189.253.253,0,0,1-.108.108l-.262.153v.758a.37.37,0,0,1,0,.189.2.2,0,0,1-.108.117l-.2.117A.057.057,0,0,1,122.03,141.634Zm.054-1.605v-1.885l-.9,2.381Z" transform="translate(-95.824 -74.578)" fill="#455a64"/>
          <path id="Path_1175" data-name="Path 1175" d="M123.691,140.2a2.534,2.534,0,0,1-.343-1.542,4.879,4.879,0,0,1,.352-1.948,2.345,2.345,0,0,1,.974-1.181,1.316,1.316,0,0,1,.478-.18.5.5,0,0,1,.37.054.072.072,0,0,1,0,.063.343.343,0,0,1,0,.09l-.108.4a.279.279,0,0,1,0,.081h-.054a.667.667,0,0,0-.6.09,1.713,1.713,0,0,0-.667.821,3.661,3.661,0,0,0-.243,1.434,2.047,2.047,0,0,0,.234,1.172c.162.189.379.207.649.045a1.553,1.553,0,0,0,.289-.207,1.5,1.5,0,0,0,.234-.253V137.9l-.5.289h-.1a.235.235,0,0,1,0-.162v-.171a.388.388,0,0,1,0-.2.225.225,0,0,1,.1-.108l.794-.451h.117a.424.424,0,0,1,0,.2v1.749a.649.649,0,0,1,0,.153.217.217,0,0,1,0,.117,2.444,2.444,0,0,1-.9.9C124.25,140.489,123.935,140.444,123.691,140.2Z" transform="translate(-96.078 -74.415)" fill="#455a64"/>
          <path id="Path_1176" data-name="Path 1176" d="M134.651,133.922a1.8,1.8,0,0,1-.685,1.452c-.379.225-.685-.072-.685-.658a1.8,1.8,0,0,1,.685-1.452C134.344,133.065,134.651,133.363,134.651,133.922Z" transform="translate(-97.055 -74.206)" fill="#455a64"/>
          <path id="Path_1177" data-name="Path 1177" d="M133.823,131.358a4.121,4.121,0,0,0-1.6,2.4.508.508,0,0,0,.072.478h0c.126.081.325-.081.4-.352a2.922,2.922,0,0,1,1.127-1.7.73.73,0,0,1,1.127.4c.072.18.271.126.4-.108h0a.694.694,0,0,0,.072-.568,1.028,1.028,0,0,0-1.6-.55Z" transform="translate(-96.949 -74.006)" fill="#455a64"/>
          <path id="Path_1178" data-name="Path 1178" d="M133.728,129.466a6.421,6.421,0,0,0-2.453,3.49c-.081.225-.054.46.054.532h0c.126.081.316-.081.4-.334a5.249,5.249,0,0,1,2-2.859,1.326,1.326,0,0,1,2,.541c.09.162.271.108.4-.117h0a.676.676,0,0,0,.054-.6,1.632,1.632,0,0,0-2.453-.658Z" transform="translate(-96.853 -73.809)" fill="#455a64"/>
          <path id="Path_1179" data-name="Path 1179" d="M159.794,117.158a.072.072,0,0,1,.09,0,.189.189,0,0,1,0,.108v.685a.525.525,0,0,1,0,.162.243.243,0,0,1-.09.1l-.424.243a.063.063,0,0,1-.081,0,.153.153,0,0,1,0-.117v-.685a.315.315,0,0,1,0-.153.261.261,0,0,1,.081-.108Zm0,2.453a.072.072,0,0,1,.09,0,.154.154,0,0,1,0,.108v.685a.425.425,0,0,1,0,.153.225.225,0,0,1-.09.108l-.424.243a.054.054,0,0,1-.081,0v-.794a.315.315,0,0,1,0-.153.217.217,0,0,1,.081-.108Z" transform="translate(-99.607 -72.629)" fill="#455a64"/>
          <path id="Path_1180" data-name="Path 1180" d="M162.367,118.953a.072.072,0,0,1-.081,0,.153.153,0,0,1,0-.117v-.848l-1.407.821a.072.072,0,0,1-.09,0,.144.144,0,0,1,0-.108v-.5a.6.6,0,0,1,0-.189.239.239,0,0,1,.072-.2l1.389-3.481a.568.568,0,0,1,.189-.28l.343-.2a.072.072,0,0,1,.09,0,.153.153,0,0,1,0,.117v2.8l.388-.225a.072.072,0,0,1,.09,0,.135.135,0,0,1,0,.108v.5a.3.3,0,0,1,0,.153.225.225,0,0,1-.09.108l-.388.225v.857a.3.3,0,0,1,0,.153.226.226,0,0,1-.09.108Zm-.117-1.849v-1.5l-.776,1.948Z" transform="translate(-99.755 -72.305)" fill="#455a64"/>
          <path id="Path_1181" data-name="Path 1181" d="M157.2,121.913a.072.072,0,0,1-.09,0,.2.2,0,0,1,0-.117v-.848l-1.407.821a.072.072,0,0,1-.09,0,.189.189,0,0,1,0-.108v-.505a.406.406,0,0,1,0-.18,1.682,1.682,0,0,1,.063-.2l1.4-3.481a.514.514,0,0,1,.18-.28l.352-.207a.063.063,0,0,1,.081,0,.153.153,0,0,1,0,.117v2.76l.4-.225a.054.054,0,0,1,.081,0s0,.054,0,.108v.5a.3.3,0,0,1,0,.153.216.216,0,0,1-.081.108l-.4.225v.938a.315.315,0,0,1,0,.153.217.217,0,0,1-.081.108Zm-.126-1.8v-1.5l-.776,1.948Z" transform="translate(-99.246 -72.595)" fill="#455a64"/>
          <path id="Path_1182" data-name="Path 1182" d="M164.535,112.973a.315.315,0,0,1,0-.153.225.225,0,0,1,.09-.108l1.7-.983a.081.081,0,0,1,.09,0,.2.2,0,0,1,0,.117v.5a.478.478,0,0,1,0,.153.225.225,0,0,1-.09.108l-1.272.739-.054.9a1.11,1.11,0,0,1,.243-.225l.2-.135a1.082,1.082,0,0,1,.469-.162.541.541,0,0,1,.379.09.785.785,0,0,1,.252.361,1.857,1.857,0,0,1,.09.64,3.265,3.265,0,0,1-.09.821,2.858,2.858,0,0,1-.262.676,1.992,1.992,0,0,1-.379.523,2.454,2.454,0,0,1-.46.361,1.479,1.479,0,0,1-.541.2.559.559,0,0,1-.37-.09.694.694,0,0,1-.225-.316,1.452,1.452,0,0,1-.081-.469.225.225,0,0,1,0-.153.216.216,0,0,1,.081-.108l.37-.216h.081a.135.135,0,0,1,.054.1.5.5,0,0,0,.081.207.262.262,0,0,0,.144.081.3.3,0,0,0,.171,0,1.248,1.248,0,0,0,.2-.09,1.037,1.037,0,0,0,.415-.46,1.452,1.452,0,0,0,.162-.685.487.487,0,0,0-.162-.433.37.37,0,0,0-.415,0,1.127,1.127,0,0,0-.216.162.6.6,0,0,0-.126.144l-.09.126a.343.343,0,0,1-.108.09l-.415.243a.072.072,0,0,1-.09,0s0-.054,0-.108Z" transform="translate(-100.092 -72.096)" fill="#455a64"/>
          <path id="Path_1183" data-name="Path 1183" d="M107.67,150.9V149.44l1.263-.73v1.461Z" transform="translate(-94.54 -75.729)" fill="#455a64"/>
          <path id="Path_1184" data-name="Path 1184" d="M109.77,149.532V146.61l1.263-.73V148.8Z" transform="translate(-94.746 -75.451)" fill="#455a64"/>
          <path id="Path_1185" data-name="Path 1185" d="M111.87,148.154V143.78l1.263-.73v4.374Z" transform="translate(-94.952 -75.173)" fill="#455a64"/>
          <path id="Path_1186" data-name="Path 1186" d="M113.97,146.785V140.95l1.272-.73v5.835Z" transform="translate(-95.158 -74.895)" fill="#455a64"/>
          <path id="Path_1187" data-name="Path 1187" d="M211.775,85.4a.334.334,0,0,0-.469-.153l-4.725,2.705a1.8,1.8,0,0,0-.541,1.434v2.651a1.506,1.506,0,0,0,.207.848.379.379,0,0,0,.189.171.28.28,0,0,0,.28,0l4.716-2.705a1.8,1.8,0,0,0,.541-1.434V86.246a1.614,1.614,0,0,0-.2-.848Zm-5.411,7.151a.748.748,0,0,1-.081-.388V89.529a1.416,1.416,0,0,1,.424-1.091l4.716-2.705a.189.189,0,0,1,.153,0,.153.153,0,0,1,.054.054.712.712,0,0,1,.081.388v2.651a1.416,1.416,0,0,1-.415,1.091l-4.725,2.705a.135.135,0,0,1-.2-.072Z" transform="translate(-104.199 -69.493)" fill="#455a64"/>
          <path id="Path_1188" data-name="Path 1188" d="M207.684,88.71v3.138l-.739.424a.1.1,0,0,1-.144-.081V89.873a1.091,1.091,0,0,1,.307-.812Z" transform="translate(-104.274 -69.837)" fill="#455a64"/>
          <path id="Path_1189" data-name="Path 1189" d="M208.16,88.444l.884-.514v3.138l-.884.505Z" transform="translate(-104.408 -69.761)" fill="#455a64"/>
          <path id="Path_1190" data-name="Path 1190" d="M209.52,87.663l.893-.523v3.147l-.893.514Z" transform="translate(-104.541 -69.683)" fill="#455a64"/>
          <path id="Path_1191" data-name="Path 1191" d="M211.774,86.577v2.264a1.172,1.172,0,0,1-.586,1.01l-.3.171V86.884l.7-.406a.117.117,0,0,1,.18.1Z" transform="translate(-104.676 -69.616)" fill="#455a64"/>
          <path id="Path_1192" data-name="Path 1192" d="M212.794,86.269c.126-.081.234.3.234.839v.5a2.02,2.02,0,0,1-.234,1.145l-.243.162V86.4Z" transform="translate(-104.839 -69.596)" fill="#455a64"/>
          <path id="Path_1193" data-name="Path 1193" d="M198.09,94.716l4.59-4.076-1.416,5.97-.667-2.48Z" transform="translate(-103.419 -70.027)" fill="#455a64"/>
          <path id="Path_1194" data-name="Path 1194" d="M109.858,153.327l73.858-42.619c1.226-.7,2.218-.126,2.218,1.281v6.9a4.915,4.915,0,0,1-2.218,3.842l-73.858,42.637c-1.226.7-2.218.135-2.218-1.281V157.2A4.888,4.888,0,0,1,109.858,153.327Z" transform="translate(-94.537 -71.968)" fill="#88f5b4"/>
          <path id="Path_1195" data-name="Path 1195" d="M200.546,117.3a.848.848,0,0,1-.739-.424.839.839,0,0,1,.307-1.163L209.889,110a.9.9,0,0,1,.9,1.479l-9.821,5.735a.812.812,0,0,1-.424.09Z" transform="translate(-103.575 -71.924)" fill="#e0e0e0"/>
          <path id="Path_1196" data-name="Path 1196" d="M200.546,112.623a.848.848,0,0,1-.433-1.587l9.776-5.7a.862.862,0,1,1,.9,1.47l-9.767,5.7a.811.811,0,0,1-.478.117Z" transform="translate(-103.575 -71.457)" fill="#e0e0e0"/>
          <path id="Path_1197" data-name="Path 1197" d="M200.556,107.964a.9.9,0,0,1-.433-1.6l9.776-5.7a.9.9,0,0,1,1.172.307.848.848,0,0,1-.307,1.163L201,107.847A.9.9,0,0,1,200.556,107.964Z" transform="translate(-103.585 -71.001)" fill="#e0e0e0"/>
        </g>
        <g id="freepik--Character--inject-9" transform="translate(6.177 104.68)">
          <g id="freepik--Botom--inject-9" transform="translate(0.036 145.091)">
            <path id="Path_1198" data-name="Path 1198" d="M100,344.75v49.464c0,1.993,1.407,2.8,3.12,1.8l30.941-17.865,3-1.731,23.889-13.8c.135-4.509.253-8.315.334-11.119.108-3.237.162-5.122.162-5.122Z" transform="translate(-100 -344.75)" fill="#455a64"/>
          </g>
          <g id="freepik--Top--inject-9" transform="translate(0 1.401)">
            <path id="Path_1199" data-name="Path 1199" d="M201.639,267.911a24.456,24.456,0,0,0,.523-3.806c.505-6.15,3.688-11.606,7.106-16.6.577-.848,1.172-1.7,1.8-2.543a12.551,12.551,0,0,0,.83-1.254c.216-.424.415-.767,1.01-.649a1.7,1.7,0,0,1,.992.739,5.014,5.014,0,0,1,.6,4.04,24.034,24.034,0,0,1-1.47,3.932c-.415,1,.776.694,1.317.469,2.651-1.109,5.312-4.816,6.98-7.1a36.2,36.2,0,0,1,3.219-4.509,5.645,5.645,0,0,1,2.949-1.686c.767-.135,1.515,0,1.6.974a3.932,3.932,0,0,1-.469,1.74c-.469,1.154-.9,2.2-.361,3.427a9.749,9.749,0,0,1,.9,2.318c.153,1.055-.325,2.1-.3,3.165s.568,1.731.685,2.624a8.306,8.306,0,0,1-.812,3.156,25.665,25.665,0,0,1-3.174,5.9,48.973,48.973,0,0,1-6.881,7.521,13.455,13.455,0,0,0-3.607,4.338,28.56,28.56,0,0,0-1.524,5.483c-.487,2.327-.9,4.671-1.416,7-5.176,25.25-7.765,26.648-11.047,30.409-1.984,2.273-7.71,4.419-15.493-3.607-8.639-8.928-25.16-32.014-25.16-32.014L157,250.524s3.075.83,6.962,1.939c3.607,1.037,7.449,4.68,10.028,8.757,5.33,8.432,19.082,30.382,19.082,30.382S200.593,271.194,201.639,267.911Z" transform="translate(-105.561 -190.666)" fill="#ffbda7"/>
            <path id="Path_1200" data-name="Path 1200" d="M159.461,252.11c5.7.758,9.018,2.525,12.382,6.475s16.278,25.5,16.278,25.5a32.461,32.461,0,0,1-16.278,14.492L157.08,279.227Z" transform="translate(-105.569 -191.964)" fill="#88f5b4"/>
            <path id="Path_1201" data-name="Path 1201" d="M159.461,252.11c5.7.758,9.018,2.525,12.382,6.475s16.278,25.5,16.278,25.5a32.461,32.461,0,0,1-16.278,14.492L157.08,279.227Z" transform="translate(-105.569 -191.964)" opacity="0.15"/>
            <path id="Path_1202" data-name="Path 1202" d="M196.536,297.022a48.508,48.508,0,0,0-3.9,13.789s-1.641-9.586,2.1-16.71Z" transform="translate(-109.025 -196.087)" fill="#f0997a"/>
            <path id="Path_1203" data-name="Path 1203" d="M218.354,257.85A18.353,18.353,0,0,1,216,267.905a10.884,10.884,0,0,0,2.895-4.78C219.517,260.24,219.066,258.968,218.354,257.85Z" transform="translate(-111.355 -192.527)" fill="#f0997a"/>
            <path id="Path_1204" data-name="Path 1204" d="M162.446,342.37c-11.94,8.477-51.033,11.309-62.486,3.733V254.535l.9-.18,11.209-2.363,6.069-1.281,1.542-.325h0l5.411-1.136,14.1.821h0l4.247.253h.415s4.906.586,10,1.47c.189.171.361.352.55.541h0c3.535,3.815,6.583,13.527,7.449,23.925.325,3.959.559,9.92.739,16.6v.622C163.122,313.954,162.446,342.37,162.446,342.37Z" transform="translate(-99.96 -191.683)" fill="#88f5b4"/>
            <g id="freepik--Head--inject-9" transform="translate(7.401)">
              <path id="Path_1205" data-name="Path 1205" d="M154.1,209.2c2.5-5.735.054-13.347-2.94-16.918-4.32-5.167-11.038-7.395-21.174-6.764-7.71.478-15.286,3.679-16.728,11.588-6.2,1.849-5.492,12.021-3.95,16.512,3.129,9.1,9.28,17.026,9.379,21.643Z" transform="translate(-108.174 -185.414)" fill="#455a64"/>
              <path id="Path_1206" data-name="Path 1206" d="M154.08,231.864c-1.217,4.4-3.761,7.62-7.828,8.251a33.753,33.753,0,0,1-6.412,0l.153,5.6c5.474,4.68,3.472,10.822-.18,16.377-4.509-5.041-9.721-6.845-14.258-8.838a14.519,14.519,0,0,1-6.61-6.4l-.577-18.938s-2.489,2.832-6.592.153A8.946,8.946,0,0,1,109,217.12c2.029-4.293,6.1-2.516,7.35-1.217s2.705,3.752,3.761,3.409a3.761,3.761,0,0,0,2.516-2.57,22.987,22.987,0,0,0,1.335-8.315,11.354,11.354,0,0,0,3.183-2.453,10.344,10.344,0,0,0,2.76-6.367c8.784-2.705,18.893-1.452,22.545,1.371,2.1,3.706,2.173,12.31,2.525,17.27C155.352,223.7,155.109,228.185,154.08,231.864Z" transform="translate(-108.166 -186.66)" fill="#ffbda7"/>
              <path id="Path_1207" data-name="Path 1207" d="M141.17,243.368c-4.509-.253-13.527-2.354-15.944-4.861s-3.436-7.647-3.436-7.647.361,6.484,2.227,9.343,6.565,4.112,9.424,4.825a69.091,69.091,0,0,0,7.819,1.181Z" transform="translate(-109.504 -189.877)" fill="#f0997a"/>
              <path id="Path_1208" data-name="Path 1208" d="M140.322,266.621c-2.354-1.443-7.548-7.341-10.136-4.6s-3.959,3.49-5.672,2.985-5.465-4.229-7.927-6.944a15.736,15.736,0,0,1-3.246-6.628,42.811,42.811,0,0,0,3.472-4.825c1.172-2.074.9-2.66,2.417-2.76l.135,3.914s.9,2.137,5.176,5.023S137.283,259.965,140.322,266.621Z" transform="translate(-108.674 -191.152)" fill="#88f5b4"/>
              <path id="Path_1209" data-name="Path 1209" d="M140.322,266.621c-2.354-1.443-7.548-7.341-10.136-4.6s-3.959,3.49-5.672,2.985-5.465-4.229-7.927-6.944a15.736,15.736,0,0,1-3.246-6.628,42.811,42.811,0,0,0,3.472-4.825c1.172-2.074.9-2.66,2.417-2.76l.135,3.914s.9,2.137,5.176,5.023S137.283,259.965,140.322,266.621Z" transform="translate(-108.674 -191.152)" opacity="0.15"/>
              <path id="Path_1210" data-name="Path 1210" d="M143.26,266.915c1.4-1.281,3.679-7.214,4.284-7.07.9.262,2.507,4.374,3.283,3.418,1.226-1.515.857-8.441-1.19-10.957s-4.771-5.194-6.313-5.456l.108,3.688a14.952,14.952,0,0,1,1.515,5.952C144.946,258.591,143.549,264.9,143.26,266.915Z" transform="translate(-111.613 -191.447)" fill="#88f5b4"/>
              <path id="Path_1211" data-name="Path 1211" d="M143.26,266.915c1.4-1.281,3.679-7.214,4.284-7.07.9.262,2.507,4.374,3.283,3.418,1.226-1.515.857-8.441-1.19-10.957s-4.771-5.194-6.313-5.456l.108,3.688a14.952,14.952,0,0,1,1.515,5.952C144.946,258.591,143.549,264.9,143.26,266.915Z" transform="translate(-111.613 -191.447)" opacity="0.15"/>
              <path id="Path_1212" data-name="Path 1212" d="M139.718,217.123a1.8,1.8,0,0,1-1.8,1.885,1.894,1.894,0,1,1,1.8-1.885Z" transform="translate(-110.893 -188.341)" fill="#263238"/>
              <path id="Path_1213" data-name="Path 1213" d="M136.869,210.767l-3.679,2.489a2.336,2.336,0,0,1,.622-3.165,2.173,2.173,0,0,1,3.057.676Z" transform="translate(-110.588 -187.802)" fill="#37474f"/>
              <path id="Path_1214" data-name="Path 1214" d="M156.43,212.416l-4.04-1.93a2.146,2.146,0,0,1,2.922-1.1A2.345,2.345,0,0,1,156.43,212.416Z" transform="translate(-112.509 -187.747)" fill="#37474f"/>
              <path id="Path_1215" data-name="Path 1215" d="M154.948,216.994a1.8,1.8,0,0,1-1.8,1.894,1.894,1.894,0,1,1,1.8-1.894Z" transform="translate(-112.388 -188.329)" fill="#263238"/>
              <path id="Path_1216" data-name="Path 1216" d="M144.76,212.99l1.317,13.076,7.016-2.119Z" transform="translate(-111.76 -188.122)" fill="#f0997a"/>
              <path id="Path_1217" data-name="Path 1217" d="M140.111,230.86l7.521,1.668a3.788,3.788,0,0,1-4.509,3.057A4.04,4.04,0,0,1,140.111,230.86Z" transform="translate(-111.295 -189.877)" fill="#b16668"/>
              <path id="Path_1218" data-name="Path 1218" d="M143.13,235.734a1.418,1.418,0,0,1,.469.054,3.508,3.508,0,0,0-3.5-3.418,4,4,0,0,0,3.03,3.364Z" transform="translate(-111.302 -190.025)" fill="#f28f8f"/>
            </g>
            <path id="Path_1219" data-name="Path 1219" d="M102.705,284.861,100,291.516V255.11S107.774,270.062,102.705,284.861Z" transform="translate(-99.964 -192.258)" fill="#88f5b4"/>
            <path id="Path_1220" data-name="Path 1220" d="M102.705,284.861,100,291.516V255.11S107.774,270.062,102.705,284.861Z" transform="translate(-99.964 -192.258)" opacity="0.15"/>
          </g>
          <path id="Path_1221" data-name="Path 1221" d="M160.267,224.73a22.473,22.473,0,0,1,4.87,2.263,4.293,4.293,0,0,1,1.5,5.826l-1.858-.361s.956-2.173-.162-3.346-4.374-2.164-4.374-2.164Z" transform="translate(-105.879 -187.874)" fill="#263238"/>
          <path id="Path_1222" data-name="Path 1222" d="M166.056,232.344c-1.506-.73-2.227.207-3.292,2.76s-.334,3.256.956,3.761,2.291-.343,3.084-2.453C167.7,234.03,167.679,233.128,166.056,232.344Z" transform="translate(-106.077 -188.598)" fill="#88f5b4"/>
          <path id="Path_1223" data-name="Path 1223" d="M166.056,232.344c-1.506-.73-2.227.207-3.292,2.76s-.334,3.256.956,3.761,2.291-.343,3.084-2.453C167.7,234.03,167.679,233.128,166.056,232.344Z" transform="translate(-106.077 -188.598)" opacity="0.1"/>
          <path id="Path_1224" data-name="Path 1224" d="M117.234,188.5c-4.509,4.157-8.811,10.064-5.609,23.726a7.44,7.44,0,0,0-1.867,7.71c1.244,4.22,5.294,6.989,9.018,6.2s5.808-4.861,4.572-9.081c-.9-3.156-4.311-6.213-7.1-6.006,0,0-2.705-5.853-.171-14.122,3.418-11.291,16.566-12.219,22.356-11.309C136.523,182.859,123.167,183.021,117.234,188.5Z" transform="translate(-100.884 -183.86)" fill="#263238"/>
          <path id="Path_1225" data-name="Path 1225" d="M123.929,219.705c-1.371-4.68-5.862-7.756-10.028-6.872a6.529,6.529,0,0,0-1.8.676c-.46.253-1.885,1.235-2.164,1.416a8.074,8.074,0,0,0-2.787,9.108c1.371,4.68,5.853,7.756,10.019,6.872a6.61,6.61,0,0,0,2.155-.9c.334-.216,1.659-1.1,1.993-1.335C123.839,226.9,125.011,223.358,123.929,219.705Z" transform="translate(-100.627 -186.691)" fill="#88f5b4"/>
          <path id="Path_1226" data-name="Path 1226" d="M123.929,219.705c-1.371-4.68-5.862-7.756-10.028-6.872a6.529,6.529,0,0,0-1.8.676c-.46.253-1.885,1.235-2.164,1.416a8.074,8.074,0,0,0-2.787,9.108c1.371,4.68,5.853,7.756,10.019,6.872a6.61,6.61,0,0,0,2.155-.9c.334-.216,1.659-1.1,1.993-1.335C123.839,226.9,125.011,223.358,123.929,219.705Z" transform="translate(-100.627 -186.691)" opacity="0.3"/>
          <path id="Path_1227" data-name="Path 1227" d="M122.224,220.966c-1.371-4.671-5.862-7.746-10.028-6.863s-6.43,5.411-5.059,10.055,5.853,7.756,10.019,6.872S123.594,225.647,122.224,220.966Z" transform="translate(-100.625 -186.815)" fill="#88f5b4"/>
          <path id="Path_1228" data-name="Path 1228" d="M122.224,220.966c-1.371-4.671-5.862-7.746-10.028-6.863s-6.43,5.411-5.059,10.055,5.853,7.756,10.019,6.872S123.594,225.647,122.224,220.966Z" transform="translate(-100.625 -186.815)" opacity="0.1"/>
          <path id="Path_1229" data-name="Path 1229" d="M118.695,222.309a4.3,4.3,0,0,0-4.725-3.246c-1.966.415-3.039,2.543-2.39,4.753a4.34,4.34,0,0,0,4.725,3.237C118.271,226.683,119.344,224.509,118.695,222.309Z" transform="translate(-101.082 -187.31)" fill="#37474f"/>
        </g>
      </g>
      <g id="freepik--character-1--inject-9" transform="translate(252.627 92.262)">
        <g id="freepik--character--inject-9-2" data-name="freepik--character--inject-9">
          <path id="Path_1242" data-name="Path 1242" d="M322.968,396.53a7.042,7.042,0,0,0-.09,3.706c.352.739,2.57,3.192,7.1,4.076s10.759,0,13.437-.162,11.092.9,13.762,1.226c4.2.568,7.44-.352,9.018-1.876a2.8,2.8,0,0,0,.631-2.209,11.226,11.226,0,0,0-.451-2.994Z" transform="translate(-282.698 -128.945)" fill="#263238"/>
          <path id="Path_1243" data-name="Path 1243" d="M365.71,392.7c.081.352.153.694.225,1.055a17.621,17.621,0,0,1,.388,5.456,4.946,4.946,0,0,1-3.228,2.435c-3.156,1.01-5.573.848-9.081.18a64.2,64.2,0,0,0-10.65-.649c-2.76.18-6.556.712-9.316.46a22.411,22.411,0,0,1-6.863-1.4c-1.8-.794-3.724-1.8-4.166-3.7-.55-3.986,1.127-5.754,3.021-6.863s4.581-1.028,7.458-1.226c2.6-.171,4.509-.171,6.809-.352a33.073,33.073,0,0,0,5.952-.83c1.74-.55,3.535-2.769,4.275-2.85,0,0,11.579-.09,12.688,0,1.272.108,1.668,4.067,1.8,4.924.126.676.144,1.4.325,2.047C365.493,391.829,365.6,392.262,365.71,392.7Z" transform="translate(-282.722 -127.752)" fill="#37474f"/>
          <path id="Path_1244" data-name="Path 1244" d="M329.969,401.49c-.361-2.877-.839-9.108,4.455-12.706h.676a13.175,13.175,0,0,0-7.323,0c-4.238,1.127-6.114,4.554-5.059,8.17C322.719,396.918,323.665,400.417,329.969,401.49Z" transform="translate(-282.674 -128.133)" fill="#fafafa"/>
          <path id="Path_1245" data-name="Path 1245" d="M347.423,387.822c-1.713,1.515-2.309,4.969-2.309,4.969-.216,1.29-2.561,1.479-2.336.234a13.527,13.527,0,0,1,2.02-4.807A3.968,3.968,0,0,1,347.423,387.822Z" transform="translate(-284.671 -128.083)" fill="#fafafa"/>
          <path id="Path_1246" data-name="Path 1246" d="M342.123,388.458a8.341,8.341,0,0,0-2.408,4.707c-.234,1.235-2.191,1.217-2.056,0,0,0,.234-3.057,2.056-4.509A2.606,2.606,0,0,1,342.123,388.458Z" transform="translate(-284.169 -128.132)" fill="#fafafa"/>
          <path id="Path_1247" data-name="Path 1247" d="M376.24,355.59c-.171,2.029-.442,3.86.388,6.1,1.19,3.219,3.715,4.689,5.194,5.952a43.2,43.2,0,0,1,4.311,4.969c1.452,1.8,1.8,2.832,4.022,4.762a7.873,7.873,0,0,0,7.746,1.091c1.894-.8,2.543-1.443,2.426-4.347s-9.352-3.887-9.352-3.887Z" transform="translate(-287.94 -124.925)" fill="#263238"/>
          <path id="Path_1248" data-name="Path 1248" d="M399.193,365.1c.785.28.983,1.713,1.109,4.509.09,2.155,1.037,5.294-2.074,6.646-2.507,1.1-6.52.37-8.215-1.65-2.119-2.534-3.544-4.753-6.565-7.837-2.624-2.705-5.348-3.607-6.511-8.928-.749-3.436-.162-4.861,2.273-5.844,3.337-1.353,8.594,3.075,11.218,3.77C392.682,356.4,398.409,364.807,399.193,365.1Z" transform="translate(-287.997 -124.546)" fill="#37474f"/>
          <path id="Path_1249" data-name="Path 1249" d="M391.086,356.224a1.538,1.538,0,0,1-.451-.144,8.621,8.621,0,0,0-7.214,4.509c-.442.9.9,1.668,1.75.9,1.867-3.526,5.708-4.311,7.214-4.509a3.924,3.924,0,0,0-1.3-.758Z" transform="translate(-288.655 -124.973)" fill="#fafafa"/>
          <path id="Path_1250" data-name="Path 1250" d="M393.578,358a8.522,8.522,0,0,0-6.727,4.509c-.442.9.9,1.668,1.75.9a8.774,8.774,0,0,1,6.033-4.284C394.272,358.758,393.921,358.37,393.578,358Z" transform="translate(-288.992 -125.161)" fill="#fafafa"/>
          <path id="Path_1251" data-name="Path 1251" d="M378.428,361.787s.262-6.367,9.307-7.214l.514.28a7.7,7.7,0,0,0-4.446-3.265c-3-.776-5.411,0-6.962,1.9S376.868,360.542,378.428,361.787Z" transform="translate(-287.955 -124.502)" fill="#fafafa"/>
          <path id="Path_1252" data-name="Path 1252" d="M399.57,307.3c-.9-9.92-.965-16.512-.965-16.512s0-14.429.361-28.055c.2-7.575.063-12.715.189-18.7a95.593,95.593,0,0,0-1.578-19.84s-46.407-9.234-46.984,7.792c-.694,20.408-.613,55.29-1.4,68.618-.442,7.485.316,13.68.785,28.217.388,12.048.271,41.717.271,41.717,5.113,7.016,17.179,1.668,17.179,1.668s3.733-41.645,4.275-50.258c.586-9.253-.388-13.942-.388-13.942l4.789-43.115s.361,13.834.776,21.319,1.028,13.32,2.787,27.225c1.8,14.564,4.762,40.951,4.762,40.951,6.186,3.679,13.392.73,13.392.73S400.508,317.813,399.57,307.3Z" transform="translate(-285.29 -111.776)" fill="#88f5b4"/>
          <path id="Path_1253" data-name="Path 1253" d="M399.57,307.3c-.9-9.92-.965-16.512-.965-16.512s0-14.429.361-28.055c.2-7.575.063-12.715.189-18.7a95.593,95.593,0,0,0-1.578-19.84s-46.407-9.234-46.984,7.792c-.694,20.408-.613,55.29-1.4,68.618-.442,7.485.316,13.68.785,28.217.388,12.048.271,41.717.271,41.717,5.113,7.016,17.179,1.668,17.179,1.668s3.733-41.645,4.275-50.258c.586-9.253-.388-13.942-.388-13.942l4.789-43.115s.361,13.834.776,21.319,1.028,13.32,2.787,27.225c1.8,14.564,4.762,40.951,4.762,40.951,6.186,3.679,13.392.73,13.392.73S400.508,317.813,399.57,307.3Z" transform="translate(-285.29 -111.776)" opacity="0.4"/>
          <path id="Path_1254" data-name="Path 1254" d="M396.138,250.57s-1.894,6.935-13.392,11.588c0,0-3.12,25.106-3.093,24.583l-.613-19.01,1.046-7.972S390.872,257.478,396.138,250.57Z" transform="translate(-288.233 -114.612)" opacity="0.25"/>
          <path id="Path_1255" data-name="Path 1255" d="M397.018,156.81c4.635,0,8.811,1.371,12.508,12.887s6.89,26.576,7.214,30.3c.4,4.834.144,6.917-3.607,10.425s-13.527,11.841-13.527,11.841l-3.247-13.789L403.881,200Z" transform="translate(-289.934 -105.405)" fill="#88f5b4"/>
          <path id="Path_1256" data-name="Path 1256" d="M397.018,156.81c4.635,0,8.811,1.371,12.508,12.887s6.89,26.576,7.214,30.3c.4,4.834.144,6.917-3.607,10.425s-13.527,11.841-13.527,11.841l-3.247-13.789L403.881,200Z" transform="translate(-289.934 -105.405)" fill="#fff" opacity="0.6"/>
          <path id="Path_1257" data-name="Path 1257" d="M371.15,151.254l1.813,16.061,14.934-3.391-1.93-21.454Z" transform="translate(-287.459 -103.997)" fill="#b16668"/>
          <path id="Path_1258" data-name="Path 1258" d="M358.311,130.39s-3.986,6.051-3.535,6.637,3.391,1.136,3.391,1.136Z" transform="translate(-285.847 -102.811)" fill="#9a4a4d"/>
          <path id="Path_1259" data-name="Path 1259" d="M360.169,133.368a4.509,4.509,0,1,1,4.509-4.509,4.509,4.509,0,0,1-4.509,4.509Zm0-8.017a3.508,3.508,0,1,0,3.508,3.508,3.508,3.508,0,0,0-3.508-3.508Z" transform="translate(-285.937 -102.218)" fill="#263238"/>
          <path id="Path_1260" data-name="Path 1260" d="M369.768,112.686c-7.665,1.614-10.416,4.68-11.137,16.855-.758,12.724,1.082,17.026,2.75,18.739,1.127,1.163,7.395,1.371,10.56.5,3.959-1.091,12.9-4.266,17.134-10.659,4.933-7.53,6.222-17.738.947-21.923C382.529,110.3,372.852,111.992,369.768,112.686Z" transform="translate(-286.212 -100.997)" fill="#b16668"/>
          <path id="Path_1261" data-name="Path 1261" d="M370.365,152.935,370,150.59a15.177,15.177,0,0,1-7.855,1.8C363.611,153.088,367.426,153.3,370.365,152.935Z" transform="translate(-286.575 -104.794)" fill="#9a4a4d"/>
          <path id="Path_1262" data-name="Path 1262" d="M356.51,128.44l13.635,1.768-.55.956-13.085-1.7Z" transform="translate(-286.021 -102.619)" fill="#263238"/>
          <path id="Path_1263" data-name="Path 1263" d="M357.436,116.412a3.8,3.8,0,0,0,1.732-.108,2.705,2.705,0,0,0,.9,3.192,3.851,3.851,0,0,0,3.436.46,3.346,3.346,0,0,0-.379,2.372,3.833,3.833,0,0,0,3.968,2.859c.081,1.8.108,3.526,2.011,4.338,0,0,1.208-4.707,5.176-4.112s4.509,5.681,2.011,8.775-4.825,1.921-4.861,1.9a8.251,8.251,0,0,0,.631,2.245,9.154,9.154,0,0,0,3.355,3.7,18.1,18.1,0,0,0,9.55,2.588c1.244-3.607,3.292-6.313,5.456-9.469,1.7-2.471,3.869-5.285,4.725-8.161a16.106,16.106,0,0,0,.1-9.586c-.947-2.85-2.056-5.014-5.158-5.781-.7-3.815-4.509-5.826-7.972-7.575a12.824,12.824,0,0,0-11.218-.09c-1.281-1.353-2.291-2.976-4.067-3.761a3.7,3.7,0,0,0-4.347.776,5.5,5.5,0,0,0-.685,3.652,8.558,8.558,0,0,0-4.374.379,4.509,4.509,0,0,0-2.814,3.183,3.12,3.12,0,0,0,1.957,3.535,2.705,2.705,0,0,0-.992,3.1A2.336,2.336,0,0,0,357.436,116.412Z" transform="translate(-285.829 -99.808)" fill="#263238"/>
          <path id="Path_1264" data-name="Path 1264" d="M370.3,135.144l.135-5.321a2.705,2.705,0,1,0-.135,5.321Z" transform="translate(-287.068 -102.749)" fill="#263238"/>
          <path id="Path_1265" data-name="Path 1265" d="M399.953,164.056c-1.614-4.121-5.1-7.674-10.758-7.846h-4.139c-.64,2.624-10.6,3.472-15.331,1.8-2.065.541-12.093,3.156-13.816,3.733-4.924,1.632-4.987,7.909-4.96,22.482,0,13.581,0,29.705-.74,46.7,8.657,4.563,21.228,5.735,30.751,4.771,14.952-1.506,18.55-5.979,18.55-5.979a214.011,214.011,0,0,1-.541-23.528c.18-6.529,1.56-14.51,2.047-21.571S401.469,167.906,399.953,164.056Z" transform="translate(-285.402 -105.346)" fill="#88f5b4"/>
          <path id="Path_1266" data-name="Path 1266" d="M399.953,164.056c-1.614-4.121-5.1-7.674-10.758-7.846h-4.139c-.64,2.624-10.6,3.472-15.331,1.8-2.065.541-12.093,3.156-13.816,3.733-4.924,1.632-4.987,7.909-4.96,22.482,0,13.581,0,29.705-.74,46.7,8.657,4.563,21.228,5.735,30.751,4.771,14.952-1.506,18.55-5.979,18.55-5.979a214.011,214.011,0,0,1-.541-23.528c.18-6.529,1.56-14.51,2.047-21.571S401.469,167.906,399.953,164.056Z" transform="translate(-285.402 -105.346)" fill="#fff" opacity="0.3"/>
          <path id="Path_1267" data-name="Path 1267" d="M296.837,138.863c-.839-1.912.117-5.032.478-6.43.6-2.309.243-5.492.388-6.421.352-2.381-1.244-2.859-2.426-1.272-1.073,1.434-1.073,4.572-1.876,4.771s-3.111-5.925-4.32-9.5-1.515-5.853-3.5-5.411c-1.434.325-1.362,2.173-.658,5.1a31.281,31.281,0,0,1,.9,3.851c0,.487-.712.559-1.037.667-.613.216-1.668.541-1.984,1.136a5.331,5.331,0,0,1-.487.992c-.523.658-1.6.631-2.155,1.254-.415.451-.451,1.127-.785,1.641-.216.325-.55.568-.758.9a2.706,2.706,0,0,0-.063,2.236,18.749,18.749,0,0,0,3.77,6.313c1.353,1.7,3.481,4.464,4.257,5.681,2.579,4.04,12.093,19.488,16.792,25.566a7,7,0,0,0,4.04,3.057c5.411,1.443,38.417,4.3,38.417,4.3,9.559.2,12.887-17.224,4.734-18.09,0,0-6.619-.162-14.546-.225-8.477-.081-22.68-.442-22.68-.442S297.5,140.378,296.837,138.863Z" transform="translate(-278.345 -101.255)" fill="#b16668"/>
          <path id="Path_1268" data-name="Path 1268" d="M352.428,160.889c-4.9-.189-37.181.081-37.181.081L301.809,146.65a13.094,13.094,0,0,1-9.739,7.485s5.844,10.659,9.2,15.556c3.084,4.509,3.824,6.809,8.6,7.737s35.053,4.4,37.677,4.311,6.926-.55,9.649-8.206C359.57,166.805,357.388,161.088,352.428,160.889Z" transform="translate(-279.693 -104.407)" fill="#88f5b4"/>
          <path id="Path_1269" data-name="Path 1269" d="M352.428,160.889c-4.9-.189-37.181.081-37.181.081L301.809,146.65a13.094,13.094,0,0,1-9.739,7.485s5.844,10.659,9.2,15.556c3.084,4.509,3.824,6.809,8.6,7.737s35.053,4.4,37.677,4.311,6.926-.55,9.649-8.206C359.57,166.805,357.388,161.088,352.428,160.889Z" transform="translate(-279.693 -104.407)" fill="#fff" opacity="0.6"/>
        </g>
      </g>
    </g>
  </g>
</svg>
