<svg id="Component_5_3" data-name="Component 5 – 3" xmlns="http://www.w3.org/2000/svg" width="131" height="131" viewBox="0 0 131 131">
  <circle id="Ellipse_150" data-name="Ellipse 150" cx="65.5" cy="65.5" r="65.5" fill="#8effbb"/>
  <path id="icons8-international-music" d="M34.5,2A29.918,29.918,0,0,0,4.717,29.6H4.6A4.6,4.6,0,0,0,0,34.2v6.9a4.588,4.588,0,0,0,9.151.5,2.3,2.3,0,0,0,.049-.5V31.9a25.3,25.3,0,1,1,50.6,0v9.2a2.3,2.3,0,0,0,.049.5A4.588,4.588,0,0,0,69,41.1V34.2a4.6,4.6,0,0,0-4.6-4.6h-.117A29.918,29.918,0,0,0,34.5,2Zm0,11.5a23,23,0,1,0,23,23A23.035,23.035,0,0,0,34.5,13.5Zm-1.887,4.694h0v3.252H28.853V18.985A18.338,18.338,0,0,1,32.613,18.194Zm3.764,0A18.3,18.3,0,0,1,44.7,21.177l-.791.27v1.887H42.029l-1.882,1.882v3.76l3.764-1.882,5.647,1.882L47.676,32.74l-3.764-1.882H40.147l-3.76,3.764v3.76l3.76,3.764h3.764l1.882,3.764-3.666,7.331A18.374,18.374,0,0,1,34.5,54.9a18.606,18.606,0,0,1-2.556-.2L28.79,51.621l.067-7.592-5.647-5.646H17.564V34.618l9.407-5.647v-3.76h3.764l1.882,1.878,3.76-1.878Z" transform="translate(31 34.75)" fill="#171717"/>
</svg>
