<svg xmlns="http://www.w3.org/2000/svg" width="24.953" height="24.953" viewBox="0 0 24.953 24.953">
  <path id="icons8-twitter-circled" d="M14.477,2A12.477,12.477,0,1,0,26.953,14.477,12.49,12.49,0,0,0,14.477,2Zm6.1,10.049c.005.128.009.258.009.389a8.546,8.546,0,0,1-13.156,7.2,6.074,6.074,0,0,0,4.448-1.244,3.011,3.011,0,0,1-2.807-2.087,3,3,0,0,0,1.357-.052,3.007,3.007,0,0,1-2.409-2.947v-.038a2.993,2.993,0,0,0,1.361.376,3.01,3.01,0,0,1-.93-4.013,8.536,8.536,0,0,0,6.194,3.14,3.006,3.006,0,0,1,5.119-2.741A6.024,6.024,0,0,0,21.666,9.3a3.014,3.014,0,0,1-1.322,1.662,6.043,6.043,0,0,0,1.727-.474A6.11,6.11,0,0,1,20.572,12.049Z" transform="translate(-2 -2)" fill="#fff"/>
</svg>
