<svg xmlns="http://www.w3.org/2000/svg" width="42.782" height="40.785" viewBox="0 0 42.782 40.785">
  <g id="Component_7_1" data-name="Component 7 – 1" transform="translate(0.5 0.5)">
    <path id="Path_741" data-name="Path 741" d="M5694.688,5445.392l10.24-10.24h31.542v30.5l-9.287,9.287h-32.5Z" transform="translate(-5694.688 -5435.151)" fill="#171717" stroke="#7a7a7a" stroke-width="1"/>
    <g id="Component_6_1" data-name="Component 6 – 1" transform="translate(12.54 14.325)">
      <g id="Group_2" data-name="Group 2" transform="translate(0 11.135) rotate(-90)">
        <path id="Path_704" data-name="Path 704" d="M5.567,6.5a.842.842,0,0,1-.65-.278L.278,1.577a.9.9,0,0,1,0-1.3.9.9,0,0,1,1.3,0L6.217,4.918a.9.9,0,0,1,0,1.3.842.842,0,0,1-.65.278Z" transform="translate(4.639)" fill="#7a7a7a"/>
        <path id="Path_705" data-name="Path 705" d="M.928,6.5a.842.842,0,0,1-.65-.278.9.9,0,0,1,0-1.3L4.918.278a.9.9,0,0,1,1.3,0,.9.9,0,0,1,0,1.3L1.577,6.217A.842.842,0,0,1,.928,6.5Z" transform="translate(0 0)" fill="#7a7a7a"/>
        <path id="Path_706" data-name="Path 706" d="M.928,16.7A.877.877,0,0,1,0,15.774V.928A.877.877,0,0,1,.928,0a.877.877,0,0,1,.928.928V15.774A.877.877,0,0,1,.928,16.7Z" transform="translate(4.639 0)" fill="#7a7a7a"/>
      </g>
    </g>
  </g>
</svg>
