<svg id="Component_5_3" data-name="Component 5 – 3" xmlns="http://www.w3.org/2000/svg" width="41.782" height="39.785" viewBox="0 0 41.782 39.785">
  <path id="Path_742" data-name="Path 742" d="M5736.471,5445.392l-10.24-10.24h-31.542v30.5l9.287,9.287h32.5Z" transform="translate(-5694.688 -5435.151)" fill="#88f5b4"/>
  <g id="Group_5" data-name="Group 5" transform="translate(12.54 25.46) rotate(-90)">
    <path id="Path_704" data-name="Path 704" d="M5.567,0a.842.842,0,0,0-.65.278L.278,4.918a.9.9,0,0,0,0,1.3.9.9,0,0,0,1.3,0L6.217,1.577a.9.9,0,0,0,0-1.3A.842.842,0,0,0,5.567,0Z" transform="translate(4.639 10.207)" fill="#171717"/>
    <path id="Path_705" data-name="Path 705" d="M.928,0a.842.842,0,0,0-.65.278.9.9,0,0,0,0,1.3L4.918,6.217a.919.919,0,0,0,1.3-1.3L1.577.278A.842.842,0,0,0,.928,0Z" transform="translate(0 10.207)" fill="#171717"/>
    <path id="Path_706" data-name="Path 706" d="M.928,0A.877.877,0,0,0,0,.928V15.774a.877.877,0,0,0,.928.928.877.877,0,0,0,.928-.928V.928A.877.877,0,0,0,.928,0Z" transform="translate(4.639 0)" fill="#171717"/>
  </g>
</svg>
