<svg id="Component_6_1" data-name="Component 6 – 1" xmlns="http://www.w3.org/2000/svg" width="83" height="83" viewBox="0 0 83 83">
  <circle id="Ellipse_151" data-name="Ellipse 151" cx="41.5" cy="41.5" r="41.5" fill="#8ecaff"/>
  <path id="icons8-sound-cloud" d="M37,16.878c.007-.162.024-.322.024-.487a11.385,11.385,0,0,0-21.533-5.167,7.072,7.072,0,0,0-9.695,5.628A8.539,8.539,0,0,0,8.543,33.477H34.172A8.539,8.539,0,0,0,37,16.878Zm-9.943-.118a.444.444,0,0,1-.356.434l-3.916,1.172v6.82c0,2.114-.722,4.019-3.228,4.019a2.38,2.38,0,0,1-2.467-2.366c0-3.708,4.271-2.4,4.271-4.172V16.055a1.425,1.425,0,0,1,1.049-1.374l4.138-1.129a.425.425,0,0,1,.508.417Z" transform="translate(20.087 20.861)" fill="#171717"/>
</svg>
