<svg xmlns="http://www.w3.org/2000/svg" width="820" height="820" viewBox="0 0 820 820">
  <g id="Group_25" data-name="Group 25" transform="translate(-981 -3237)">
    <g id="Ellipse_158" data-name="Ellipse 158" transform="translate(981 3237)" fill="#171717" stroke="#8effbb" stroke-linecap="round" stroke-width="3" stroke-dasharray="20">
      <circle cx="410" cy="410" r="410" stroke="none"/>
      <circle cx="410" cy="410" r="408.5" fill="none"/>
    </g>
    <circle id="Ellipse_161" data-name="Ellipse 161" cx="343.5" cy="343.5" r="343.5" transform="translate(1048 3303)" fill="#2e3240"/>
    <g id="Cassette_player-amico_2_" data-name="Cassette player-amico (2)" transform="translate(1141.5 3466.053)">
      <g id="freepik--Floor--inject-50">
        <ellipse id="freepik--floor--inject-50-2" data-name="freepik--floor--inject-50" cx="243.72" cy="140.71" rx="243.72" ry="140.71" transform="translate(6.28 201.33)" fill="#171717"/>
      </g>
      <g id="freepik--Shadows--inject-50">
        <path id="freepik--Shadow--inject-50" d="M469,366.31,233.25,230.07v3.22L467.59,368.73a6.05,6.05,0,0,1,0,10.49l-2.46,1.42a9.33,9.33,0,0,0-2.74-2.56,3.52,3.52,0,0,0-3.55-.35l-23.08,13.49a3.52,3.52,0,0,0-1.49,3.27,9.42,9.42,0,0,0,.77,3.5l-2.37,1.36-.25.14-.27.17-5.1,2.94A69.54,69.54,0,0,1,373,407.46c-20-6.32-52.83-21-70.84-40.69a16.08,16.08,0,0,0,7.29-10.42c2-9.93,2.68-25.61-10.63-33.29L262,301.85a5.39,5.39,0,0,0,.87-3.8c-.18-1.18-1-4-5.29-5a14.459,14.459,0,0,0-5.24-.2l-3.58.5-18-10.39-1.4.81C207,271.51,178,264.8,147.18,264.8c-31.95,0-62.06,7.23-84.78,20.35-23.58,13.62-36.57,32-36.58,51.82,0,17.7,10.37,34.28,29.4,47.33l-1.64.94,20.73,12A7,7,0,0,0,84.67,405l7.45-4.3c5.43,2.47,50.4,22.79,68.51,25.55,19.3,2.93,28.44-2.35,28.44-2.35l4.67-2.87c25.08,13.37,67.39,31.46,112.61,31.46,23.93,0,48.67-5.07,72.09-18.59L428,405.26c1.89-1,3.74-2.05,5.57-3.21l.63-.36,2.21-1.21a9.741,9.741,0,0,0,2.88,2.72,3.53,3.53,0,0,0,3.56.35L466,390.06a3.52,3.52,0,0,0,1.49-3.27,7.232,7.232,0,0,0-.08-1,.908.908,0,0,0-.07-.42,2.371,2.371,0,0,1-.11-.46,10.1,10.1,0,0,0-.63-1.85l2.44-1.41a8.84,8.84,0,0,0,0-15.32Zm-92,65.16c-65.66,37.91-142.16,8-180.54-12.15l1.82-1.12a7.41,7.41,0,0,0-.08-12.68L171,389.26a31.54,31.54,0,0,0-34.3,1.27L116,405.12l-18.88-7.3,7.55-4.36-30.13-17.4-3.67-2c-18.07-10.45-28-23.63-28-37.1s10-26.68,28.1-37.13c20.26-11.71,47.35-18.15,76.28-18.15,27.14,0,53,5.76,72.81,16.23L245,312.39l11.55-6.66,23.88,13.79-22.34,12.9h0a16.25,16.25,0,0,0,0,28.14l17.66,10.19a16.2,16.2,0,0,0,14,1.09l9.61-3.7.22-.09c18.33,20.39,51.8,35.53,72.56,42.06a74.1,74.1,0,0,0,22.35,3.49,71.34,71.34,0,0,0,17.16-2.1Z" fill="#e0e0e0"/>
        <path id="freepik--shadow--inject-50-2" data-name="freepik--shadow--inject-50" d="M131.93,278.63l-36,20.8c-2.39,1.38-2.39,3.62,0,5L201,365.1a9.57,9.57,0,0,0,8.66,0l36-20.8c2.39-1.38,2.39-3.62,0-5L140.59,278.63A9.57,9.57,0,0,0,131.93,278.63Z" fill="#e0e0e0"/>
        <path id="freepik--shadow--inject-50-3" data-name="freepik--shadow--inject-50" d="M455.16,288.51l-101-58.3a10.58,10.58,0,0,0-5.25-1.36A9.28,9.28,0,0,0,344.3,230l-61.8,35.68c-.18.1-.34.2-.5.31l-.22.15-.19.16-.31.27a7.65,7.65,0,0,0-.57.57,6.27,6.27,0,0,0-1.3,2.33,5.938,5.938,0,0,0-.27,1.77,7,7,0,0,0,3.7,5.93l101,58.29a10.65,10.65,0,0,0,5.26,1.36,9.231,9.231,0,0,0,4.62-1.15L455.56,300a6.46,6.46,0,0,0,3.3-5.53,7,7,0,0,0-3.7-5.96Z" fill="#e0e0e0"/>
      </g>
      <g id="freepik--device-1--inject-50">
        <g id="freepik--Headphones--inject-50">
          <path id="Path_752" data-name="Path 752" d="M473.41,366.05A8.73,8.73,0,0,1,469,373.7l-14.61,8.44-1.4-2.42,14.63-8.43a6.05,6.05,0,0,0,0-10.49L238.92,228.64V227l-5.67-3.26v-1.6L469,358.38A8.79,8.79,0,0,1,473.41,366.05Z" fill="#37474f"/>
          <path id="Path_753" data-name="Path 753" d="M200.7,176.1V120l-2.78-1.6v59.27A47.2,47.2,0,0,0,221.5,218.528l75.5,43.6,1-2.58L224.28,217a47.21,47.21,0,0,1-23.58-40.9Z" fill="#37474f"/>
          <path id="Path_754" data-name="Path 754" d="M229.45,268.27C184,242,110.34,242,64.9,268.27c-22.69,13.1-34.05,30.26-34.07,47.44V335.3c0,17.2,11.35,34.4,34.07,47.53l7.09-4.1V359.17l-3.61-1.93c-15.48-8.95-25.48-19.95-29.07-31.69,3.59-11.75,13.59-22.76,29.07-31.69,42.28-24.42,110.35-25.08,154-2l7-4.06Z" fill="#88f5b4"/>
          <path id="Path_755" data-name="Path 755" d="M229.45,268.27C184,242,110.34,242,64.9,268.27c-22.69,13.1-34.05,30.26-34.07,47.44V335.3c0,17.2,11.35,34.4,34.07,47.53l7.09-4.1V359.17l-3.61-1.93c-15.48-8.95-25.48-19.95-29.07-31.69,3.59-11.75,13.59-22.76,29.07-31.69,42.28-24.42,110.35-25.08,154-2l7-4.06Z" opacity="0.15"/>
          <path id="Path_756" data-name="Path 756" d="M64.9,268.27c-45.44,26.23-45.44,68.76,0,95l7.09-4.1-3.61-1.93c-19.72-11.4-30.59-26.12-30.59-41.47s10.87-30.09,30.59-41.47c42.28-24.42,110.35-25.07,154-2l7-4.07C184,242,110.34,242,64.9,268.27Z" fill="#88f5b4"/>
          <path id="Path_757" data-name="Path 757" d="M64.9,363.27l7.09-4.1v19.56l-7.09,4.1Z" opacity="0.15"/>
          <path id="Path_758" data-name="Path 758" d="M222.4,272.34l7.05-4.07v19.56l-7.05,4.06Z" opacity="0.15"/>
          <path id="Path_759" data-name="Path 759" d="M71.99,359.17l-8.41,4.86L86.22,377.1l8.4-4.86Z" fill="#455a64"/>
          <path id="Path_760" data-name="Path 760" d="M63.58,383.63v-19.6L86.22,377.1v19.6Z" fill="#37474f"/>
          <path id="Path_761" data-name="Path 761" d="M94.62,372.24v19.6l-8.4,4.86-.01-19.6Z" fill="#263238"/>
          <path id="Path_762" data-name="Path 762" d="M80.56,373.83l-1.29,3.05a2,2,0,0,0-.14.84h0v19.5h0a2,2,0,0,0,3,1.81l4-2.33V377.1Z" fill="#263238"/>
          <path id="Path_763" data-name="Path 763" d="M86.21,377.1l-4,2.33a2,2,0,0,1-2.69-.59h0a2,2,0,0,1-.21-2l1.29-3.05Z" fill="#455a64"/>
          <path id="Path_764" data-name="Path 764" d="M92.3,375.51v15.75l-3.76,2.17V377.68Z"/>
          <path id="Path_765" data-name="Path 765" d="M258,277.5h0c-.1-.32-.6-.63-1.46-.84a9.85,9.85,0,0,0-3.4-.12l-5.28.74V297.1h.38l5.28,3,4-2.34c.39-.22.52-.47.44-.71h0Z" fill="#263238"/>
          <path id="Path_766" data-name="Path 766" d="M230.81,267.48l-8.41,4.86,22.63,13.06,8.41-4.85Z" fill="#455a64"/>
          <path id="Path_767" data-name="Path 767" d="M222.4,291.94v-19.6l22.63,13.06V305Z" fill="#37474f"/>
          <path id="Path_768" data-name="Path 768" d="M253.44,280.55v19.6L245.03,305V285.4Z" fill="#263238"/>
          <path id="Path_769" data-name="Path 769" d="M253.44,280.55l4.05-2.34c.92-.53.47-1.2-1-1.55h0a9.85,9.85,0,0,0-3.4-.12l-5.28.74Z" fill="#455a64"/>
          <path id="Path_770" data-name="Path 770" d="M252.22,283.19v15.74l-3.75,2.17V285.35Z"/>
          <path id="Path_771" data-name="Path 771" d="M89.55,378.77v11.07l29.41,10.66V389.44Z" fill="#ebebeb"/>
          <path id="Path_772" data-name="Path 772" d="M250.4,286.31v11.07l23.32,27.12V313.44Z" fill="#e0e0e0"/>
          <path id="Path_773" data-name="Path 773" d="M63.58,368.21A149.129,149.129,0,0,1,38,353.14V364.2a148.48,148.48,0,0,0,25.54,15.07h0Z" fill="#ebebeb"/>
          <path id="Path_774" data-name="Path 774" d="M198,384.85c-4.34-16.19-21-32.9-37.24-37.24a24.67,24.67,0,0,0-12.83-.41,14.72,14.72,0,0,0-6.8,3.84c-1,1-10.55,10.52-11.6,11.59-4.25,4.3-5.59,11.31-3.37,19.58,4.34,16.19,21,32.9,37.24,37.24a24.79,24.79,0,0,0,12.83.42A14.841,14.841,0,0,0,183,416c1-1,10.48-10.46,11.53-11.51C198.82,400.18,200.17,393.15,198,384.85Z" fill="#88f5b4"/>
          <path id="Path_775" data-name="Path 775" d="M176.18,419.87a24.79,24.79,0,0,1-12.83-.42c-16.19-4.34-32.9-21.05-37.24-37.24-3.15-11.74.86-20.95,10.21-23.45a24.67,24.67,0,0,1,12.83.41c16.19,4.34,32.9,21.05,37.24,37.24C189.54,408.16,185.53,417.36,176.18,419.87Z" opacity="0.15"/>
          <path id="Path_776" data-name="Path 776" d="M148.52,369.41c-12.12-3.24-19.16,3.65-16,15.79l.06.23a3.44,3.44,0,0,1-4.67,4.06l-12.58-5.39-4.58,4.58,7.5,6.32s24.48,13.58,41.94,18c.48.13.95.23,1.41.33a14.53,14.53,0,0,0,4.08.44c8.6,0,13.16-6.65,10.46-16.72C172.92,385,160.55,372.64,148.52,369.41Z" fill="#fafafa"/>
          <path id="Path_777" data-name="Path 777" d="M148.73,369.2c-6.09-1.63-10.92-.61-13.8,2.37-1.24,1.28-3.3,3.34-4.58,4.58-3,2.87-4,7.71-2.37,13.8v.07a3.41,3.41,0,0,1-4.62,4.08l-12.64-5.42,2.92,10.91s24.48,13.57,41.94,18c.48.13.94.24,1.4.33a14.339,14.339,0,0,0,4.1.44c4.14,0,7.34-1.55,9.24-4.28a11,11,0,0,1,2.64-2.59c3.73-2.71,5.17-7.91,3.37-14.64C173.13,384.79,160.77,372.42,148.73,369.2Z" fill="#fafafa"/>
          <path id="Path_778" data-name="Path 778" d="M143.93,374c-12.11-3.25-19.16,3.64-16,15.78l.06.23a3.43,3.43,0,0,1-4.67,4.06l-12.58-5.39,2.92,10.91s24.48,13.57,41.94,18c.48.13.94.24,1.41.33a14.1,14.1,0,0,0,4.07.44c8.61,0,13.17-6.65,10.47-16.72C168.34,389.59,156,377.22,143.93,374Z" fill="#ebebeb"/>
          <path id="Path_779" data-name="Path 779" d="M166.43,401.91c-2.67-10-12.89-20.17-22.84-22.84-5-1.33-9-.52-11.34,1.89l-1.95,1.94c-2.4,2.39-3.22,6.36-1.88,11.34,2.66,9.95,12.89,20.18,22.83,22.84,5,1.34,8.95.52,11.34-1.88l2-2C167,410.84,167.76,406.88,166.43,401.91Z" fill="#fafafa"/>
          <path id="Path_780" data-name="Path 780" d="M141.6,381.06c10,2.66,20.17,12.89,22.84,22.84s-3.24,15.85-13.19,13.18-20.17-12.89-22.83-22.84S131.65,378.39,141.6,381.06Z" fill="#f0f0f0"/>
          <path id="Path_781" data-name="Path 781" d="M314.65,334c2.66-9.95-1.08-23.92-8.36-31.2-3.65-3.65-7.5-4.93-10.77-4l-2.65.71c-3.27.87-6,3.9-7.31,8.88-2.66,9.95,1.08,23.92,8.36,31.2,3.65,3.65,7.5,4.93,10.76,4l2.7-.72C310.64,342,313.32,339,314.65,334Z" fill="#e0e0e0"/>
          <path id="Path_782" data-name="Path 782" d="M303.58,303.56c7.28,7.28,11,21.25,8.35,31.19s-10.72,12.11-18,4.83-11-21.25-8.36-31.2S296.29,296.28,303.58,303.56Z" fill="#f0f0f0"/>
          <path id="Path_783" data-name="Path 783" d="M302.66,300.27c-8.87-8.87-18.42-6.42-21.74,5.68l-.06.22a3.45,3.45,0,0,1-6.09,1.19l-8.19-11-6.26,1.68,3.34,9.23s14.41,24,27.32,36.55c.35.35.7.67,1.06,1a14.481,14.481,0,0,0,3.31,2.42c7.46,4.29,14.72.82,17.42-9.25C316,326,311.47,309.08,302.66,300.27Z" fill="#fafafa"/>
          <path id="Path_784" data-name="Path 784" d="M303,300.2c-4.46-4.46-9.16-6-13.13-4.85-1.72.49-4.53,1.24-6.26,1.67-4,1-7.32,4.68-8.95,10.77v.07a3.4,3.4,0,0,1-6,1.23l-8.24-11L257.39,309s14.41,24,27.33,36.55c.35.35.7.67,1,1a14.419,14.419,0,0,0,3.33,2.43c3.59,2.06,7.14,2.33,10.15.91a11.259,11.259,0,0,1,3.57-.92c4.59-.48,8.44-4.26,10.24-11C316.29,325.9,311.76,309,303,300.2Z" fill="#fafafa"/>
          <path id="Path_785" data-name="Path 785" d="M296.4,302c-8.87-8.87-18.42-6.42-21.74,5.67a1.547,1.547,0,0,1-.07.23,3.44,3.44,0,0,1-6.08,1.18l-8.19-11L257.39,309s14.41,24,27.33,36.55c.35.35.7.67,1.06,1a13.689,13.689,0,0,0,3.31,2.42c7.46,4.29,14.72.82,17.42-9.24C309.74,327.66,305.21,310.76,296.4,302Z" fill="#ebebeb"/>
          <g id="freepik--Plug--inject-50">
            <path id="Path_786" data-name="Path 786" d="M313.6,332.28a2.61,2.61,0,0,0-2.41-1.09,8.21,8.21,0,0,0-6.45,3.72,2.58,2.58,0,0,0-.25,2.64l3,5.26,9.11-5.28Z" fill="#37474f"/>
            <path id="Path_787" data-name="Path 787" d="M306.26,333.18a6.64,6.64,0,0,0-1.52,1.73,2.58,2.58,0,0,0-.25,2.64l3,5.26,3.22-1.86Z" opacity="0.1"/>
            <path id="Path_788" data-name="Path 788" d="M307.79,340.18a8.22,8.22,0,0,1,6.44-3.72,2.27,2.27,0,0,1,2.15,3.72,8.21,8.21,0,0,1-6.45,3.72,2.26,2.26,0,0,1-2.14-3.72Z" fill="#455a64"/>
            <path id="Path_789" data-name="Path 789" d="M315.88,338.83a2,2,0,0,0-1.82-.82,6.19,6.19,0,0,0-4.86,2.8,2,2,0,0,0-.19,2l2.11,3.65,6.87-4Z" fill="#37474f"/>
            <path id="Path_790" data-name="Path 790" d="M310.34,339.51a5.131,5.131,0,0,0-1.14,1.3,2,2,0,0,0-.19,2l2.11,3.65,2.43-1.4Z" opacity="0.1"/>
            <path id="Path_791" data-name="Path 791" d="M311.32,344.48a6.2,6.2,0,0,1,4.86-2.81,1.712,1.712,0,0,1,1.62,2.81,6.21,6.21,0,0,1-4.86,2.81,1.71,1.71,0,0,1-1.62-2.81Z" fill="#455a64"/>
          </g>
          <path id="Path_792" data-name="Path 792" d="M310.76,345.61c4.34-16.2-1.78-39-13.63-50.88a24.75,24.75,0,0,0-10.9-6.77,14.84,14.84,0,0,0-7.82-.07c-1.41.39-14.39,3.84-15.84,4.24-5.83,1.6-10.49,7-12.7,15.27-4.34,16.19,1.77,39,13.63,50.87A24.75,24.75,0,0,0,274.4,365a14.78,14.78,0,0,0,7.86.06c1.4-.39,14.3-3.82,15.74-4.21C303.85,359.31,308.54,353.9,310.76,345.61Z" fill="#88f5b4"/>
          <path id="Path_793" data-name="Path 793" d="M274.4,365a24.75,24.75,0,0,1-10.9-6.77c-11.86-11.86-18-34.68-13.63-50.87,3.14-11.75,11.22-17.71,20.57-15.21a24.8,24.8,0,0,1,10.9,6.77c11.85,11.86,18,34.68,13.63,50.88C291.82,361.58,283.75,367.55,274.4,365Z" opacity="0.15"/>
          <g id="freepik--plug--inject-50-2" data-name="freepik--plug--inject-50">
            <path id="Path_794" data-name="Path 794" d="M176.21,398.79a2.61,2.61,0,0,0-2.47.93,8.24,8.24,0,0,0-1.93,7.19,2.59,2.59,0,0,0,1.7,2l5.86,1.57,2.7-10.17Z" fill="#37474f"/>
            <path id="Path_795" data-name="Path 795" d="M171.66,404.61a6.69,6.69,0,0,0,.15,2.3,2.59,2.59,0,0,0,1.7,2l5.86,1.57,1-3.59Z" opacity="0.1"/>
            <path id="Path_796" data-name="Path 796" d="M177.69,408.49a8.24,8.24,0,0,1,1.93-7.19,2.63,2.63,0,0,1,2.45-.94,2.58,2.58,0,0,1,1.7,2.05,8.21,8.21,0,0,1-1.93,7.19,2.27,2.27,0,0,1-4.15-1.11Z" fill="#455a64"/>
            <path id="Path_797" data-name="Path 797" d="M182.46,401.81a2,2,0,0,0-1.87.7,6.24,6.24,0,0,0-1.45,5.42,2,2,0,0,0,1.28,1.55l4.07,1.09,2-7.67Z" fill="#37474f"/>
            <path id="Path_798" data-name="Path 798" d="M179,406.2a5.15,5.15,0,0,0,.12,1.73,2,2,0,0,0,1.28,1.55l4.07,1.09.72-2.71Z" opacity="0.1"/>
            <path id="Path_799" data-name="Path 799" d="M183.23,409a6.22,6.22,0,0,1,1.45-5.42,1.709,1.709,0,0,1,3.13.84,6.17,6.17,0,0,1-1.45,5.42,1.71,1.71,0,0,1-3.13-.84Z" fill="#455a64"/>
          </g>
          <path id="Path_800" data-name="Path 800" d="M306.35,444.54c-51.12,0-98.54-23.13-121.53-36.4l1.4-2.41C219.55,425,304.85,465.22,377,423.54c49.37-28.5,63.6-36.71,73.32-42.31l2.62-1.51,1.39,2.41-2.62,1.52c-9.71,5.6-23.95,13.8-73.31,42.3C355,439.47,330.28,444.54,306.35,444.54Z" fill="#37474f"/>
          <path id="Path_801" data-name="Path 801" d="M458.86,369.8a3.52,3.52,0,0,1,3.55.35,11.1,11.1,0,0,1,5,8.71,3.52,3.52,0,0,1-1.49,3.27l-23.08,13.49-7.09-12.33Z" fill="#37474f"/>
          <path id="Path_802" data-name="Path 802" d="M466.84,375.81a9.12,9.12,0,0,1,.6,3.05,3.52,3.52,0,0,1-1.49,3.27l-23.08,13.49L440.24,391Z" opacity="0.1"/>
          <path id="Path_803" data-name="Path 803" d="M444.34,392.36a11.13,11.13,0,0,0-5-8.71,3.06,3.06,0,0,0-5,2.91,11.15,11.15,0,0,0,5,8.71,3.07,3.07,0,0,0,5-2.91Z" fill="#455a64"/>
          <path id="Path_804" data-name="Path 804" d="M440.18,390a2.16,2.16,0,0,0-1-1.71.68.68,0,0,0-.69-.07h0l-6.07,3.32a69.69,69.69,0,0,1-59.47,8c-25-7.86-45.8-28.12-57.12-55.58L313.27,345c11.63,28.23,33.09,49.07,58.86,57.18a74.1,74.1,0,0,0,22.35,3.49A72.68,72.68,0,0,0,433.86,394l6-3.28h.06A.68.68,0,0,0,440.18,390Z" fill="#37474f"/>
        </g>
      </g>
      <g id="freepik--device-2--inject-50">
        <g id="freepik--cassette-player--inject-50">
          <path id="Path_805" data-name="Path 805" d="M106.14,101.11,134.06,85a6.67,6.67,0,0,1,6,0l90.16,52.06a6.67,6.67,0,0,1,3,5.22v81.47l5.67,3.26V334.58a6.67,6.67,0,0,1-3,5.22L208,355.92a6.67,6.67,0,0,1-6,0L106.14,300.6a6.65,6.65,0,0,1-3-5.22v-189A6.66,6.66,0,0,1,106.14,101.11Z" fill="#263238"/>
          <path id="Path_806" data-name="Path 806" d="M140.09,85l90.16,52.06c1.66,1,1.66,2.52,0,3.48l-12.42,7.17,5.66,3.27L208,159.91a6.61,6.61,0,0,1-6,0L106.14,104.6c-1.67-1-1.67-2.53,0-3.49L134.06,85a6.67,6.67,0,0,1,6.03,0Z" fill="#455a64"/>
          <path id="Path_807" data-name="Path 807" d="M103.12,295.38v-189c0-1.93,1.35-2.71,3-1.74L202,159.91a6.7,6.7,0,0,1,3,5.23v189c0,1.92-1.35,2.7-3,1.74L106.14,300.6a6.65,6.65,0,0,1-3.02-5.22Z" fill="#37474f"/>
          <path id="Path_808" data-name="Path 808" d="M103.12,128.99l79.22,45.73v3.27l-79.22-45.74Z" fill="#263238"/>
          <path id="Path_809" data-name="Path 809" d="M121.61,98.72l8.3-4.79a3.33,3.33,0,0,1,3,0l14,8.06a3.34,3.34,0,0,1,1.51,2.61v4.79l-11.32,6.53-17-9.8v-4.79A3.31,3.31,0,0,1,121.61,98.72Z" fill="#88f5b4"/>
          <path id="Path_810" data-name="Path 810" d="M121.61,98.72l8.3-4.79a3.33,3.33,0,0,1,3,0l14,8.06a.92.92,0,0,1,0,1.74l-8.3,4.79a3.35,3.35,0,0,1-3,0l-14-8.06a.92.92,0,0,1,0-1.74Z" fill="#fff" opacity="0.4"/>
          <path id="Path_811" data-name="Path 811" d="M137.07,111.13a3.31,3.31,0,0,0-1.51-2.61l-14-8.06c-.84-.48-1.51-.09-1.51.87v4.79l17,9.8Z" fill="#fff" opacity="0.2"/>
          <path id="Path_812" data-name="Path 812" d="M146.88,103.73l-8.3,4.79a3.34,3.34,0,0,0-1.51,2.61v4.79l11.32-6.53V104.6C148.39,103.64,147.71,103.25,146.88,103.73Z" fill="#263238" opacity="0.05"/>
          <path id="Path_813" data-name="Path 813" d="M154.05,119.19c-3.13,1.81-3.13,4.73,0,6.54a12.52,12.52,0,0,0,11.31,0c3.13-1.81,3.13-4.73,0-6.54a12.52,12.52,0,0,0-11.31,0Z" fill="#37474f"/>
          <path id="Path_814" data-name="Path 814" d="M159.71,125.69a10.31,10.31,0,0,1-5-1.17c-1-.6-1.64-1.36-1.64-2.06s.6-1.46,1.64-2.06a11.12,11.12,0,0,1,9.93,0c1,.6,1.64,1.35,1.64,2.06s-.6,1.46-1.64,2.06a10.27,10.27,0,0,1-5,1.17Z" fill="#263238"/>
          <path id="Path_815" data-name="Path 815" d="M154.81,124.55a11.1,11.1,0,0,0,9.8,0,11.1,11.1,0,0,0-9.8,0Z"/>
          <path id="Path_816" data-name="Path 816" d="M171,129c-3.12,1.81-3.12,4.73,0,6.54a12.54,12.54,0,0,0,11.32,0c3.12-1.81,3.12-4.73,0-6.54A12.54,12.54,0,0,0,171,129Z" fill="#37474f"/>
          <path id="Path_817" data-name="Path 817" d="M176.68,135.49a10.24,10.24,0,0,1-5-1.17c-1.05-.6-1.65-1.35-1.65-2.06s.6-1.46,1.65-2.06a11.1,11.1,0,0,1,9.92,0c1.05.6,1.65,1.35,1.65,2.06s-.6,1.46-1.65,2.06a10.24,10.24,0,0,1-5,1.17Z" fill="#263238"/>
          <path id="Path_818" data-name="Path 818" d="M171.78,134.35a11.1,11.1,0,0,0,9.8,0,11.1,11.1,0,0,0-9.8,0Z"/>
          <path id="Path_819" data-name="Path 819" d="M238.92,334.58V227l-5.67-3.26V142.27a6.67,6.67,0,0,0-3-5.22l-14-8.06-31,17.87a6.67,6.67,0,0,0-3,5.22V344.6L202,355.92a6.67,6.67,0,0,0,6,0l27.92-16.12a6.67,6.67,0,0,0,3-5.22Z" fill="#e0e0e0"/>
          <path id="Path_820" data-name="Path 820" d="M233.25,223.74l-9.76,5.63v6.53l15.42-8.9Z" opacity="0.2"/>
          <path id="Path_821" data-name="Path 821" d="M233.26,142.27v81.47l-15.42,8.9V147.7l12.41-7.16C231.91,139.58,233.26,140.35,233.26,142.27Z" fill="#455a64"/>
          <path id="Path_822" data-name="Path 822" d="M229,145.62a.83.83,0,0,0-.86.08L222.5,149a2.68,2.68,0,0,0-1.2,2.09v5.86a.83.83,0,0,0,.35.78l5.66,3.26a.85.85,0,0,0,.86-.08l5.65-3.27a2.67,2.67,0,0,0,1.2-2.09v-5.86a.85.85,0,0,0-.35-.78Z" fill="#f0f0f0"/>
          <path id="Path_823" data-name="Path 823" d="M234.67,148.87a.94.94,0,0,0-.85.08l-5.66,3.27a2.49,2.49,0,0,0-.93,1.06L221.59,150a2.34,2.34,0,0,1,.92-1.06l5.64-3.26a.83.83,0,0,1,.86-.08C229.21,145.75,234.11,148.55,234.67,148.87Z" fill="#fafafa"/>
          <path id="Path_824" data-name="Path 824" d="M233.82,157.6l-5.65,3.27c-.67.38-1.21.07-1.21-.7v-5.86a2.65,2.65,0,0,1,1.21-2.09l5.65-3.26c.66-.39,1.2-.08,1.2.69v5.86A2.67,2.67,0,0,1,233.82,157.6Z" fill="#e6e6e6"/>
          <g id="Group_10" data-name="Group 10" opacity="0.2">
            <path id="Path_825" data-name="Path 825" d="M228.17,160a.18.18,0,0,1-.09-.33l5.65-3.26a.172.172,0,1,1,.17.3L228.25,160Z"/>
            <path id="Path_826" data-name="Path 826" d="M228.17,159a.19.19,0,0,1-.16-.09.18.18,0,0,1,.07-.23l5.65-3.27a.18.18,0,1,1,.17.31l-5.65,3.26Z"/>
            <path id="Path_827" data-name="Path 827" d="M228.17,157.86a.21.21,0,0,1-.16-.08.19.19,0,0,1,.07-.24l5.65-3.26a.173.173,0,1,1,.17.3l-5.65,3.26A.11.11,0,0,1,228.17,157.86Z"/>
            <path id="Path_828" data-name="Path 828" d="M228.17,156.78a.22.22,0,0,1-.16-.09.19.19,0,0,1,.07-.24l5.65-3.26a.172.172,0,0,1,.17.3l-5.65,3.26A.11.11,0,0,1,228.17,156.78Z"/>
          </g>
          <path id="Path_829" data-name="Path 829" d="M229,161.69a.83.83,0,0,0-.86.08L222.5,165a2.67,2.67,0,0,0-1.2,2.09V173a.85.85,0,0,0,.35.78l5.66,3.26a.86.86,0,0,0,.86-.09l5.65-3.26a2.67,2.67,0,0,0,1.2-2.09v-5.86a.85.85,0,0,0-.35-.78Z" fill="#f0f0f0"/>
          <path id="Path_830" data-name="Path 830" d="M234.67,164.94a.94.94,0,0,0-.85.08l-5.66,3.27a2.43,2.43,0,0,0-.93,1.06l-5.64-3.26a2.34,2.34,0,0,1,.92-1.06l5.64-3.26a.83.83,0,0,1,.86-.08Z" fill="#fafafa"/>
          <path id="Path_831" data-name="Path 831" d="M233.82,173.67l-5.65,3.26c-.67.39-1.21.08-1.21-.69v-5.86a2.65,2.65,0,0,1,1.21-2.09l5.65-3.27c.66-.38,1.2-.07,1.2.7v5.86a2.67,2.67,0,0,1-1.2,2.09Z" fill="#e6e6e6"/>
          <g id="Group_11" data-name="Group 11" opacity="0.2">
            <path id="Path_832" data-name="Path 832" d="M228.17,176.11a.18.18,0,0,1-.09-.33l5.65-3.26a.172.172,0,0,1,.17.3l-5.65,3.26A.11.11,0,0,1,228.17,176.11Z"/>
            <path id="Path_833" data-name="Path 833" d="M228.17,175a.18.18,0,0,1-.09-.33l5.65-3.26a.172.172,0,1,1,.17.3L228.25,175Z"/>
            <path id="Path_834" data-name="Path 834" d="M228.17,173.93a.21.21,0,0,1-.16-.08.19.19,0,0,1,.07-.24l5.65-3.27a.18.18,0,0,1,.17.31l-5.65,3.26Z"/>
            <path id="Path_835" data-name="Path 835" d="M228.17,172.84a.21.21,0,0,1-.16-.08.19.19,0,0,1,.07-.24l5.65-3.26a.173.173,0,1,1,.17.3l-5.65,3.26A.11.11,0,0,1,228.17,172.84Z"/>
          </g>
          <path id="Path_836" data-name="Path 836" d="M229,185.46a.84.84,0,0,0-.86.09l-5.65,3.26a2.67,2.67,0,0,0-1.2,2.09v29a.85.85,0,0,0,.35.78l5.66,3.26a.86.86,0,0,0,.86-.09l5.65-3.26a2.67,2.67,0,0,0,1.2-2.09v-29a.83.83,0,0,0-.35-.78Z" fill="#f0f0f0"/>
          <path id="Path_837" data-name="Path 837" d="M234.67,188.72a.94.94,0,0,0-.85.08l-5.66,3.27a2.43,2.43,0,0,0-.93,1.06l-5.64-3.26a2.29,2.29,0,0,1,.92-1.06l5.64-3.26a.83.83,0,0,1,.86-.08Z" fill="#fafafa"/>
          <path id="Path_838" data-name="Path 838" d="M233.82,220.6l-5.65,3.26c-.67.39-1.21.08-1.21-.69v-29a2.65,2.65,0,0,1,1.21-2.08l5.65-3.27c.66-.38,1.2-.07,1.2.7v29a2.67,2.67,0,0,1-1.2,2.08Z" fill="#e6e6e6"/>
          <g id="Group_12" data-name="Group 12" opacity="0.2">
            <path id="Path_839" data-name="Path 839" d="M228.17,223a.18.18,0,0,1-.09-.33l5.65-3.26a.172.172,0,0,1,.17.3L228.25,223A.11.11,0,0,1,228.17,223Z"/>
            <path id="Path_840" data-name="Path 840" d="M228.17,222a.18.18,0,0,1-.09-.33l5.65-3.26a.18.18,0,0,1,.24.07.17.17,0,0,1-.07.23l-5.65,3.27Z"/>
            <path id="Path_841" data-name="Path 841" d="M228.17,220.86a.21.21,0,0,1-.16-.08.19.19,0,0,1,.07-.24l5.65-3.27a.18.18,0,0,1,.17.31l-5.65,3.26Z"/>
            <path id="Path_842" data-name="Path 842" d="M228.17,219.77a.21.21,0,0,1-.16-.08.19.19,0,0,1,.07-.24l5.65-3.26a.173.173,0,1,1,.17.3l-5.65,3.26a.11.11,0,0,1-.08.02Z"/>
          </g>
          <g id="Group_13" data-name="Group 13" opacity="0.2">
            <path id="Path_843" data-name="Path 843" d="M228.17,218.69a.18.18,0,0,1-.09-.33l5.65-3.26a.172.172,0,1,1,.17.3l-5.65,3.26A.11.11,0,0,1,228.17,218.69Z"/>
            <path id="Path_844" data-name="Path 844" d="M228.17,217.6a.18.18,0,0,1-.09-.33l5.65-3.26a.172.172,0,1,1,.17.3l-5.65,3.27Z"/>
            <path id="Path_845" data-name="Path 845" d="M228.17,216.51a.19.19,0,0,1-.16-.09.18.18,0,0,1,.07-.23l5.65-3.27a.18.18,0,0,1,.17.31l-5.65,3.26Z"/>
            <path id="Path_846" data-name="Path 846" d="M228.17,215.42a.21.21,0,0,1-.16-.08.19.19,0,0,1,.07-.24l5.65-3.26a.173.173,0,1,1,.17.3l-5.65,3.26A.11.11,0,0,1,228.17,215.42Z"/>
          </g>
          <g id="Group_14" data-name="Group 14" opacity="0.2">
            <path id="Path_847" data-name="Path 847" d="M228.17,214.34a.22.22,0,0,1-.16-.09.19.19,0,0,1,.07-.24l5.65-3.26a.172.172,0,0,1,.17.3l-5.65,3.26A.11.11,0,0,1,228.17,214.34Z"/>
            <path id="Path_848" data-name="Path 848" d="M228.17,213.25a.18.18,0,0,1-.09-.33l5.65-3.26a.172.172,0,0,1,.17.3l-5.65,3.26A.11.11,0,0,1,228.17,213.25Z"/>
            <path id="Path_849" data-name="Path 849" d="M228.17,212.16a.19.19,0,0,1-.16-.09.18.18,0,0,1,.07-.23l5.65-3.27a.18.18,0,0,1,.24.07.17.17,0,0,1-.07.23l-5.65,3.27Z"/>
            <path id="Path_850" data-name="Path 850" d="M228.17,211.07A.19.19,0,0,1,228,211a.18.18,0,0,1,.07-.23l5.65-3.27a.18.18,0,0,1,.17.31l-5.65,3.26Z"/>
          </g>
          <g id="Group_15" data-name="Group 15" opacity="0.2">
            <path id="Path_851" data-name="Path 851" d="M228.17,210a.21.21,0,0,1-.16-.08.19.19,0,0,1,.07-.24l5.65-3.26a.173.173,0,1,1,.17.3L228.25,210a.11.11,0,0,1-.08,0Z"/>
            <path id="Path_852" data-name="Path 852" d="M228.17,208.9a.18.18,0,0,1-.09-.33l5.65-3.26a.172.172,0,1,1,.17.3l-5.65,3.26A.11.11,0,0,1,228.17,208.9Z"/>
            <path id="Path_853" data-name="Path 853" d="M228.17,207.81a.18.18,0,0,1-.09-.33l5.65-3.26a.172.172,0,1,1,.17.3l-5.65,3.27Z"/>
            <path id="Path_854" data-name="Path 854" d="M228.17,206.72a.19.19,0,0,1-.16-.09.18.18,0,0,1,.07-.23l5.65-3.27a.18.18,0,0,1,.17.31l-5.65,3.26Z"/>
          </g>
          <g id="Group_16" data-name="Group 16" opacity="0.2">
            <path id="Path_855" data-name="Path 855" d="M228.17,205.63a.21.21,0,0,1-.16-.08.19.19,0,0,1,.07-.24l5.65-3.26a.173.173,0,1,1,.17.3l-5.65,3.26a.11.11,0,0,1-.08.02Z"/>
            <path id="Path_856" data-name="Path 856" d="M228.17,204.55a.22.22,0,0,1-.16-.09.19.19,0,0,1,.07-.24l5.65-3.26a.172.172,0,1,1,.17.3l-5.65,3.26A.11.11,0,0,1,228.17,204.55Z"/>
            <path id="Path_857" data-name="Path 857" d="M228.17,203.46a.18.18,0,0,1-.09-.33l5.65-3.26a.172.172,0,0,1,.17.3l-5.65,3.26A.11.11,0,0,1,228.17,203.46Z"/>
            <path id="Path_858" data-name="Path 858" d="M228.17,202.37a.18.18,0,0,1-.09-.33l5.65-3.26a.18.18,0,0,1,.24.07.17.17,0,0,1-.07.23l-5.65,3.27Z"/>
          </g>
          <g id="Group_17" data-name="Group 17" opacity="0.2">
            <path id="Path_859" data-name="Path 859" d="M228.17,201.28a.19.19,0,0,1-.16-.09.18.18,0,0,1,.07-.23l5.65-3.27a.18.18,0,0,1,.17.31l-5.65,3.26Z"/>
            <path id="Path_860" data-name="Path 860" d="M228.17,200.19a.21.21,0,0,1-.16-.08.19.19,0,0,1,.07-.24l5.65-3.26a.173.173,0,1,1,.17.3l-5.65,3.26a.11.11,0,0,1-.08.02Z"/>
            <path id="Path_861" data-name="Path 861" d="M228.17,199.11a.18.18,0,0,1-.09-.33l5.65-3.26a.172.172,0,0,1,.17.3l-5.65,3.26A.11.11,0,0,1,228.17,199.11Z"/>
            <path id="Path_862" data-name="Path 862" d="M228.17,198a.18.18,0,0,1-.09-.33l5.65-3.26a.172.172,0,1,1,.17.3L228.25,198Z"/>
          </g>
          <path id="Path_863" data-name="Path 863" d="M230.25,137.05l-14-8.06-33.95,19.6L202,159.91a6.61,6.61,0,0,0,6,0l15.5-8.94-5.66-3.27,12.42-7.17C231.91,139.57,231.91,138,230.25,137.05Z" fill="#fafafa"/>
          <path id="Path_864" data-name="Path 864" d="M182.34,344.6,202,355.92c1.66,1,3,.18,3-1.74v-189a6.7,6.7,0,0,0-3-5.23l-19.62-11.32Z" fill="#f0f0f0"/>
          <path id="Path_865" data-name="Path 865" d="M238.93,334.57a6.66,6.66,0,0,1-3,5.23L208,355.93c-1.67,1-3,.18-3-1.74v-189a6.66,6.66,0,0,1,3-5.23l15.5-8.95V235.9l15.42-8.9Z" fill="#e6e6e6"/>
          <path id="Path_866" data-name="Path 866" d="M208.47,177.23a1.1,1.1,0,0,1-.57-.15,1.38,1.38,0,0,1-.62-1.28v-9.58A3.67,3.67,0,0,1,209,163.3l7.09-4.09a1.4,1.4,0,0,1,1.41-.11,1.38,1.38,0,0,1,.62,1.28V170a3.69,3.69,0,0,1-1.68,2.92L209.32,177A1.76,1.76,0,0,1,208.47,177.23Zm.85-13.32a3,3,0,0,0-1.34,2.31v9.58a.59.59,0,0,0,1,.57l7.09-4.1a3,3,0,0,0,1.33-2.31v-9.58a.76.76,0,0,0-.26-.68.8.8,0,0,0-.72.11Z" fill="#e0e0e0"/>
          <g id="Group_18" data-name="Group 18" opacity="0.1">
            <path id="Path_867" data-name="Path 867" d="M208.47,177.23a1.1,1.1,0,0,1-.57-.15,1.38,1.38,0,0,1-.62-1.28v-9.58A3.67,3.67,0,0,1,209,163.3l7.09-4.09a1.4,1.4,0,0,1,1.41-.11,1.38,1.38,0,0,1,.62,1.28V170a3.69,3.69,0,0,1-1.68,2.92L209.32,177A1.76,1.76,0,0,1,208.47,177.23Zm.85-13.32a3,3,0,0,0-1.34,2.31v9.58a.59.59,0,0,0,1,.57l7.09-4.1a3,3,0,0,0,1.33-2.31v-9.58a.76.76,0,0,0-.26-.68.8.8,0,0,0-.72.11Z"/>
          </g>
          <path id="Path_868" data-name="Path 868" d="M211,168.46a1.05,1.05,0,0,0-.44.84c0,.32.2.47.44.33a1.07,1.07,0,0,0,.44-.84C211.48,168.46,211.28,168.32,211,168.46Zm1.72,3.6a1.05,1.05,0,0,0-.44.84c0,.32.2.47.44.33a1.07,1.07,0,0,0,.44-.84c.04-.33-.16-.47-.4-.33Zm-1.72,1a1.07,1.07,0,0,0-.44.84c0,.33.2.47.44.33a1.05,1.05,0,0,0,.44-.84c.04-.33-.16-.48-.44-.34Zm0-6.89a1.05,1.05,0,0,0-.44.84c0,.32.2.47.44.33a1.07,1.07,0,0,0,.44-.84c.04-.33-.16-.5-.44-.34Zm-1.73-1.3a1.05,1.05,0,0,0-.44.84c0,.32.2.47.44.33a1,1,0,0,0,.44-.84c.04-.34-.15-.48-.4-.34Zm1.73-1a1.07,1.07,0,0,0-.44.84c0,.33.2.47.44.33a1.05,1.05,0,0,0,.44-.84c.04-.33-.16-.48-.44-.34Zm0,6.89a1.07,1.07,0,0,0-.44.84c0,.33.2.48.44.34a1.07,1.07,0,0,0,.44-.84c.04-.34-.16-.49-.44-.35Zm-1.73,3.3a1.05,1.05,0,0,0-.44.84c0,.32.2.47.44.33a1,1,0,0,0,.44-.84c.04-.34-.15-.48-.4-.34Zm6.9-12a1.07,1.07,0,0,0,.44-.84c0-.33-.2-.47-.44-.33a1.05,1.05,0,0,0-.44.84c.04.27.27.46.48.32Zm-6.9,7.4a1.07,1.07,0,0,0-.44.84c0,.33.2.47.44.33a1,1,0,0,0,.44-.84c.04-.33-.15-.48-.4-.34Zm0,2.3a1.07,1.07,0,0,0-.44.84c0,.32.2.47.44.33a1,1,0,0,0,.44-.84c.04-.33-.15-.48-.4-.34Zm0-4.6a1.07,1.07,0,0,0-.44.84c0,.33.2.48.44.34a1,1,0,0,0,.44-.84c.04-.34-.15-.5-.4-.35Zm6.9-4a1.07,1.07,0,0,0-.44.84c0,.33.2.48.44.34a1.07,1.07,0,0,0,.44-.84c.04-.32-.16-.5-.4-.33Zm-1.73-1.3a1.07,1.07,0,0,0-.44.84c0,.33.2.47.44.33a1,1,0,0,0,.44-.84c.04-.31-.15-.46-.4-.32Zm1.73,8.2a1.05,1.05,0,0,0-.44.84c0,.32.2.47.44.33a1.07,1.07,0,0,0,.44-.84c.04-.32-.16-.46-.4-.32Zm-1.73-5.9a1.05,1.05,0,0,0-.44.84c0,.32.2.47.44.33a1,1,0,0,0,.44-.84c.04-.31-.15-.49-.4-.32Zm1.73,1.3a1.07,1.07,0,0,0-.44.84c0,.33.2.47.44.33a1.05,1.05,0,0,0,.44-.84c.04-.31-.16-.46-.4-.32Zm-1.73,1a1.05,1.05,0,0,0-.44.84c0,.32.2.47.44.33a1,1,0,0,0,.44-.84c.04-.32-.15-.46-.4-.32Zm1.73,1.3a1.07,1.07,0,0,0-.44.84c0,.32.2.47.44.33a1.05,1.05,0,0,0,.44-.84c.04-.31-.16-.46-.4-.32Zm-3.45-4.9a1.05,1.05,0,0,0-.44.84c0,.32.2.47.44.33a1.07,1.07,0,0,0,.44-.84c.04-.32-.16-.46-.4-.32Zm0,2.29a1.07,1.07,0,0,0-.44.84c0,.33.2.48.44.34a1.07,1.07,0,0,0,.44-.84c.04-.32-.16-.49-.4-.33Zm1.72,3.6a1.07,1.07,0,0,0-.44.84c0,.33.2.48.44.34a1,1,0,0,0,.44-.84c.04-.32-.15-.47-.4-.33Zm-1.72-1.3a1.07,1.07,0,0,0-.44.84c0,.33.2.47.44.33a1.05,1.05,0,0,0,.44-.84c.04-.31-.16-.46-.4-.32Zm0,2.3a1.07,1.07,0,0,0-.44.84c0,.32.2.47.44.33a1.05,1.05,0,0,0,.44-.84c.04-.31-.16-.46-.4-.32Zm1.72,1.3a1.07,1.07,0,0,0-.44.84c0,.33.2.47.44.33a1,1,0,0,0,.44-.84c.04-.31-.15-.46-.4-.32Z" opacity="0.2"/>
          <path id="Path_869" data-name="Path 869" d="M211.51,179.33,212,178v-.07a.27.27,0,0,1,.07-.08l.17-.09h0a.08.08,0,0,1,0,.05v2.08a.19.19,0,0,1,0,.07h0l-.2.12h0v-1.26l-.32.9v.08l-.06.06-.12.07h-.06l-.32-.54v1.25a.12.12,0,0,1,0,.08.1.1,0,0,1,0,.05l-.2.11h0V178.8a.11.11,0,0,1,0-.07v-.05l.17-.1h.07Z" fill="#455a64"/>
          <path id="Path_870" data-name="Path 870" d="M212.74,179.72h-.05a.07.07,0,0,1,0-.05v-2.08a.17.17,0,0,1,0-.07l.05-.05.2-.12h0v2.13a.12.12,0,0,1,0,.08v.05Z" fill="#455a64"/>
          <path id="Path_871" data-name="Path 871" d="M214.42,178a.19.19,0,0,1,0-.08l.05-.05.19-.11a1.6,1.6,0,0,1-.05.29,1.44,1.44,0,0,1-.13.32,1.908,1.908,0,0,1-.22.3,1.61,1.61,0,0,1-.32.25.66.66,0,0,1-.3.1.3.3,0,0,1-.21-.05.46.46,0,0,1-.14-.21,1.3,1.3,0,0,1-.06-.32v-.54a2.63,2.63,0,0,1,.06-.39,1.421,1.421,0,0,1,.14-.36,1.689,1.689,0,0,1,.21-.31,1.76,1.76,0,0,1,.3-.24.68.68,0,0,1,.32-.11.38.38,0,0,1,.22,0,.37.37,0,0,1,.13.17.86.86,0,0,1,.05.23.14.14,0,0,1,0,.07s0,0,0,.06l-.19.11h-.05a.2.2,0,0,0,0-.11.143.143,0,0,0-.19-.07.52.52,0,0,0-.16.07.7.7,0,0,0-.17.13,1,1,0,0,0-.11.17,1.189,1.189,0,0,0-.08.2v.92a.31.31,0,0,0,.08.11.2.2,0,0,0,.11,0,.41.41,0,0,0,.17,0,.7.7,0,0,0,.16-.13.75.75,0,0,0,.12-.14,1.111,1.111,0,0,0,.07-.16.737.737,0,0,0,0-.12Z" fill="#455a64"/>
          <path id="Path_872" data-name="Path 872" d="M210.37,237.18a.77.77,0,0,1,.29-.1.41.41,0,0,1,.2,0,.3.3,0,0,1,.13.12.53.53,0,0,1,0,.17.12.12,0,0,1,0,.08.1.1,0,0,1,0,.05l-.17.1h-.06a.15.15,0,0,0-.11-.08.34.34,0,0,0-.22.07l-.12.08-.1.11a.669.669,0,0,0-.06.12.28.28,0,0,0,0,.13.15.15,0,0,0,0,.1.08.08,0,0,0,.07,0h.15l.22-.06a.85.85,0,0,1,.25-.05.31.31,0,0,1,.17,0,.24.24,0,0,1,.1.12.69.69,0,0,1,0,.22.86.86,0,0,1-.05.3,1.852,1.852,0,0,1-.13.29,1.782,1.782,0,0,1-.22.26,1.29,1.29,0,0,1-.3.22.77.77,0,0,1-.25.11.41.41,0,0,1-.22,0,.31.31,0,0,1-.16-.11.44.44,0,0,1-.06-.22.1.1,0,0,1,0-.07h0l.17-.1a.11.11,0,0,1,.07,0h0v.06a.09.09,0,0,0,.07,0h.1a.479.479,0,0,0,.15-.07l.14-.09a.68.68,0,0,0,.12-.12.46.46,0,0,0,.08-.13.37.37,0,0,0,0-.14.13.13,0,0,0,0-.1.15.15,0,0,0-.1,0h-.17l-.24.06h-.21a.24.24,0,0,1-.15,0,.29.29,0,0,1-.08-.13.78.78,0,0,1,0-.24,1,1,0,0,1,0-.29,1.552,1.552,0,0,1,.14-.29,1.16,1.16,0,0,1,.2-.25,1.57,1.57,0,0,1,.36-.13Z" fill="#455a64"/>
          <path id="Path_873" data-name="Path 873" d="M212.46,236h0a.06.06,0,0,1,0,.05v.23a.25.25,0,0,1,0,.07h0l-.43.25v1.76a.24.24,0,0,1,0,.08.12.12,0,0,1,0,.05l-.19.11h-.05v-1.76l-.43.25h-.05v-.23a.19.19,0,0,1,0-.07l.05-.05Z" fill="#455a64"/>
          <path id="Path_874" data-name="Path 874" d="M212.68,236.72a1.639,1.639,0,0,1,0-.37,1.479,1.479,0,0,1,.13-.35,1.6,1.6,0,0,1,.22-.31,1.1,1.1,0,0,1,.31-.25.93.93,0,0,1,.3-.11.38.38,0,0,1,.22.06.44.44,0,0,1,.13.21,1.219,1.219,0,0,1,.06.31v.57a2.382,2.382,0,0,1-.06.37,1.479,1.479,0,0,1-.13.35,1,1,0,0,1-.22.31,1.21,1.21,0,0,1-.3.25.68.68,0,0,1-.31.11.28.28,0,0,1-.22-.06.37.37,0,0,1-.13-.2,1,1,0,0,1,0-.31.618.618,0,0,0,0-.13v-.31A.661.661,0,0,0,212.68,236.72Zm1.09-.61c0-.15,0-.25-.11-.29s-.16,0-.27,0a.57.57,0,0,0-.27.28.94.94,0,0,0-.12.42v.55a.36.36,0,0,0,.12.29.311.311,0,0,0,.27,0,.81.81,0,0,0,.27-.28,1,1,0,0,0,.11-.43v-.54Z" fill="#455a64"/>
          <path id="Path_875" data-name="Path 875" d="M215.13,234.47c.19-.11.34-.14.45-.08s.16.21.16.45a1.23,1.23,0,0,1-.16.63,1.21,1.21,0,0,1-.45.45l-.39.22v.72a.19.19,0,0,1,0,.07l-.2.12V235a.15.15,0,0,1,0-.07s0-.05,0-.06Zm-.39,1.27.37-.22a.54.54,0,0,0,.22-.2.49.49,0,0,0,.09-.3c0-.12,0-.18-.09-.2a.38.38,0,0,0-.22.06l-.37.22Z" fill="#455a64"/>
          <path id="Path_876" data-name="Path 876" d="M226.76,305.6h0v.19a.11.11,0,0,1,0,.05v.05l-.84.48h0v-1.66a.14.14,0,0,1,0-.06h0l.15-.09h0V306Z" fill="#455a64"/>
          <path id="Path_877" data-name="Path 877" d="M227.9,305h0v.18a.14.14,0,0,1,0,.06h0l-.85.49h0v-1.66a.13.13,0,0,1,0-.06h0l.83-.48h0v.18a.13.13,0,0,1,0,.06l-.62.36v.41l.58-.34h0v.18a.13.13,0,0,1,0,.06h0l-.58.34v.43Z" fill="#455a64"/>
          <path id="Path_878" data-name="Path 878" d="M229.07,302.79h0v.31l-.62.35v.5l.58-.33h0v.18a.14.14,0,0,1,0,.06h0l-.58.33v.59a.14.14,0,0,1,0,.06h0l-.16.09h0v-1.66a.13.13,0,0,1,0-.06h0Z" fill="#455a64"/>
          <path id="Path_879" data-name="Path 879" d="M230.24,302.11h0v.19a.13.13,0,0,1,0,.06h0l-.35.2v1.41a.13.13,0,0,1,0,.06h0l-.16.09h0v-1.41l-.35.2h0v-.18a.14.14,0,0,1,0-.06h0Z" fill="#455a64"/>
          <path id="Path_880" data-name="Path 880" d="M232.27,300.92c.16-.1.28-.12.37-.06s.12.16.12.34a1.13,1.13,0,0,1-.06.36,1.171,1.171,0,0,1-.19.3l.26.48a.434.434,0,0,0,0,.05h0l-.17.09h-.06l-.25-.45-.26.15v.6a.14.14,0,0,1,0,.06h0l-.16.09h0v-1.66a.13.13,0,0,1,0-.06h0Zm-.29,1,.28-.17a.5.5,0,0,0,.17-.15.35.35,0,0,0,.07-.23c0-.1,0-.15-.07-.16a.29.29,0,0,0-.17.06l-.28.16Z" fill="#455a64"/>
          <path id="Path_881" data-name="Path 881" d="M233.06,302.26h0V300.6a.14.14,0,0,1,0-.06h0l.16-.09h0v1.66a.13.13,0,0,1,0,.06h0Z" fill="#455a64"/>
          <path id="Path_882" data-name="Path 882" d="M233.52,300.86a1.54,1.54,0,0,1,0-.31,1,1,0,0,1,.11-.28,1.44,1.44,0,0,1,.18-.25,1,1,0,0,1,.25-.19.53.53,0,0,1,.28-.1.23.23,0,0,1,.17,0,.24.24,0,0,1,.09.11.35.35,0,0,1,0,.13.13.13,0,0,1,0,.06h0l-.16.09h-.1a.16.16,0,0,0-.1,0,.39.39,0,0,0-.14,0,.66.66,0,0,0-.23.24.75.75,0,0,0-.1.33v.42c0,.14,0,.23.1.26s.13,0,.23,0l.13-.1a.29.29,0,0,0,.1-.12.46.46,0,0,0,.07-.16.64.64,0,0,0,0-.2h0l-.24.13h0v-.18a.13.13,0,0,1,0-.06h0l.44-.26h0v.29a1.54,1.54,0,0,1,0,.3,1,1,0,0,1-.11.29,1.441,1.441,0,0,1-.18.25,1,1,0,0,1-.26.2.659.659,0,0,1-.26.1.23.23,0,0,1-.17,0,.31.31,0,0,1-.11-.16.92.92,0,0,1,0-.26v-.46Z" fill="#455a64"/>
          <path id="Path_883" data-name="Path 883" d="M236,298.77h0v1.66a.13.13,0,0,1,0,.06l-.15.09h0v-.68l-.58.34v.82h0l-.16.09h0v-1.67a.11.11,0,0,1,0-.05h0l.16-.09h0V300l.58-.34V299a.14.14,0,0,1,0-.06h0Z" fill="#455a64"/>
          <path id="Path_884" data-name="Path 884" d="M237.24,298.05h0v.19a.14.14,0,0,1,0,.06h0l-.34.2V300a.14.14,0,0,1,0,.06h0l-.15.09h0v-1.41l-.35.2h0v-.18a.13.13,0,0,1,0-.06h0Z" fill="#455a64"/>
          <path id="Path_885" data-name="Path 885" d="M227.8,307.91l.33-1.41a.14.14,0,0,1,0-.06h0l.15-.09h0l-.44,1.87a.19.19,0,0,1,0,.08l-.05.05-.15.09h0v-.05l-.43-1.37h0a.13.13,0,0,1,0-.06h0l.15-.09h0Z" fill="#455a64"/>
          <path id="Path_886" data-name="Path 886" d="M228.51,306.89a1,1,0,0,1,0-.3,1.331,1.331,0,0,1,.1-.28,1.439,1.439,0,0,1,.18-.25,1.162,1.162,0,0,1,.24-.2.85.85,0,0,1,.25-.09.29.29,0,0,1,.17.05.38.38,0,0,1,.11.16.929.929,0,0,1,0,.25v.46a1.542,1.542,0,0,1,0,.3,1.061,1.061,0,0,1-.53.72.45.45,0,0,1-.24.09.23.23,0,0,1-.18-.05.28.28,0,0,1-.1-.16.61.61,0,0,1,0-.24v-.46Zm.87-.5c0-.12,0-.2-.09-.23s-.13,0-.22,0a.52.52,0,0,0-.21.23.64.64,0,0,0-.09.34,1.55,1.55,0,0,0,0,.22,1.34,1.34,0,0,0,0,.21.27.27,0,0,0,.09.24h.21a.52.52,0,0,0,.22-.22.64.64,0,0,0,.09-.34v-.22c0-.08,0-.16,0-.23Z" fill="#455a64"/>
          <path id="Path_887" data-name="Path 887" d="M230.79,306.37h0v.19h0l-.84.49h0v-1.66a.13.13,0,0,1,0-.06l.16-.09v1.41Z" fill="#455a64"/>
          <path id="Path_888" data-name="Path 888" d="M232.05,304.17h0v1.05a1.551,1.551,0,0,1,0,.31,1.36,1.36,0,0,1-.11.28,1,1,0,0,1-.17.25,1.552,1.552,0,0,1-.24.19.85.85,0,0,1-.25.09.26.26,0,0,1-.17-.05.32.32,0,0,1-.1-.16,1,1,0,0,1,0-.27v-1a.14.14,0,0,1,0-.06h0l.15-.09h0v1a.439.439,0,0,0,0,.17.1.1,0,0,0,.06.08.09.09,0,0,0,.09,0l.12-.05a.47.47,0,0,0,.12-.09l.09-.12a.757.757,0,0,0,.06-.16,1.11,1.11,0,0,0,0-.19v-1a.14.14,0,0,1,0-.06h0Z" fill="#455a64"/>
          <path id="Path_889" data-name="Path 889" d="M233,304.52l.37-1.06h0a.1.1,0,0,1,.05-.06l.14-.08h0V305a.14.14,0,0,1,0,.06h0l-.16.09h0v-1l-.25.72v.06a.12.12,0,0,1-.05.05l-.1.05h0l-.25-.43v1a.13.13,0,0,1,0,.06h0l-.16.09h0V304a.14.14,0,0,1,0-.06h0l.13-.08h.06Z" fill="#455a64"/>
          <path id="Path_890" data-name="Path 890" d="M234.86,304h0v.18a.13.13,0,0,1,0,.06h0l-.85.49h0v-1.66a.13.13,0,0,1,0-.06h0l.83-.48h0v.19a.14.14,0,0,1,0,.06l-.62.36v.41l.58-.34h0v.18a.13.13,0,0,1,0,.06l-.58.34v.43Z" fill="#455a64"/>
          <path id="Path_891" data-name="Path 891" d="M228.1,336.2a.69.69,0,0,1,.25-.09.24.24,0,0,1,.17,0,.38.38,0,0,1,.11.16,1,1,0,0,1,0,.27,2.408,2.408,0,0,1,0,.38,1.65,1.65,0,0,1,0,.32,1.451,1.451,0,0,1-.11.29,1.178,1.178,0,0,1-.17.24,1.549,1.549,0,0,1-.24.19l-.49.28h0v-1.66a.13.13,0,0,1,0-.06h0Zm.31.53a.591.591,0,0,0,0-.14.15.15,0,0,0-.06-.09.12.12,0,0,0-.1,0,.3.3,0,0,0-.14,0l-.26.15v1.16l.27-.16a.35.35,0,0,0,.13-.11.57.57,0,0,0,.1-.13.52.52,0,0,0,.06-.16,1,1,0,0,0,0-.17A2.412,2.412,0,0,0,228.41,336.73Z" fill="#455a64"/>
          <path id="Path_892" data-name="Path 892" d="M229.76,336.47a.14.14,0,0,1,0-.06h0l.16-.09h0a1,1,0,0,1,0,.24.87.87,0,0,1-.1.25,1.881,1.881,0,0,1-.18.24,1,1,0,0,1-.25.2.52.52,0,0,1-.24.08.23.23,0,0,1-.17,0,.31.31,0,0,1-.11-.16.71.71,0,0,1-.05-.26c0-.07,0-.14,0-.22v-.21a1.189,1.189,0,0,1,.05-.32,1,1,0,0,1,.11-.29.809.809,0,0,1,.17-.24.88.88,0,0,1,.24-.19.68.68,0,0,1,.25-.1.34.34,0,0,1,.18,0,.22.22,0,0,1,.1.13.579.579,0,0,1,0,.19.13.13,0,0,1,0,.06h0l-.16.09h0q0-.045,0-.09l-.06-.05a.13.13,0,0,0-.09,0,.27.27,0,0,0-.13.05.35.35,0,0,0-.13.11.64.64,0,0,0-.1.13l-.06.16a.881.881,0,0,0,0,.16v.44a.59.59,0,0,0,0,.14.35.35,0,0,0,.06.09.16.16,0,0,0,.1,0,.27.27,0,0,0,.13,0l.13-.1a.94.94,0,0,0,.09-.12.34.34,0,0,0,.06-.12Z" fill="#455a64"/>
          <path id="Path_893" data-name="Path 893" d="M230.74,336.48h0v-1.66a.13.13,0,0,1,0-.06h0l.16-.09h0v1.66a.14.14,0,0,1,0,.06h0Z" fill="#455a64"/>
          <path id="Path_894" data-name="Path 894" d="M232.12,335.68h-.05l-.54-.76V336a.14.14,0,0,1,0,.06h0l-.16.09h0v-1.66a.13.13,0,0,1,0-.06h0l.14-.08h.05l.54.76V334a.14.14,0,0,1,0-.06h0l.16-.09h0v1.66a.13.13,0,0,1,0,.06h0Z" fill="#455a64"/>
          <path id="Path_895" data-name="Path 895" d="M233.93,332.83h0v.19a.15.15,0,0,1,0,.06v.06l-.28.55h.16a.19.19,0,0,1,.12,0,.24.24,0,0,1,.08.11.9.9,0,0,1,0,.18.751.751,0,0,1,0,.26.659.659,0,0,1-.11.24.83.83,0,0,1-.16.21,1.459,1.459,0,0,1-.21.16.72.72,0,0,1-.24.09.28.28,0,0,1-.16,0,.18.18,0,0,1-.1-.09.28.28,0,0,1,0-.15.13.13,0,0,1,0-.06h0l.15-.09h0a.12.12,0,0,0,.08,0l.12-.05a.66.66,0,0,0,.19-.18.36.36,0,0,0,.07-.22c0-.07,0-.11-.07-.12a.28.28,0,0,0-.19.06l-.16.09h0V334a.13.13,0,0,1,0-.06v-.06l.27-.53-.53.3h0v-.18a.14.14,0,0,1,0-.06h0Z" fill="#455a64"/>
          <path id="Path_896" data-name="Path 896" d="M234.59,334.23h0l-.39-1h0a.11.11,0,0,1,0-.05v-.05l.15-.08h0l.26.65.25-1h0a.12.12,0,0,1,.05-.05l.14-.08h0l-.39,1.41v.05a.1.1,0,0,1,0,.05l-.13.07Z" fill="#455a64"/>
          <path id="Path_897" data-name="Path 897" d="M217.39,230.08l-9.41,5.44V187.07l9.41-5.44Z" opacity="0.2"/>
          <path id="Path_898" data-name="Path 898" d="M219.36,231.02l-5.1,2.95V187.8l5.1-2.95Z" fill="#e0e0e0"/>
          <path id="Path_899" data-name="Path 899" d="M214.26,233.97l5.1-2.95V184.85l-5.1,2.95,4.97-2.71-.26,45.71Z" fill="#fafafa"/>
          <path id="Path_900" data-name="Path 900" d="M219.36,184.85l-2.79-1.6-5.09,2.94,2.78,1.61Z" fill="#fafafa"/>
          <path id="Path_901" data-name="Path 901" d="M211.48,186.19l2.78,1.61v46.17l-2.78-1.61Z" fill="#f0f0f0"/>
          <path id="Path_902" data-name="Path 902" d="M220.4,348.75l3.09-1.78v-196l-3.09,1.78Z" opacity="0.2"/>
          <path id="Path_903" data-name="Path 903" d="M222.84,212.11l-1.79,1.03.9-2.66Z" fill="#455a64"/>
          <path id="Path_904" data-name="Path 904" d="M235.02,296.91l-8.06,4.65V244.12l8.06-4.65Z" fill="#455a64"/>
          <path id="Path_905" data-name="Path 905" d="M230.4,299.58l1.19-.69V241.45l-1.19.69Z" fill="#fafafa"/>
          <path id="Path_906" data-name="Path 906" d="M230.4,275.14l-3.44,1.99V299.8l.69.4,3.43-1.99V275.54Z"/>
          <path id="Path_907" data-name="Path 907" d="M227.65,277.52l3.43-1.98v22.67l-3.43,1.99Z" fill="#263238"/>
          <path id="Path_908" data-name="Path 908" d="M228.27,286.11l2.19-1.27v-.28l-2.19,1.26Zm0,2.53,2.19-1.26v-.28l-2.19,1.26Zm0,7.61,2.19-1.26v-.28L228.27,296Zm0-5.07,2.19-1.26v-.29l-2.19,1.26Zm0,2.54,2.19-1.27v-.28l-2.19,1.26Zm0-12.69,2.19-1.26v-.28l-2.19,1.26Zm0,2.54,2.19-1.26V282l-2.19,1.26Zm0-5.36v.29l2.19-1.27V277Zm0,20.58,2.19-1.26v-.29l-2.19,1.26Zm0-1.28,2.19-1.26V296l-2.19,1.26Zm0-2.53,2.19-1.26v-.29l-2.19,1.26Zm0-5.08,2.19-1.26v-.28l-2.19,1.26Zm0,2.54,2.19-1.26v-.28l-2.19,1.26Zm0-12.68,2.19-1.26v-.29l-2.19,1.26Zm0,2.53,2.19-1.26v-.28L228.27,282Zm0,5.08,2.19-1.26v-.29l-2.19,1.26Zm0-2.54,2.19-1.26v-.28l-2.19,1.26Z" fill="#455a64"/>
          <path id="Path_909" data-name="Path 909" d="M230.4,275.14l.68.4-3.43,1.98-.69-.39Z" fill="#37474f"/>
          <path id="Path_910" data-name="Path 910" d="M235.02,272.47l-3.43,1.98v22.68l.68.4,3.44-1.99V272.87Z"/>
          <path id="Path_911" data-name="Path 911" d="M232.27,274.85l3.44-1.98v22.67l-3.44,1.99Z" fill="#263238"/>
          <path id="Path_912" data-name="Path 912" d="M232.9,283.43l2.18-1.26v-.28l-2.18,1.26Zm0,2.54,2.18-1.26v-.29l-2.18,1.27Zm0,7.61,2.18-1.26V292l-2.18,1.27Zm0-5.07,2.18-1.27V287l-2.18,1.26Zm0,2.53,2.18-1.26v-.28l-2.18,1.26Zm0-12.68,2.18-1.26v-.29l-2.18,1.27Zm0,2.54,2.18-1.27v-.28l-2.18,1.26Zm0-5.36v.28l2.18-1.26v-.28Zm0,20.58,2.18-1.27v-.28l-2.18,1.26Zm0-1.28,2.18-1.26v-.28l-2.18,1.26Zm0-2.53,2.18-1.27v-.28L232.9,292Zm0-5.08,2.18-1.26v-.28L232.9,287Zm0,2.54,2.18-1.26v-.29l-2.18,1.26Zm0-12.68,2.18-1.27v-.28l-2.18,1.26Zm0,2.53,2.18-1.26v-.28l-2.18,1.26Zm0,5.08,2.18-1.27v-.28l-2.18,1.26Zm0-2.54,2.18-1.26v-.29l-2.18,1.26Z" fill="#455a64"/>
          <path id="Path_913" data-name="Path 913" d="M235.02,272.47l-3.43,1.98.68.4,3.44-1.98Z" fill="#37474f"/>
          <path id="Path_914" data-name="Path 914" d="M237.68,269.56v.57a2.329,2.329,0,0,1,0,.37,1.931,1.931,0,0,1-.11.34,1.211,1.211,0,0,1-.2.3,1,1,0,0,1-.3.23.65.65,0,0,1-.3.11.25.25,0,0,1-.19-.07.53.53,0,0,1-.12-.21,2.533,2.533,0,0,1,0-.32v-.93a1.8,1.8,0,0,1,.12-.35,1.17,1.17,0,0,1,.19-.3,1.22,1.22,0,0,1,.3-.24.79.79,0,0,1,.3-.11.27.27,0,0,1,.2.07.52.52,0,0,1,.11.21,1.57,1.57,0,0,1,0,.33Zm-1,1.11a.53.53,0,0,0,.08.31q.075.09.24,0a.55.55,0,0,0,.24-.26,1,1,0,0,0,.08-.41,3.649,3.649,0,0,0,0-.54.48.48,0,0,0-.08-.31c-.05-.06-.13-.05-.24,0a.53.53,0,0,0-.24.27,1.13,1.13,0,0,0-.08.4,2.44,2.44,0,0,0,0,.27,2.26,2.26,0,0,0,.03.27Z" fill="#455a64"/>
          <path id="Path_915" data-name="Path 915" d="M236.53,253.77a.24.24,0,0,1,0-.08v-.05l.91-.52h0v.23a.11.11,0,0,1,0,.07v.05l-.68.39v.43l.13-.12.11-.07a.69.69,0,0,1,.25-.09.28.28,0,0,1,.2,0,.32.32,0,0,1,.13.15.79.79,0,0,1,0,.29,1.461,1.461,0,0,1,0,.38,1.4,1.4,0,0,1-.34.58,1.879,1.879,0,0,1-.24.18.939.939,0,0,1-.29.12.33.33,0,0,1-.2,0,.3.3,0,0,1-.12-.13.72.72,0,0,1,0-.22.1.1,0,0,1,0-.07v-.05l.2-.11h0a.19.19,0,0,0,.05.1.09.09,0,0,0,.07,0,.15.15,0,0,0,.09,0h.11a.61.61,0,0,0,.22-.23.69.69,0,0,0,.08-.32.2.2,0,0,0-.08-.19.23.23,0,0,0-.22,0,.36.36,0,0,0-.12.08l-.07.07v.06a.12.12,0,0,1-.05,0l-.22.13h-.05Z" fill="#455a64"/>
          <path id="Path_916" data-name="Path 916" d="M235.75,239.82a.241.241,0,0,1,0-.08l.53-.85v-.06l.19-.11h0v2.13a.1.1,0,0,1,0,.07l-.2.12h0V239.4l-.34.55-.05.05h0Z" fill="#455a64"/>
          <path id="Path_917" data-name="Path 917" d="M238.23,238.51v.57a2.2,2.2,0,0,1,0,.37,1.35,1.35,0,0,1-.11.34,1,1,0,0,1-.2.3,1.371,1.371,0,0,1-.29.24.62.62,0,0,1-.3.1.24.24,0,0,1-.2-.07.38.38,0,0,1-.11-.21,1.47,1.47,0,0,1,0-.32,2.348,2.348,0,0,1,0-.28,2.524,2.524,0,0,1,0-.28,2.329,2.329,0,0,1,0-.37,1.29,1.29,0,0,1,.31-.65,1.22,1.22,0,0,1,.3-.24.7.7,0,0,1,.29-.11.26.26,0,0,1,.2.07.42.42,0,0,1,.11.22,1.428,1.428,0,0,1,0,.32Zm-1,1.12a.54.54,0,0,0,.09.31c0,.05.12.05.24,0a.55.55,0,0,0,.24-.26,1.491,1.491,0,0,0,.08-.41v-.54a.65.65,0,0,0-.08-.31c0-.06-.13-.05-.24,0a.52.52,0,0,0-.24.27,1.18,1.18,0,0,0-.09.4v.55Z" fill="#455a64"/>
          <path id="Path_918" data-name="Path 918" d="M237.22,267a.53.53,0,0,1-.21.41c-.12.06-.21,0-.21-.16a.51.51,0,0,1,.21-.41C237.12,266.77,237.22,266.84,237.22,267Z" fill="#455a64"/>
          <path id="Path_919" data-name="Path 919" d="M237.22,264.73a.5.5,0,0,1-.21.4c-.12.07-.21,0-.21-.16a.5.5,0,0,1,.21-.4C237.12,264.51,237.22,264.58,237.22,264.73Z" fill="#455a64"/>
          <path id="Path_920" data-name="Path 920" d="M237.22,262.47a.53.53,0,0,1-.21.4c-.12.07-.21,0-.21-.16a.5.5,0,0,1,.21-.4C237.12,262.24,237.22,262.31,237.22,262.47Z" fill="#455a64"/>
          <path id="Path_921" data-name="Path 921" d="M237.22,260.21a.53.53,0,0,1-.21.4c-.12.07-.21,0-.21-.16a.5.5,0,0,1,.21-.4C237.12,260,237.22,260.05,237.22,260.21Z" fill="#455a64"/>
          <path id="Path_922" data-name="Path 922" d="M237.22,258a.53.53,0,0,1-.21.4c-.12.06-.21,0-.21-.16a.47.47,0,0,1,.21-.4C237.12,257.72,237.22,257.79,237.22,258Z" fill="#455a64"/>
          <path id="Path_923" data-name="Path 923" d="M237.22,251.51a.53.53,0,0,1-.21.41c-.12.06-.21,0-.21-.16a.47.47,0,0,1,.21-.4C237.12,251.29,237.22,251.36,237.22,251.51Z" fill="#455a64"/>
          <path id="Path_924" data-name="Path 924" d="M237.22,249.25a.5.5,0,0,1-.21.4c-.12.07-.21,0-.21-.16a.5.5,0,0,1,.21-.4C237.12,249,237.22,249.1,237.22,249.25Z" fill="#455a64"/>
          <path id="Path_925" data-name="Path 925" d="M237.22,247a.53.53,0,0,1-.21.4c-.12.07-.21,0-.21-.16a.5.5,0,0,1,.21-.4C237.12,246.76,237.22,246.84,237.22,247Z" fill="#455a64"/>
          <path id="Path_926" data-name="Path 926" d="M237.22,244.73a.53.53,0,0,1-.21.4c-.12.07-.21,0-.21-.16a.5.5,0,0,1,.21-.4C237.12,244.5,237.22,244.57,237.22,244.73Z" fill="#455a64"/>
          <path id="Path_927" data-name="Path 927" d="M237.22,242.47a.53.53,0,0,1-.21.4c-.12.06-.21,0-.21-.16a.47.47,0,0,1,.21-.4C237.12,242.24,237.22,242.31,237.22,242.47Z" fill="#455a64"/>
          <path id="Path_928" data-name="Path 928" d="M225.9,276.36v.57a2.209,2.209,0,0,1,0,.37,1.93,1.93,0,0,1-.11.34,1.21,1.21,0,0,1-.5.54.75.75,0,0,1-.3.1.25.25,0,0,1-.19-.07.43.43,0,0,1-.12-.21,2.53,2.53,0,0,1,0-.32v-.93a1.45,1.45,0,0,1,.12-.35,1.17,1.17,0,0,1,.19-.3,1.22,1.22,0,0,1,.3-.24.791.791,0,0,1,.3-.11.27.27,0,0,1,.2.07.5.5,0,0,1,.11.22A1.39,1.39,0,0,1,225.9,276.36Zm-1,1.11a.53.53,0,0,0,.08.31q.075.09.24,0a.55.55,0,0,0,.24-.26,1,1,0,0,0,.08-.41,3.649,3.649,0,0,0,0-.54.48.48,0,0,0-.08-.31c-.05-.06-.13-.05-.24,0a.57.57,0,0,0-.24.27,1.13,1.13,0,0,0-.08.4,2.528,2.528,0,0,0,0,.28,2.088,2.088,0,0,0,.03.26Z" fill="#455a64"/>
          <path id="Path_929" data-name="Path 929" d="M224.75,260.57a.241.241,0,0,1,0-.08v-.05l.91-.52h0a.06.06,0,0,1,0,.05v.23a.25.25,0,0,1,0,.07v.05l-.68.39v.43l.13-.12.11-.06a.57.57,0,0,1,.25-.1.34.34,0,0,1,.2,0,.32.32,0,0,1,.13.15.79.79,0,0,1,0,.29,1.6,1.6,0,0,1,0,.39,1.09,1.09,0,0,1-.14.31.86.86,0,0,1-.2.26l-.24.18a.74.74,0,0,1-.29.12.32.32,0,0,1-.2,0,.3.3,0,0,1-.12-.13.67.67,0,0,1,0-.22.1.1,0,0,1,0-.07v-.05l.2-.11h0a.19.19,0,0,0,.05.1.09.09,0,0,0,.07,0,.15.15,0,0,0,.09,0l.11-.05a.61.61,0,0,0,.22-.23.69.69,0,0,0,.08-.32.21.21,0,0,0-.08-.19.23.23,0,0,0-.22,0l-.12.08-.07.07v.06l-.05.05-.22.13h-.05a.08.08,0,0,1,0-.05Z" fill="#455a64"/>
          <path id="Path_930" data-name="Path 930" d="M224,246.63a.07.07,0,0,1,0-.06.14.14,0,0,1,0-.07l.53-.86v-.06h.05l.19-.11h0v2.08a.1.1,0,0,1,0,.07.07.07,0,0,1,0,.05l-.2.12h0v-1.64l-.35.55h0Z" fill="#455a64"/>
          <path id="Path_931" data-name="Path 931" d="M226.44,245.31a.532.532,0,0,1,0,.13v.31a.57.57,0,0,1,0,.13,1.5,1.5,0,0,1,0,.37,1.23,1.23,0,0,1-.11.34,1.21,1.21,0,0,1-.2.3,1.37,1.37,0,0,1-.29.24.62.62,0,0,1-.3.1.27.27,0,0,1-.2-.06.42.42,0,0,1-.11-.22,1.47,1.47,0,0,1,0-.32,2.258,2.258,0,0,1,0-.27,2.626,2.626,0,0,1,0-.29,2.327,2.327,0,0,1,0-.37,1.229,1.229,0,0,1,.11-.34,1.489,1.489,0,0,1,.2-.31,1.22,1.22,0,0,1,.3-.24.56.56,0,0,1,.29-.1.27.27,0,0,1,.2.06.46.46,0,0,1,.11.22A1,1,0,0,1,226.44,245.31Zm-1,1.12a.54.54,0,0,0,.09.31c0,.06.12,0,.24,0a.62.62,0,0,0,.24-.27,1.49,1.49,0,0,0,.08-.41v-.54a.65.65,0,0,0-.08-.31h-.24a.52.52,0,0,0-.24.27,1.18,1.18,0,0,0-.09.41Z" fill="#455a64"/>
          <path id="Path_932" data-name="Path 932" d="M225.43,273.8a.5.5,0,0,1-.21.4c-.11.06-.21,0-.21-.16a.5.5,0,0,1,.21-.4C225.34,273.57,225.43,273.64,225.43,273.8Z" fill="#455a64"/>
          <path id="Path_933" data-name="Path 933" d="M225.43,271.53a.51.51,0,0,1-.21.41c-.11.06-.21,0-.21-.16a.5.5,0,0,1,.21-.4C225.34,271.31,225.43,271.38,225.43,271.53Z" fill="#455a64"/>
          <path id="Path_934" data-name="Path 934" d="M225.43,269.27a.47.47,0,0,1-.21.4c-.11.07-.21,0-.21-.16a.53.53,0,0,1,.21-.4C225.34,269.05,225.43,269.12,225.43,269.27Z" fill="#455a64"/>
          <path id="Path_935" data-name="Path 935" d="M225.43,267a.5.5,0,0,1-.21.4c-.11.07-.21,0-.21-.16a.53.53,0,0,1,.21-.4C225.34,266.78,225.43,266.86,225.43,267Z" fill="#455a64"/>
          <path id="Path_936" data-name="Path 936" d="M225.43,264.75a.5.5,0,0,1-.21.4c-.11.07-.21,0-.21-.16a.53.53,0,0,1,.21-.4C225.34,264.52,225.43,264.59,225.43,264.75Z" fill="#455a64"/>
          <path id="Path_937" data-name="Path 937" d="M225.43,258.32a.5.5,0,0,1-.21.4c-.11.07-.21,0-.21-.16a.5.5,0,0,1,.21-.4C225.34,258.09,225.43,258.16,225.43,258.32Z" fill="#455a64"/>
          <path id="Path_938" data-name="Path 938" d="M225.43,256.05a.51.51,0,0,1-.21.41c-.11.06-.21,0-.21-.16a.5.5,0,0,1,.21-.4C225.34,255.83,225.43,255.9,225.43,256.05Z" fill="#455a64"/>
          <path id="Path_939" data-name="Path 939" d="M225.43,253.79a.47.47,0,0,1-.21.4c-.11.07-.21,0-.21-.15a.53.53,0,0,1,.21-.41C225.34,253.57,225.43,253.64,225.43,253.79Z" fill="#455a64"/>
          <path id="Path_940" data-name="Path 940" d="M225.43,251.53a.49.49,0,0,1-.21.4c-.11.07-.21,0-.21-.16a.53.53,0,0,1,.21-.4C225.34,251.3,225.43,251.38,225.43,251.53Z" fill="#455a64"/>
          <path id="Path_941" data-name="Path 941" d="M225.43,249.27a.5.5,0,0,1-.21.4c-.11.07-.21,0-.21-.16a.53.53,0,0,1,.21-.4C225.34,249,225.43,249.11,225.43,249.27Z" fill="#455a64"/>
          <path id="Path_942" data-name="Path 942" d="M232.21,265.39l2.19-1.26v-.29l-2.19,1.26Zm0-2.54,2.19-1.26v-.29l-2.19,1.27Zm0,5.07,2.19-1.26v-.28l-2.19,1.26Zm0,2.54,2.19-1.26v-.29l-2.19,1.27Zm0,2.54,2.19-1.26v-.29l-2.19,1.26Zm0-12.69,2.19-1.26v-.28L232.21,260Zm0-10.14,2.19-1.26v-.29l-2.19,1.26Zm0-2.54,2.19-1.26v-.28l-2.19,1.26Zm0-5.36v.29l2.19-1.26V241Zm0,2.82,2.19-1.26v-.28l-2.19,1.26Zm0,10.15L234.4,254v-.28L232.21,255Zm0,2.54,2.19-1.26v-.29l-2.19,1.26Zm0-5.08,2.19-1.26v-.28l-2.19,1.26Z" fill="#fafafa"/>
          <path id="Path_943" data-name="Path 943" d="M227.58,268.06l2.19-1.26v-.29l-2.19,1.27Zm0-2.54,2.19-1.26V264l-2.19,1.26Zm0,5.08,2.19-1.27v-.28l-2.19,1.26Zm0,2.53,2.19-1.26v-.28l-2.19,1.26Zm0,2.54,2.19-1.26v-.29l-2.19,1.27Zm0-12.68,2.19-1.27v-.28l-2.19,1.26Zm0-10.15,2.19-1.26v-.29l-2.19,1.27Zm0-2.54,2.19-1.26v-.28L227.58,250Zm0-5.35v.28l2.19-1.26v-.29Zm0,2.82,2.19-1.27v-.28l-2.19,1.26Zm0,10.14,2.19-1.26v-.28l-2.19,1.26Zm0,2.54,2.19-1.26v-.29l-2.19,1.27Zm0-5.07,2.19-1.26v-.29l-2.19,1.26Z" fill="#fafafa"/>
          <path id="Path_944" data-name="Path 944" d="M233.31,328.08A5.55,5.55,0,0,1,231,332.5c-1.28.74-2.31-.05-2.31-1.75a5.54,5.54,0,0,1,2.31-4.42C232.27,325.59,233.31,326.37,233.31,328.08Z" fill="#263238"/>
          <path id="Path_945" data-name="Path 945" d="M222.84,159.74l-1.79,1.03.9-2.66Z" fill="#455a64"/>
          <path id="Path_946" data-name="Path 946" d="M222.84,161.63l-1.79,1.04.9-2.66Z" fill="#455a64"/>
          <path id="Path_947" data-name="Path 947" d="M221.05,176.6l1.79-1.03-.89,2.65Z" fill="#455a64"/>
          <path id="Path_948" data-name="Path 948" d="M221.05,174.7l1.79-1.03-.89,2.66Z" fill="#455a64"/>
          <path id="Path_949" data-name="Path 949" d="M160.33,202.22V295c0,1-.67,1.35-1.5.88l-32.19-18.6a3.28,3.28,0,0,1-1.51-2.6V181.9c0-1,.67-1.35,1.51-.88l.62.37,31.57,18.21A3.36,3.36,0,0,1,160.33,202.22Z"/>
          <path id="Path_950" data-name="Path 950" d="M160.33,202.22v92L128.78,276a3.39,3.39,0,0,1-1.52-2.62v-92l31.57,18.21A3.36,3.36,0,0,1,160.33,202.22Z" fill="#88f5b4"/>
          <path id="Path_951" data-name="Path 951" d="M133,184.69l-5.74-3.3v92a3.39,3.39,0,0,0,1.52,2.62l4.22,2.43Z" fill="#fafafa"/>
          <path id="Path_952" data-name="Path 952" d="M143.36,196.8h0a7.58,7.58,0,0,1,3.74,1.2c5.59,3.22,10.14,11.73,10.14,19v59c0,4.7-1.92,7.61-5,7.61a7.65,7.65,0,0,1-3.76-1.16c-5.61-3.24-10.17-11.76-10.17-19v-59c0-4.7,1.93-7.63,5-7.63m0-1.39c-3.78,0-6.42,3.36-6.42,9v59c0,7.69,4.86,16.74,10.86,20.2a9,9,0,0,0,4.46,1.36c3.78,0,6.41-3.35,6.41-9v-59c0-7.69-4.85-16.73-10.84-20.18a9,9,0,0,0-4.43-1.34Z" opacity="0.2"/>
          <path id="Path_953" data-name="Path 953" d="M145.12,225.6l5.29,3.05a6.65,6.65,0,0,1,3,5.22V253c0,1.93-1.35,2.71-3,1.75l-5.29-3.06a6.67,6.67,0,0,1-3-5.22V227.34C142.11,225.42,143.46,224.64,145.12,225.6Z"/>
          <path id="Path_954" data-name="Path 954" d="M141,206.81c0-4.31,3-6.06,6.77-3.9a15,15,0,0,1,6.76,11.72c0,4.31-3,6.06-6.76,3.9A15,15,0,0,1,141,206.81Z" opacity="0.3"/>
          <path id="Path_955" data-name="Path 955" d="M141,265.92c0-4.32,3-6.07,6.77-3.91a15,15,0,0,1,6.76,11.72c0,4.31-3,6.06-6.76,3.91A15,15,0,0,1,141,265.92Z" opacity="0.3"/>
          <path id="Path_956" data-name="Path 956" d="M152.57,215.76a7.56,7.56,0,0,0,1.73.73,7.07,7.07,0,0,0,.23-1.86,15,15,0,0,0-6.76-11.72,7.141,7.141,0,0,0-1.73-.73,7,7,0,0,0-.24,1.86,15,15,0,0,0,6.77,11.72Z" opacity="0.3"/>
          <path id="Path_957" data-name="Path 957" d="M152.57,274.86a7.14,7.14,0,0,0,1.73.73,7.07,7.07,0,0,0,.23-1.86A15,15,0,0,0,147.77,262a7.561,7.561,0,0,0-1.73-.73,7,7,0,0,0-.24,1.86,15,15,0,0,0,6.77,11.73Z" opacity="0.3"/>
          <path id="Path_958" data-name="Path 958" d="M149.55,207.15a1.17,1.17,0,0,1,1.18.11,3.72,3.72,0,0,1,1.68,2.91,1.17,1.17,0,0,1-.49,1.08l-5.26,3a1.19,1.19,0,0,1-1.19-.11,3.73,3.73,0,0,1-1.67-2.91,1.17,1.17,0,0,1,.49-1.08Z" fill="#263238"/>
          <path id="Path_959" data-name="Path 959" d="M147.15,213.21c0,1.07-.75,1.5-1.68,1a3.73,3.73,0,0,1-1.67-2.91c0-1.07.75-1.5,1.67-1A3.68,3.68,0,0,1,147.15,213.21Z" fill="#37474f"/>
          <path id="Path_960" data-name="Path 960" d="M149.56,265.77a1.19,1.19,0,0,1,1.19.12,3.7,3.7,0,0,1,1.67,2.9,1.17,1.17,0,0,1-.49,1.09l-5.26,3a1.18,1.18,0,0,1-1.18-.12,3.7,3.7,0,0,1-1.67-2.9,1.17,1.17,0,0,1,.49-1.09Z" fill="#263238"/>
          <path id="Path_961" data-name="Path 961" d="M147.17,271.83c0,1.07-.75,1.5-1.68,1a3.7,3.7,0,0,1-1.67-2.9c0-1.07.75-1.51,1.67-1A3.68,3.68,0,0,1,147.17,271.83Z" fill="#37474f"/>
        </g>
        <g id="freepik--plug--inject-50-3" data-name="freepik--plug--inject-50">
          <g id="freepik--plug--inject-50-4" data-name="freepik--plug--inject-50">
            <path id="Path_962" data-name="Path 962" d="M169.58,132a3.52,3.52,0,0,0,2.08,2.9,11.1,11.1,0,0,0,10,0,3.52,3.52,0,0,0,2.09-2.92V108.75H169.54Z" fill="#88f5b4"/>
            <path id="Path_963" data-name="Path 963" d="M178.76,135.85a9,9,0,0,0,2.94-1,3.52,3.52,0,0,0,2.09-2.92V108.75h-5Z" opacity="0.1"/>
            <path id="Path_964" data-name="Path 964" d="M181.7,111.65a11.1,11.1,0,0,1-10,0,3.06,3.06,0,0,1,0-5.8,11.1,11.1,0,0,1,10,0,3.06,3.06,0,0,1,0,5.8Z" fill="#88f5b4"/>
            <path id="Path_965" data-name="Path 965" d="M181.7,111.65a11.1,11.1,0,0,1-10,0,3.06,3.06,0,0,1,0-5.8,11.1,11.1,0,0,1,10,0,3.06,3.06,0,0,1,0,5.8Z" fill="#fff" opacity="0.2"/>
            <path id="Path_966" data-name="Path 966" d="M171.33,107.77A2.69,2.69,0,0,0,172.9,110a8.43,8.43,0,0,0,7.58,0,2.68,2.68,0,0,0,1.57-2.21V96.46H171.33Z" fill="#37474f"/>
            <path id="Path_967" data-name="Path 967" d="M178.26,110.71a6.77,6.77,0,0,0,2.22-.75,2.68,2.68,0,0,0,1.57-2.21V96.46h-3.79Z" opacity="0.1"/>
            <path id="Path_968" data-name="Path 968" d="M180.48,98.65a8.37,8.37,0,0,1-7.58,0,2.69,2.69,0,0,1-1.57-2.17,2.66,2.66,0,0,1,1.57-2.21,8.43,8.43,0,0,1,7.58,0,2.31,2.31,0,0,1,0,4.38Z" fill="#455a64"/>
          </g>
          <path id="Path_969" data-name="Path 969" d="M197.54,70c-2-1.18-4.66-1-7.37.59l-5.73,3.32c-5.13,3-9.14,9.25-9.14,14.32v8.23h0a.7.7,0,0,0,.41.56,2.2,2.2,0,0,0,2,0,.69.69,0,0,0,.4-.57h0V88.23c0-4,3.55-9.49,7.75-11.91L191.57,73c1.8-1.05,3.43-1.26,4.57-.6s1.78,2.18,1.78,4.26v41.71L200.7,120V76.67C200.7,73.55,199.58,71.18,197.54,70Z" fill="#37474f"/>
        </g>
      </g>
      <g id="freepik--device-3--inject-50">
        <g id="freepik--Cassette--inject-50">
          <path id="Path_970" data-name="Path 970" d="M383.97,312.21l-11.1,11.28-74.09-42.78,19.53-6.4Z" fill="#88f5b4"/>
          <path id="Path_971" data-name="Path 971" d="M383.97,312.21l-11.1,11.28-74.09-42.78,19.53-6.4Z" fill="#fff" opacity="0.8"/>
          <path id="Path_972" data-name="Path 972" d="M298.78,280.71v1.85l74.09,42.77v-1.84Z" fill="#88f5b4"/>
          <path id="Path_973" data-name="Path 973" d="M298.78,280.71v1.85l74.09,42.77v-1.84Z" fill="#fff" opacity="0.6"/>
          <path id="Path_974" data-name="Path 974" d="M383.97,312.21v1.85l-11.1,11.27v-1.84Z" fill="#88f5b4"/>
          <path id="Path_975" data-name="Path 975" d="M383.97,312.21v1.85l-11.1,11.27v-1.84Z" fill="#fff" opacity="0.5"/>
          <path id="Path_976" data-name="Path 976" d="M453.85,281a2,2,0,0,0-1.19-1.59l-101-58.31a5.46,5.46,0,0,0-4.89-.19L285,256.6a1,1,0,0,0-.2.13l-.17.14a.669.669,0,0,0-.14.15,1.09,1.09,0,0,0-.28.47,1.07,1.07,0,0,0-.06.32h0v13.51a2,2,0,0,0,1.2,1.61l101,58.3a5.46,5.46,0,0,0,4.89.2L453,295.76a1.46,1.46,0,0,0,.84-1.21C453.87,294,453.85,281.47,453.85,281Zm-65.76-3.83a14.64,14.64,0,0,1,13.3,0c3.67,2.11,3.67,5.55,0,7.68a14.76,14.76,0,0,1-13.3,0c-3.68-2.12-3.68-5.56,0-7.67ZM342.26,250.7a14.76,14.76,0,0,1,13.3,0c3.68,2.13,3.68,5.57,0,7.69a14.7,14.7,0,0,1-13.3,0c-3.67-2.11-3.67-5.55,0-7.68Z" fill="#88f5b4"/>
          <path id="Path_977" data-name="Path 977" d="M453.85,281a2,2,0,0,0-1.19-1.59l-101-58.31a5.46,5.46,0,0,0-4.89-.19L285,256.6a1,1,0,0,0-.2.13l-.17.14a.669.669,0,0,0-.14.15,1.09,1.09,0,0,0-.28.47,1.07,1.07,0,0,0-.06.32h0v13.51a2,2,0,0,0,1.2,1.61l101,58.3a5.46,5.46,0,0,0,4.89.2L453,295.76a1.46,1.46,0,0,0,.84-1.21C453.87,294,453.85,281.47,453.85,281Zm-65.76-3.83a14.64,14.64,0,0,1,13.3,0c3.67,2.11,3.67,5.55,0,7.68a14.76,14.76,0,0,1-13.3,0c-3.68-2.12-3.68-5.56,0-7.67ZM342.26,250.7a14.76,14.76,0,0,1,13.3,0c3.68,2.13,3.68,5.57,0,7.69a14.7,14.7,0,0,1-13.3,0c-3.67-2.11-3.67-5.55,0-7.68Z" fill="#fff" opacity="0.6"/>
          <path id="Path_978" data-name="Path 978" d="M453.85,294.55a1.46,1.46,0,0,1-.84,1.21L391.2,331.45a4.55,4.55,0,0,1-2.27.48V318.4a4.43,4.43,0,0,0,2.27-.48L453,282.24a1.47,1.47,0,0,0,.84-1.23C453.85,281.47,453.87,294,453.85,294.55Z" fill="#88f5b4" opacity="0.5"/>
          <path id="Path_979" data-name="Path 979" d="M452.66,279.42l-101-58.31a5.46,5.46,0,0,0-4.89-.19L285,256.6a1,1,0,0,0-.2.13l-.17.14a.669.669,0,0,0-.14.15,1.09,1.09,0,0,0-.28.47,1.07,1.07,0,0,0-.06.32h0a2,2,0,0,0,1.2,1.59l101,58.3a5.46,5.46,0,0,0,4.89.2L453,282.24a1.47,1.47,0,0,0,.84-1.23A2,2,0,0,0,452.66,279.42Zm-97.1-21a14.7,14.7,0,0,1-13.3,0c-3.67-2.12-3.67-5.56,0-7.69a14.76,14.76,0,0,1,13.3,0c3.68,2.11,3.68,5.55,0,7.67Zm45.83,26.46a14.76,14.76,0,0,1-13.3,0c-3.68-2.13-3.68-5.57,0-7.68a14.64,14.64,0,0,1,13.3,0c3.67,2.09,3.67,5.53,0,7.66Z" fill="#88f5b4"/>
          <path id="Path_980" data-name="Path 980" d="M452.66,279.42l-101-58.31a5.46,5.46,0,0,0-4.89-.19L285,256.6a1,1,0,0,0-.2.13l-.17.14a.669.669,0,0,0-.14.15,1.09,1.09,0,0,0-.28.47,1.07,1.07,0,0,0-.06.32h0a2,2,0,0,0,1.2,1.59l101,58.3a5.46,5.46,0,0,0,4.89.2L453,282.24a1.47,1.47,0,0,0,.84-1.23A2,2,0,0,0,452.66,279.42Zm-64.57-2.24a14.64,14.64,0,0,1,13.3,0c2.08,1.2,3,2.82,2.7,4.38a3.7,3.7,0,0,1-.66,1.52c-.09.13-.17.24-.27.36a6.2,6.2,0,0,1-.91.84,9.9,9.9,0,0,1-.86.58,14.76,14.76,0,0,1-13.3,0l-.11-.07-.6-.39-.15-.12a5.73,5.73,0,0,1-.91-.84,4,4,0,0,1-.27-.34h0a3.86,3.86,0,0,1-.67-1.52c-.28-1.58.62-3.2,2.71-4.4Zm-45.83-26.47a14.76,14.76,0,0,1,13.3,0c2.09,1.21,3,2.83,2.71,4.4a3.7,3.7,0,0,1-.66,1.52l-.27.35a5.7,5.7,0,0,1-.91.84,6.26,6.26,0,0,1-.87.58,14.7,14.7,0,0,1-13.3,0l-.1-.06a5.354,5.354,0,0,1-.61-.4l-.14-.11a5.339,5.339,0,0,1-.91-.85,2.06,2.06,0,0,1-.27-.35,3.47,3.47,0,0,1-.67-1.52c-.28-1.57.63-3.19,2.7-4.4Z" fill="#fff" opacity="0.75"/>
          <path id="Path_981" data-name="Path 981" d="M442,280.43l-92.09-53.17a3.24,3.24,0,0,0-2.93-.12l-42.13,24.32c-.75.43-.66,1.19.21,1.69l92.09,53.17a3.25,3.25,0,0,0,2.92.12l42.14-24.32C443,281.68,442.89,280.93,442,280.43Zm-36.82,5.95-1.19.68c-4.39,2.54-12.07,2.22-17.16-.71L339.68,259.1c-5.09-2.93-5.64-7.37-1.24-9.91l1.18-.67c4.41-2.55,12.09-2.22,17.16.7L404,276.47c5.05,2.94,5.61,7.36,1.21,9.91Z" fill="#455a64"/>
          <path id="Path_982" data-name="Path 982" d="M293.75,258.09a1.36,1.36,0,0,0-.72-.85,3.9,3.9,0,0,0-3.55,0,1.39,1.39,0,0,0-.72.85,1.17,1.17,0,0,1,.72-1.21,4,4,0,0,1,3.55,0A1.17,1.17,0,0,1,293.75,258.09Z" fill="#88f5b4"/>
          <path id="Path_983" data-name="Path 983" d="M293.75,258.09a1.32,1.32,0,0,1-.72.84,3.84,3.84,0,0,1-3.55,0,1.35,1.35,0,0,1-.72-.84,1.39,1.39,0,0,1,.72-.85,3.9,3.9,0,0,1,3.55,0A1.36,1.36,0,0,1,293.75,258.09Z" fill="#455a64"/>
          <path id="Path_984" data-name="Path 984" d="M292.47,257.9h-1v-.51a.19.19,0,0,0-.19-.19.18.18,0,0,0-.19.19v.51h-1a.18.18,0,0,0-.18.19.19.19,0,0,0,.18.19h1v.51a.19.19,0,0,0,.19.19.2.2,0,0,0,.19-.19v-.51h1a.19.19,0,0,0,.19-.19.18.18,0,0,0-.19-.19Z" fill="#37474f"/>
          <path id="Path_985" data-name="Path 985" d="M351.57,224.71a1.43,1.43,0,0,0-.72-.85,4,4,0,0,0-3.56,0,1.46,1.46,0,0,0-.72.85,1.16,1.16,0,0,1,.72-1.2,3.92,3.92,0,0,1,3.56,0,1.16,1.16,0,0,1,.72,1.2Z" fill="#88f5b4"/>
          <path id="Path_986" data-name="Path 986" d="M351.57,224.71a1.37,1.37,0,0,1-.72.85,3.92,3.92,0,0,1-3.56,0,1.41,1.41,0,0,1-.72-.85,1.46,1.46,0,0,1,.72-.85,4,4,0,0,1,3.56,0,1.43,1.43,0,0,1,.72.85Z" fill="#455a64"/>
          <path id="Path_987" data-name="Path 987" d="M350.29,224.52h-1V224a.19.19,0,0,0-.19-.19.2.2,0,0,0-.19.19v.51h-1a.19.19,0,0,0-.19.19.18.18,0,0,0,.19.19h1v.51a.19.19,0,0,0,.19.19.18.18,0,0,0,.19-.19v-.51h1a.19.19,0,0,0,.19-.19A.2.2,0,0,0,350.29,224.52Z" fill="#37474f"/>
          <path id="Path_988" data-name="Path 988" d="M391.42,314.52a1.43,1.43,0,0,0-.72-.85,4,4,0,0,0-3.56,0,1.4,1.4,0,0,0-.71.85c-.1-.42.14-.87.71-1.2a3.92,3.92,0,0,1,3.56,0,1.16,1.16,0,0,1,.72,1.2Z" fill="#88f5b4"/>
          <path id="Path_989" data-name="Path 989" d="M391.42,314.52a1.37,1.37,0,0,1-.72.85,3.92,3.92,0,0,1-3.56,0,1.35,1.35,0,0,1-.71-.85,1.4,1.4,0,0,1,.71-.85,4,4,0,0,1,3.56,0,1.43,1.43,0,0,1,.72.85Z" fill="#455a64"/>
          <path id="Path_990" data-name="Path 990" d="M390.14,314.33h-1v-.51a.19.19,0,0,0-.19-.19.2.2,0,0,0-.19.19v.51h-1a.2.2,0,0,0-.19.19.19.19,0,0,0,.19.19h1v.51a.19.19,0,0,0,.19.19.18.18,0,0,0,.19-.19v-.51h1a.19.19,0,0,0,.19-.19A.2.2,0,0,0,390.14,314.33Z" fill="#37474f"/>
          <path id="Path_991" data-name="Path 991" d="M449.23,281.15a1.35,1.35,0,0,0-.72-.86,4,4,0,0,0-3.55,0,1.38,1.38,0,0,0-.72.86,1.17,1.17,0,0,1,.72-1.21,4,4,0,0,1,3.55,0,1.16,1.16,0,0,1,.72,1.21Z" fill="#88f5b4"/>
          <path id="Path_992" data-name="Path 992" d="M449.23,281.15a1.32,1.32,0,0,1-.72.84,3.9,3.9,0,0,1-3.55,0,1.35,1.35,0,0,1-.72-.84,1.38,1.38,0,0,1,.72-.86,4,4,0,0,1,3.55,0A1.35,1.35,0,0,1,449.23,281.15Z" fill="#455a64"/>
          <path id="Path_993" data-name="Path 993" d="M448,281h-1v-.51a.19.19,0,0,0-.19-.19.18.18,0,0,0-.19.19V281h-1a.18.18,0,0,0-.19.19.19.19,0,0,0,.19.19h1v.51a.19.19,0,0,0,.19.19.2.2,0,0,0,.19-.19v-.51h1a.19.19,0,0,0,.19-.19A.18.18,0,0,0,448,281Z" fill="#37474f"/>
          <path id="Path_994" data-name="Path 994" d="M390.94,271.59l-12.52,7.23-3.97-2.29-1.11-.65-20.62-11.9,12.51-7.22,16.75,9.66.83.47Z" fill="#fafafa"/>
          <path id="Path_995" data-name="Path 995" d="M390.57,271.38a22.37,22.37,0,0,0-8,2.61,10.25,10.25,0,0,0-4.52,4.62l.37.21,12.51-7.23Z" fill="#37474f"/>
          <path id="Path_996" data-name="Path 996" d="M382.81,266.89c-1.16,3.49-3.95,6.84-8.36,9.64l-1.11-.64L352.72,264l12.51-7.22L382,266.41Z" fill="#263238"/>
          <path id="Path_997" data-name="Path 997" d="M366.25,271.79a39.382,39.382,0,0,0,7.07-3.14,26.558,26.558,0,0,0,5.44-4.09l-13.53-7.81L352.72,264Z" fill="#37474f"/>
          <path id="Path_998" data-name="Path 998" d="M404.09,281.56a6.79,6.79,0,0,0-2.39-2.17,15.41,15.41,0,0,0-13.92,0,6.82,6.82,0,0,0-2.4,2.17c-.28-1.56.63-3.18,2.71-4.38a14.64,14.64,0,0,1,13.3,0C403.47,278.38,404.38,280,404.09,281.56Z" fill="#37474f"/>
          <path id="Path_999" data-name="Path 999" d="M402.58,284a1.812,1.812,0,0,1-.33.29,9.9,9.9,0,0,1-.86.58,3.586,3.586,0,0,1-.34.17,15.72,15.72,0,0,0-12.63,0l-.33-.17-.11-.07-.6-.39-.15-.12a2.28,2.28,0,0,1-.34-.29,8.137,8.137,0,0,1,1.2-.83,14.64,14.64,0,0,1,13.3,0A8,8,0,0,1,402.58,284Z" fill="#37474f"/>
          <path id="Path_1000" data-name="Path 1000" d="M401.7,279.39a15.41,15.41,0,0,0-13.92,0,6.82,6.82,0,0,0-2.4,2.17h0a3.7,3.7,0,0,0,.67,1.51h0l.27.34a6.3,6.3,0,0,0,.92.84,6.118,6.118,0,0,1,.88-.66l1.08.62,1.19-.7-1-.57a13.7,13.7,0,0,1,5.34-1,8.344,8.344,0,0,1,1.32.07l-.33.72,1.63.26.35-.74a11.23,11.23,0,0,1,3.37,1.2,6.76,6.76,0,0,1,1.17.84,7.422,7.422,0,0,0,.91-.84c-.15-.14-.32-.26-.47-.4h0l.68-.1v.14a3.549,3.549,0,0,0,.66-1.51h0a6.79,6.79,0,0,0-2.32-2.19Z" fill="#e0e0e0"/>
          <path id="Path_1001" data-name="Path 1001" d="M401.7,279.39a15.41,15.41,0,0,0-13.92,0,6.82,6.82,0,0,0-2.4,2.17h0a3.7,3.7,0,0,0,.67,1.51h0l.27.34a6.3,6.3,0,0,0,.92.84,6.118,6.118,0,0,1,.88-.66l1.08.62,1.19-.7-1-.57a13.7,13.7,0,0,1,5.34-1,8.344,8.344,0,0,1,1.32.07l-.33.72,1.63.26.35-.74a11.23,11.23,0,0,1,3.37,1.2,6.76,6.76,0,0,1,1.17.84,7.422,7.422,0,0,0,.91-.84c-.15-.14-.32-.26-.47-.4h0l.68-.1v.14a3.549,3.549,0,0,0,.66-1.51h0a6.79,6.79,0,0,0-2.32-2.19Z" opacity="0.1"/>
          <path id="Path_1002" data-name="Path 1002" d="M401.7,279.39a15.41,15.41,0,0,0-13.92,0,6.82,6.82,0,0,0-2.4,2.17h0a3.7,3.7,0,0,0,.67,1.51,4.45,4.45,0,0,1,2.07-2.44l1.08.62,1.19-.7-1-.57a13.7,13.7,0,0,1,5.34-1,8.344,8.344,0,0,1,1.32.07l-.33.72,1.63.26.35-.74a11.231,11.231,0,0,1,3.37,1.2A6,6,0,0,1,402.9,282l-1.47.23h-.16l.44.95,1-.16.68-.1v.14a3.55,3.55,0,0,0,.66-1.51h0A6.79,6.79,0,0,0,401.7,279.39Z" fill="#f5f5f5"/>
          <path id="Path_1003" data-name="Path 1003" d="M388.12,280.64l1.08.62v2.98l-1.08-.62Z" fill="#ebebeb"/>
          <path id="Path_1004" data-name="Path 1004" d="M390.39,280.56v2.98l-1.19.7v-2.98Z" fill="#e0e0e0"/>
          <path id="Path_1005" data-name="Path 1005" d="M395.73,279.74v2.98l1.63.26V280Z" fill="#ebebeb"/>
          <path id="Path_1006" data-name="Path 1006" d="M397.71,279.26v2.98l-.35.74V280Z" fill="#ebebeb"/>
          <path id="Path_1007" data-name="Path 1007" d="M397.71,279.26v2.98l-.35.74V280Z" fill="#e0e0e0"/>
          <path id="Path_1008" data-name="Path 1008" d="M401.27,282.25v2.67c.15-.07.3-.18.44-.26V283.2Z" fill="#ebebeb"/>
          <path id="Path_1009" data-name="Path 1009" d="M403.39,282.94v.21a6.169,6.169,0,0,1-1.68,1.51V283.2Z" fill="#e0e0e0"/>
          <path id="Path_1010" data-name="Path 1010" d="M403.39,283.15v-.21l.04.14Z" fill="#e0e0e0"/>
          <path id="Path_1011" data-name="Path 1011" d="M403.39,283.15v-.21l.04.14Z" opacity="0.1"/>
          <path id="Path_1012" data-name="Path 1012" d="M358.27,255.1a6.9,6.9,0,0,0-2.39-2.18,15.41,15.41,0,0,0-13.92,0,6.85,6.85,0,0,0-2.4,2.18c-.28-1.56.63-3.19,2.71-4.39a14.68,14.68,0,0,1,13.29,0C357.65,251.91,358.55,253.54,358.27,255.1Z" fill="#37474f"/>
          <path id="Path_1013" data-name="Path 1013" d="M356.76,257.53a3,3,0,0,1-.33.29,8.747,8.747,0,0,1-.87.57,2.569,2.569,0,0,1-.33.18,15.72,15.72,0,0,0-12.63,0l-.33-.18-.11-.06c-.21-.14-.41-.26-.6-.4l-.15-.11a3.067,3.067,0,0,1-.34-.29,8.158,8.158,0,0,1,1.2-.84,14.68,14.68,0,0,1,13.29,0,7.662,7.662,0,0,1,1.2.84Z" fill="#37474f"/>
          <path id="Path_1014" data-name="Path 1014" d="M355.88,252.92a15.41,15.41,0,0,0-13.92,0,6.85,6.85,0,0,0-2.4,2.18h0a3.5,3.5,0,0,0,.67,1.51h0c.08.12.18.23.27.35a6.3,6.3,0,0,0,.92.84,7,7,0,0,1,.88-.67l1.07.63,1.2-.7-1-.57a13.71,13.71,0,0,1,5.34-1,7.37,7.37,0,0,1,1.32.08l-.33.72,1.63.26.35-.74a11,11,0,0,1,3.37,1.2,6.761,6.761,0,0,1,1.17.84,7.422,7.422,0,0,0,.91-.84c-.15-.14-.32-.27-.47-.4h0l.67-.1a.781.781,0,0,1,.05.14,3.6,3.6,0,0,0,.66-1.51h0a6.9,6.9,0,0,0-2.36-2.22Z" fill="#e0e0e0"/>
          <path id="Path_1015" data-name="Path 1015" d="M355.88,252.92a15.41,15.41,0,0,0-13.92,0,6.85,6.85,0,0,0-2.4,2.18h0a3.5,3.5,0,0,0,.67,1.51h0c.08.12.18.23.27.35a6.3,6.3,0,0,0,.92.84,7,7,0,0,1,.88-.67l1.07.63,1.2-.7-1-.57a13.71,13.71,0,0,1,5.34-1,7.37,7.37,0,0,1,1.32.08l-.33.72,1.63.26.35-.74a11,11,0,0,1,3.37,1.2,6.761,6.761,0,0,1,1.17.84,7.422,7.422,0,0,0,.91-.84c-.15-.14-.32-.27-.47-.4h0l.67-.1a.781.781,0,0,1,.05.14,3.6,3.6,0,0,0,.66-1.51h0a6.9,6.9,0,0,0-2.36-2.22Z" opacity="0.1"/>
          <path id="Path_1016" data-name="Path 1016" d="M355.88,252.92a15.41,15.41,0,0,0-13.92,0,6.85,6.85,0,0,0-2.4,2.18h0a3.5,3.5,0,0,0,.67,1.51,4.5,4.5,0,0,1,2.07-2.45l1.07.63,1.2-.7-1-.57a13.71,13.71,0,0,1,5.34-1.05,7.368,7.368,0,0,1,1.32.08l-.33.72,1.63.26.35-.74a11,11,0,0,1,3.37,1.2,5.88,5.88,0,0,1,1.82,1.54l-1.47.23h-.16l.44,1,1-.16.67-.1a.781.781,0,0,1,.05.14,3.6,3.6,0,0,0,.66-1.51h0a6.9,6.9,0,0,0-2.38-2.21Z" fill="#f5f5f5"/>
          <path id="Path_1017" data-name="Path 1017" d="M342.3,254.17l1.07.63v2.98l-1.07-.63Z" fill="#ebebeb"/>
          <path id="Path_1018" data-name="Path 1018" d="M344.57,254.1v2.98l-1.2.7V254.8Z" fill="#e0e0e0"/>
          <path id="Path_1019" data-name="Path 1019" d="M349.91,253.28v2.98l1.63.26v-2.98Z" fill="#ebebeb"/>
          <path id="Path_1020" data-name="Path 1020" d="M351.89,252.8v2.98l-.35.74v-2.98Z" fill="#ebebeb"/>
          <path id="Path_1021" data-name="Path 1021" d="M351.89,252.8v2.98l-.35.74v-2.98Z" fill="#e0e0e0"/>
          <path id="Path_1022" data-name="Path 1022" d="M355.45,255.79v2.67c.15-.08.3-.18.44-.27v-1.45Z" fill="#ebebeb"/>
          <path id="Path_1023" data-name="Path 1023" d="M357.56,256.48v.2a5.83,5.83,0,0,1-1.67,1.51v-1.45Z" fill="#e0e0e0"/>
          <path id="Path_1024" data-name="Path 1024" d="M357.56,256.68v-.2l.05.14Z" fill="#e0e0e0"/>
          <path id="Path_1025" data-name="Path 1025" d="M357.56,256.68v-.2l.05.14Z" opacity="0.1"/>
          <path id="Path_1026" data-name="Path 1026" d="M383.97,296.84l-11.1,11.27-74.09-42.77,19.53-6.41Z" fill="#88f5b4"/>
          <path id="Path_1027" data-name="Path 1027" d="M383.97,296.84l-11.1,11.27-74.09-42.77,19.53-6.41Z" fill="#fff" opacity="0.8"/>
          <path id="Path_1028" data-name="Path 1028" d="M298.78,265.34v1.85l74.09,42.77v-1.85Z" fill="#88f5b4"/>
          <path id="Path_1029" data-name="Path 1029" d="M298.78,265.34v1.85l74.09,42.77v-1.85Z" fill="#fff" opacity="0.6"/>
          <path id="Path_1030" data-name="Path 1030" d="M383.97,296.84v1.85l-11.1,11.27v-1.85Z" fill="#88f5b4"/>
          <path id="Path_1031" data-name="Path 1031" d="M383.97,296.84v1.85l-11.1,11.27v-1.85Z" fill="#fff" opacity="0.5"/>
          <g id="Group_19" data-name="Group 19" opacity="0.5">
            <path id="Path_1032" data-name="Path 1032" d="M330.29,275.31l-3.36,1.94a1.31,1.31,0,0,1-1.17-.05l-3.19-1.84c-.34-.2-.38-.5-.08-.67l3.36-1.94a1.29,1.29,0,0,1,1.16,0l3.19,1.85C330.55,274.84,330.59,275.14,330.29,275.31Z" fill="#88f5b4"/>
            <path id="Path_1033" data-name="Path 1033" d="M316.47,268.64c1.27.73,1.27,1.92,0,2.66a5.1,5.1,0,0,1-4.6,0c-1.27-.74-1.27-1.93,0-2.66A5,5,0,0,1,316.47,268.64Z" fill="#88f5b4"/>
            <path id="Path_1034" data-name="Path 1034" d="M355.59,289.92l-3.36,1.94c-.3.17-.26.47.09.67l3.19,1.85a1.29,1.29,0,0,0,1.16.05l3.36-1.95c.3-.17.26-.47-.08-.67L356.76,290a1.31,1.31,0,0,0-1.17-.08Z" fill="#88f5b4"/>
            <path id="Path_1035" data-name="Path 1035" d="M367.15,297.9a5,5,0,0,0-4.6,0c-1.27.73-1.27,1.92,0,2.66a5.1,5.1,0,0,0,4.6,0C368.42,299.82,368.42,298.63,367.15,297.9Z" fill="#88f5b4"/>
          </g>
          <g id="Group_20" data-name="Group 20" opacity="0.5">
            <path id="Path_1036" data-name="Path 1036" d="M326.93,277.25l2.07-1.19-2-1.15a1.29,1.29,0,0,0-1.16-.05l-2.07,1.2,2,1.14a1.31,1.31,0,0,0,1.16.05Z" fill="#88f5b4"/>
            <path id="Path_1037" data-name="Path 1037" d="M311.87,270.75a4.4,4.4,0,0,0-.39.27,3,3,0,0,0,.39.28,5.1,5.1,0,0,0,4.6,0,3,3,0,0,0,.39-.28,4.386,4.386,0,0,0-.39-.27,5.1,5.1,0,0,0-4.6,0Z" fill="#88f5b4"/>
            <path id="Path_1038" data-name="Path 1038" d="M356.67,294.43l2.07-1.2-2-1.15a1.31,1.31,0,0,0-1.17,0l-2.06,1.19,2,1.15a1.29,1.29,0,0,0,1.16.01Z" fill="#88f5b4"/>
            <path id="Path_1039" data-name="Path 1039" d="M362.55,300a4.4,4.4,0,0,0-.39.27,3,3,0,0,0,.39.28,5.1,5.1,0,0,0,4.6,0,3,3,0,0,0,.39-.28,4.39,4.39,0,0,0-.39-.27,5.1,5.1,0,0,0-4.6,0Z" fill="#88f5b4"/>
          </g>
          <path id="Path_1040" data-name="Path 1040" d="M347.86,281.35a1.36,1.36,0,0,0-.72-.85,3.9,3.9,0,0,0-3.55,0,1.39,1.39,0,0,0-.72.85,1.17,1.17,0,0,1,.72-1.21,4,4,0,0,1,3.55,0C347.72,280.47,348,280.92,347.86,281.35Z" fill="#88f5b4"/>
          <path id="Path_1041" data-name="Path 1041" d="M347.86,281.35a1.32,1.32,0,0,1-.72.84,3.84,3.84,0,0,1-3.55,0,1.35,1.35,0,0,1-.72-.84,1.39,1.39,0,0,1,.72-.85,3.9,3.9,0,0,1,3.55,0A1.36,1.36,0,0,1,347.86,281.35Z" fill="#455a64"/>
          <path id="Path_1042" data-name="Path 1042" d="M346.58,281.16h-1v-.51a.18.18,0,0,0-.19-.19.19.19,0,0,0-.19.19v.51h-1a.18.18,0,0,0-.19.19.19.19,0,0,0,.19.19h1v.51a.2.2,0,0,0,.19.19.19.19,0,0,0,.19-.19v-.51h1a.19.19,0,0,0,.19-.19.18.18,0,0,0-.19-.19Z" fill="#37474f"/>
          <path id="Path_1043" data-name="Path 1043" d="M327.68,285.61v10.04l16.29,9.41V295.02Z" fill="#88f5b4" opacity="0.5"/>
          <path id="Path_1044" data-name="Path 1044" d="M343.97,295.02l-7.6-4.39-8.69,5.02,16.29,9.41Z" fill="#88f5b4" opacity="0.5"/>
          <path id="Path_1045" data-name="Path 1045" d="M299.72,269.47v10.04l16.3,9.41V278.88Z" fill="#88f5b4" opacity="0.5"/>
          <path id="Path_1046" data-name="Path 1046" d="M316.02,278.88l-7.61-4.39-8.69,5.02,16.3,9.41Z" fill="#88f5b4" opacity="0.5"/>
          <path id="Path_1047" data-name="Path 1047" d="M355.65,301.76V311.8l16.3,9.41V311.17Z" fill="#88f5b4" opacity="0.5"/>
          <path id="Path_1048" data-name="Path 1048" d="M371.95,311.17l-7.6-4.39-8.7,5.02,16.3,9.41Z" fill="#88f5b4" opacity="0.5"/>
          <path id="Path_1049" data-name="Path 1049" d="M352.04,299.67l-4.48-2.59v10.05l4.48,2.58Z" fill="#88f5b4" opacity="0.5"/>
          <path id="Path_1050" data-name="Path 1050" d="M352.04,304.54l-4.48,2.59,4.48,2.58Z" fill="#88f5b4" opacity="0.5"/>
          <path id="Path_1051" data-name="Path 1051" d="M324.09,283.54l-4.48-2.59v10.04l4.48,2.59Z" fill="#88f5b4" opacity="0.5"/>
          <path id="Path_1052" data-name="Path 1052" d="M324.09,288.4l-4.48,2.59,4.48,2.59Z" fill="#88f5b4" opacity="0.5"/>
          <path id="Path_1053" data-name="Path 1053" d="M299.72,276.9,316,286.3v-4.82l-16.29-9.41Zm19.89,11.48,4.48,2.59v-4.83l-4.48-2.59Zm8.06,4.65L344,302.45v-4.83l-16.31-9.41Zm28,11.33v4.82L372,318.6v-4.83Zm-8.09.16,4.48,2.59v-4.83l-4.48-2.59Z" fill="#37474f"/>
          <path id="Path_1054" data-name="Path 1054" d="M316,284.84v-3.36l-1.94-1.12Zm3.6-1.29v4.83l4.48,2.59v-1.89l-1.7-3.92Zm-14.22-8.21,2.79,6.44,4.28,2.47-2.79-6.44ZM334,291.86l2.8,6.44,4.28,2.47-2.8-6.45Zm30.65,17.68,2.79,6.44,4.28,2.47-2.8-6.45Zm-12.89-2.6.29.17v-4.83L349,300.49Zm5.52-1.65-1.62-.93v4.82l4.41,2.55Z" fill="#455a64"/>
        </g>
      </g>
      <g id="freepik--speech-bubble--inject-50">
        <g id="freepik--speech-bubble--inject-50-2" data-name="freepik--speech-bubble--inject-50">
          <g id="freepik--speech-bubble--inject-50-3" data-name="freepik--speech-bubble--inject-50">
            <path id="Path_1055" data-name="Path 1055" d="M302.29,187.65l-4.31-8.1,3.46-10v-6.12l-10.6,6.12v6.12l4.56,7.9a.67.67,0,0,0,.31.27h0Z" fill="#88f5b4"/>
            <path id="Path_1056" data-name="Path 1056" d="M302.29,187.65l-4.31-8.1,3.46-10v-6.12l-10.6,6.12v6.12l4.56,7.9a.67.67,0,0,0,.31.27h0Z" opacity="0.2"/>
            <path id="Path_1057" data-name="Path 1057" d="M327.6,111.08a7,7,0,0,0-3.18-5.5l-2.59-1.5a7,7,0,0,0-6.35,0L275.8,127a7,7,0,0,0-3.18,5.51V179.9a7,7,0,0,0,3.18,5.51l2.58,1.49a7.05,7.05,0,0,0,6.36,0l12.76-7.37,4.55,7.88a.68.68,0,0,0,1.23-.12l4.8-13.88L324.42,164a7,7,0,0,0,3.18-5.5Z" fill="#88f5b4"/>
            <path id="Path_1058" data-name="Path 1058" d="M272.62,179.9a7,7,0,0,0,3.18,5.51l2.58,1.49a7.1,7.1,0,0,0,5.82.26c-1.5.56-2.64-.28-2.64-2.09V137.7a6.53,6.53,0,0,1,.93-3.13l-8.94-5.16a6.4,6.4,0,0,0-.93,3.13Z" opacity="0.2"/>
            <path id="Path_1059" data-name="Path 1059" d="M327.49,110.18c-.37-1.35-1.6-1.78-3.07-.94l-39.68,23a6.18,6.18,0,0,0-2.24,2.37l-8.94-5.16A6.34,6.34,0,0,1,275.8,127l39.67-23a7.12,7.12,0,0,1,6.36,0l2.59,1.5a7,7,0,0,1,3.07,4.68Z" fill="#fff" opacity="0.3"/>
          </g>
          <path id="freepik--musical-note--inject-50" d="M296.21,138.77v20.85A2.42,2.42,0,0,0,295,160c-2,1.12-3.55,4.47-3.55,7.49S293,172,295,170.87s3.54-4.48,3.55-7.49l.05-18.69,12.21-11.92h0v18.51a2.45,2.45,0,0,0-1.18.34c-1.95,1.12-3.54,4.47-3.54,7.48s1.57,4.55,3.53,3.42,3.54-4.47,3.55-7.48h0v-30.9Z" fill="#fafafa"/>
        </g>
      </g>
      <g id="freepik--musical-notes--inject-50">
        <g id="freepik--music-notes--inject-50">
          <path id="Path_1060" data-name="Path 1060" d="M252,71.3c1.91,1,3.81,2,5.71,3.07l4.48,2.42c.15.07,2,1.15,2,1.15a4.3,4.3,0,0,0-1.29,1.45,3.64,3.64,0,1,0,4.93-1.48l-11-5.92a4.831,4.831,0,0,1,.47-1.91,10.09,10.09,0,0,1,1.49-2.19,18.692,18.692,0,0,0,2.14-2.8,4.35,4.35,0,0,0,.51-3.4,4.58,4.58,0,0,1-1.18,1.67c-1.23,1.11-3.24,1.46-4.68,2.29C253.46,66.88,252.6,68.75,252,71.3Z" fill="#ebebeb"/>
          <path id="Path_1061" data-name="Path 1061" d="M441.19,200.57l4.22,11.92a3.3,3.3,0,1,0,3.12,2.19L444.75,204l9.76-6.63h0l3.76,10.58a3.3,3.3,0,1,0,3.12,2.19h0l-6.28-17.67Z" fill="#ebebeb"/>
          <path id="Path_1062" data-name="Path 1062" d="M449.12,69.31c1.35,1.69,2.66,3.42,4,5.13l3.12,4,1.37,1.86a4.41,4.41,0,0,0-1.78.81,3.64,3.64,0,1,0,5.11.64l-7.63-9.86a4.74,4.74,0,0,1,1.2-1.56A10,10,0,0,1,456.74,69a18.569,18.569,0,0,0,3.1-1.69,4.36,4.36,0,0,0,1.84-2.9,4.57,4.57,0,0,1-1.76,1.05c-1.57.5-3.56,0-5.2.19C452.27,65.87,450.71,67.23,449.12,69.31Z" fill="#ebebeb"/>
          <path id="Path_1063" data-name="Path 1063" d="M403.79,137.41c-1.36,3.46-2.82,6.91-4.23,10.36l-3.33,8.13c-.1.25-1.6,3.65-1.6,3.65a7.62,7.62,0,0,0-2.73-2,6.28,6.28,0,1,0,3.45,8.18l8.15-19.9a8,8,0,0,1,3.36.45,17.61,17.61,0,0,1,4,2.15,31.569,31.569,0,0,0,5.2,3.17,7.61,7.61,0,0,0,5.93.26,7.88,7.88,0,0,1-3.09-1.73c-2.12-1.91-3.09-5.3-4.77-7.61C411.64,139.13,408.27,138,403.79,137.41Z" fill="#ebebeb"/>
          <path id="Path_1064" data-name="Path 1064" d="M43.55,95.35a3.65,3.65,0,1,0,7.14-1.48L48.18,81.64A4.73,4.73,0,0,1,50,80.77a9.711,9.711,0,0,1,2.63-.26,19,19,0,0,0,3.54-.15,4.42,4.42,0,0,0,2.94-1.8,4.6,4.6,0,0,1-2.05.17c-1.64-.24-3.21-1.56-4.76-2.13-2.32-.85-4.32-.31-6.67.86.47,2.11.88,4.24,1.31,6.36.35,1.67.69,3.33,1,5l.41,2.28a4.51,4.51,0,0,0-1.97-.1,3.65,3.65,0,0,0-2.83,4.35Z" fill="#ebebeb"/>
          <path id="Path_1065" data-name="Path 1065" d="M35.76,198a4.684,4.684,0,1,0,8.62,3.67l6.31-14.75,16.52,2.44h0L61,204a4.74,4.74,0,0,0-1.33-.88,4.69,4.69,0,1,0,2.48,6.15h0l10.4-24.42-22.27-4.9-7,16.46a4.89,4.89,0,0,0-1.33-.88A4.68,4.68,0,0,0,35.76,198Z" fill="#ebebeb"/>
          <path id="Path_1066" data-name="Path 1066" d="M347.16,69.29A4.692,4.692,0,1,0,355.78,73l6.32-14.75,16.51,2.44h0l-6.22,14.63a4.674,4.674,0,1,0,1.15,5.27h0l10.39-24.42-22.26-4.9-7,16.46a4.829,4.829,0,0,0-1.32-.88,4.69,4.69,0,0,0-6.19,2.44Z" fill="#ebebeb"/>
          <path id="Path_1067" data-name="Path 1067" d="M138.38,33.65a14.94,14.94,0,0,1,3.78-.07,25.32,25.32,0,0,0,5.07.2,6.27,6.27,0,0,0,4.4-2.22,6.63,6.63,0,0,1-2.94,0C146.38,31,144.3,29,142.14,28c-3.21-1.49-6.12-.95-9.61.44.42,3.07.75,6.16,1.13,9.24.29,2.42.59,4.84.88,7.25,0,.23.32,3.3.32,3.3a6.35,6.35,0,0,0-2.78-.3,5.22,5.22,0,1,0,5.83,4.54l-2.16-17.76a6.77,6.77,0,0,1,2.63-1.06Z" fill="#ebebeb"/>
        </g>
      </g>
    </g>
  </g>
</svg>
